<svg width="32" height="33" viewBox="0 0 32 33" fill="none" xmlns="http://www.w3.org/2000/svg">
<path d="M18.272 6.21197C18.1487 6.08278 18.0008 5.97967 17.8369 5.90875C17.673 5.83783 17.4966 5.80055 17.318 5.79912C17.1395 5.79768 16.9624 5.83213 16.7975 5.90042C16.6325 5.9687 16.4829 6.06943 16.3575 6.19663C16.2322 6.32382 16.1337 6.4749 16.0679 6.64088C16.0021 6.80687 15.9703 6.98438 15.9743 7.1629C15.9784 7.34141 16.0183 7.51729 16.0917 7.68009C16.165 7.84289 16.2703 7.98931 16.4013 8.11064L23.56 15.1666H5.33333C4.97971 15.1666 4.64057 15.3071 4.39052 15.5572C4.14048 15.8072 4 16.1463 4 16.5C4 16.8536 4.14048 17.1927 4.39052 17.4428C4.64057 17.6928 4.97971 17.8333 5.33333 17.8333H23.5533L16.4 24.88C16.1608 25.1307 16.0286 25.4646 16.0314 25.8111C16.0342 26.1576 16.1717 26.4894 16.4149 26.7362C16.6581 26.983 16.9878 27.1255 17.3342 27.1334C17.6806 27.1413 18.0165 27.0141 18.2707 26.7786L27.504 17.6826C27.6612 17.5276 27.7861 17.3428 27.8713 17.1391C27.9565 16.9354 28.0004 16.7168 28.0004 16.496C28.0004 16.2752 27.9565 16.0565 27.8713 15.8528C27.7861 15.6491 27.6612 15.4644 27.504 15.3093L18.2707 6.21197H18.272Z" fill="white"/>
</svg>
