<svg width="560" height="560" viewBox="0 0 560 560" fill="none" xmlns="http://www.w3.org/2000/svg">
<circle cx="290.5" cy="283.5" r="175.5" fill="#EEE1D1"/>
<circle cx="126" cy="165" r="11" fill="#ECF6EF"/>
<circle cx="410.5" cy="121.5" r="20.5" fill="#ECF6EF"/>
<circle cx="129.5" cy="396.5" r="19.5" fill="#ECF6EF"/>
<circle cx="478.5" cy="377.5" r="19.5" fill="#ECF6EF"/>
<circle cx="440.5" cy="399.5" r="9.5" fill="#ECF6EF"/>
<path d="M318.525 115.537C317.946 115.414 317.946 114.586 318.525 114.463L327.291 112.599C327.502 112.554 327.668 112.389 327.713 112.178L329.601 103.474C329.726 102.897 330.549 102.897 330.674 103.474L332.561 112.178C332.607 112.389 332.772 112.554 332.984 112.599L341.749 114.463C342.329 114.586 342.329 115.414 341.749 115.537L332.984 117.401C332.772 117.446 332.607 117.611 332.561 117.822L330.674 126.526C330.549 127.103 329.726 127.103 329.601 126.526L327.713 117.822C327.668 117.611 327.502 117.446 327.291 117.401L318.525 115.537Z" fill="#8ECEA3"/>
<path d="M80.2229 309.622C80.4467 308.565 81.9558 308.565 82.1796 309.622L85.5224 325.415C85.6038 325.799 85.9034 326.101 86.2878 326.185L101.917 329.589C102.967 329.818 102.967 331.315 101.917 331.544L86.2878 334.948C85.9034 335.032 85.6038 335.334 85.5224 335.718L82.1796 351.511C81.9558 352.568 80.4467 352.568 80.2229 351.511L76.8801 335.718C76.7986 335.334 76.499 335.032 76.1146 334.948L60.4851 331.544C59.4356 331.315 59.4356 329.818 60.4851 329.589L76.1146 326.185C76.499 326.101 76.7986 325.799 76.8801 325.415L80.2229 309.622Z" fill="#8ECEA3"/>
<path d="M447.345 169.622C447.568 168.565 449.078 168.565 449.301 169.622L451.251 178.835C451.333 179.22 451.633 179.521 452.017 179.605L461.161 181.597C462.21 181.826 462.21 183.323 461.161 183.551L452.017 185.543C451.633 185.627 451.333 185.928 451.251 186.313L449.301 195.526C449.078 196.583 447.568 196.583 447.345 195.526L445.395 186.313C445.313 185.928 445.014 185.627 444.629 185.543L435.485 183.551C434.436 183.323 434.436 181.826 435.485 181.597L444.629 179.605C445.014 179.521 445.313 179.22 445.395 178.835L447.345 169.622Z" fill="#8ECEA3"/>
<path d="M487.658 317.331L490.721 331.798L504.981 334.905L490.721 338.011L487.658 352.479L484.596 338.011L470.335 334.905L484.596 331.798L487.658 317.331Z" fill="white"/>
<circle cx="290.5" cy="283.5" r="175.5" fill="#EEE1D1"/>
<circle cx="126" cy="165" r="11" fill="#ECF6EF"/>
<circle cx="410.5" cy="121.5" r="20.5" fill="#ECF6EF"/>
<circle cx="129.5" cy="396.5" r="19.5" fill="#ECF6EF"/>
<circle cx="478.5" cy="377.5" r="19.5" fill="#ECF6EF"/>
<circle cx="440.5" cy="399.5" r="9.5" fill="#ECF6EF"/>
<path d="M318.525 115.537C317.946 115.414 317.946 114.586 318.525 114.463L327.291 112.599C327.502 112.554 327.668 112.389 327.713 112.178L329.601 103.474C329.726 102.897 330.549 102.897 330.674 103.474L332.561 112.178C332.607 112.389 332.772 112.554 332.984 112.599L341.749 114.463C342.329 114.586 342.329 115.414 341.749 115.537L332.984 117.401C332.772 117.446 332.607 117.611 332.561 117.822L330.674 126.526C330.549 127.103 329.726 127.103 329.601 126.526L327.713 117.822C327.668 117.611 327.502 117.446 327.291 117.401L318.525 115.537Z" fill="#8ECEA3"/>
<path d="M80.2229 309.622C80.4467 308.565 81.9558 308.565 82.1796 309.622L85.5224 325.415C85.6038 325.799 85.9034 326.101 86.2878 326.185L101.917 329.589C102.967 329.818 102.967 331.315 101.917 331.544L86.2878 334.948C85.9034 335.032 85.6038 335.334 85.5224 335.718L82.1796 351.511C81.9558 352.568 80.4467 352.568 80.2229 351.511L76.8801 335.718C76.7986 335.334 76.499 335.032 76.1146 334.948L60.4851 331.544C59.4356 331.315 59.4356 329.818 60.4851 329.589L76.1146 326.185C76.499 326.101 76.7986 325.799 76.8801 325.415L80.2229 309.622Z" fill="#8ECEA3"/>
<path d="M447.345 169.622C447.568 168.565 449.078 168.565 449.301 169.622L451.251 178.835C451.333 179.22 451.633 179.521 452.017 179.605L461.161 181.597C462.21 181.826 462.21 183.323 461.161 183.551L452.017 185.543C451.633 185.627 451.333 185.928 451.251 186.313L449.301 195.526C449.078 196.583 447.568 196.583 447.345 195.526L445.395 186.313C445.313 185.928 445.014 185.627 444.629 185.543L435.485 183.551C434.436 183.323 434.436 181.826 435.485 181.597L444.629 179.605C445.014 179.521 445.313 179.22 445.395 178.835L447.345 169.622Z" fill="#8ECEA3"/>
<path d="M487.658 317.331L490.721 331.798L504.981 334.905L490.721 338.011L487.658 352.479L484.596 338.011L470.335 334.905L484.596 331.798L487.658 317.331Z" fill="white"/>
<rect x="286.846" y="182.891" width="180.208" height="194.008" rx="10.492" transform="rotate(10 286.846 182.891)" fill="white" stroke="#8ECEA3" stroke-width="4"/>
<rect x="295.457" y="195.188" width="157.917" height="137.749" rx="10.492" transform="rotate(10 295.457 195.188)" fill="#ECF6EF" stroke="#ECF6EF" stroke-width="4"/>
<path d="M306.305 349.03C306.664 349.112 307.125 349.212 307.689 349.331C308.269 349.453 308.842 349.565 309.408 349.668C310.164 349.806 310.882 349.929 311.561 350.036C312.257 350.147 312.746 350.228 313.03 350.279C314.368 350.523 315.446 350.898 316.264 351.405C317.098 351.915 317.671 352.523 317.981 353.23C318.31 353.925 318.401 354.673 318.255 355.476C318.166 355.964 317.969 356.465 317.664 356.978C317.378 357.479 316.948 357.921 316.374 358.305C315.802 358.672 315.073 358.929 314.184 359.077C313.295 359.224 312.205 359.18 310.914 358.945L308.648 358.532L308.734 358.059L310.764 358.429C311.819 358.621 312.653 358.595 313.267 358.349C313.9 358.09 314.364 357.686 314.659 357.138C314.972 356.577 315.195 355.935 315.327 355.211C315.554 353.967 315.461 352.958 315.049 352.184C314.64 351.394 313.774 350.878 312.452 350.638C311.775 350.514 311.302 350.566 311.033 350.794C310.78 351.024 310.578 351.549 310.429 352.367L308.296 364.078C308.193 364.645 308.163 365.079 308.205 365.379C308.248 365.68 308.395 365.902 308.645 366.045C308.896 366.188 309.278 366.323 309.791 366.449L309.705 366.921C309.333 366.821 308.856 366.718 308.274 366.611C307.71 366.492 307.129 366.378 306.531 366.27C305.87 366.149 305.246 366.044 304.661 365.953C304.095 365.85 303.627 365.781 303.26 365.747L303.346 365.275C303.886 365.341 304.299 365.351 304.584 365.305C304.869 365.259 305.076 365.102 305.207 364.833C305.353 364.567 305.478 364.15 305.581 363.584L307.714 351.873C307.82 351.29 307.85 350.856 307.805 350.572C307.778 350.274 307.631 350.052 307.365 349.906C307.117 349.747 306.735 349.613 306.219 349.502L306.305 349.03ZM308.768 358.139C309.565 358.317 310.203 358.473 310.683 358.61C311.165 358.73 311.569 358.836 311.893 358.928C312.218 359.019 312.518 359.115 312.793 359.214C313.945 359.586 314.745 360.057 315.194 360.627C315.659 361.199 315.905 361.992 315.932 363.005L316.084 365.521C316.102 366.224 316.164 366.731 316.27 367.043C316.391 367.358 316.617 367.546 316.948 367.606C317.203 367.636 317.42 367.603 317.601 367.505C317.799 367.395 318.015 367.239 318.247 367.038L318.53 367.358C318.079 367.78 317.634 368.081 317.195 368.261C316.758 368.425 316.209 368.447 315.548 368.327C314.871 368.204 314.32 367.924 313.895 367.489C313.489 367.041 313.274 366.303 313.25 365.274L313.208 362.826C313.19 362.124 313.138 361.513 313.054 360.993C312.973 360.458 312.8 360.02 312.537 359.679C312.29 359.341 311.875 359.119 311.292 359.013L308.742 358.549L308.768 358.139ZM321.932 369.319C321.271 369.198 320.727 368.969 320.3 368.631C319.874 368.294 319.583 367.883 319.427 367.399C319.271 366.915 319.245 366.39 319.348 365.823C319.474 365.131 319.734 364.601 320.126 364.233C320.521 363.85 320.987 363.569 321.524 363.39C322.076 363.214 322.644 363.09 323.226 363.017C323.827 362.931 324.386 362.854 324.903 362.786C325.438 362.704 325.883 362.582 326.238 362.419C326.609 362.259 326.827 361.998 326.893 361.636L327.185 360.03C327.289 359.463 327.276 358.998 327.147 358.633C327.037 358.255 326.838 357.966 326.549 357.767C326.275 357.571 325.926 357.434 325.501 357.357C325.139 357.291 324.743 357.276 324.314 357.311C323.888 357.331 323.529 357.469 323.239 357.725C323.568 357.883 323.817 358.123 323.985 358.447C324.173 358.758 324.229 359.117 324.155 359.527C324.074 359.968 323.862 360.287 323.517 360.484C323.187 360.684 322.802 360.744 322.362 360.664C321.874 360.575 321.539 360.359 321.357 360.017C321.179 359.66 321.126 359.276 321.201 358.867C321.278 358.442 321.444 358.114 321.697 357.884C321.966 357.656 322.296 357.456 322.685 357.283C323.109 357.1 323.627 356.975 324.241 356.908C324.871 356.844 325.548 356.878 326.272 357.009C326.949 357.133 327.517 357.318 327.976 357.564C328.454 357.797 328.828 358.109 329.099 358.5C329.426 358.934 329.603 359.438 329.628 360.012C329.657 360.57 329.601 361.234 329.46 362.006L328.273 368.522C328.201 368.916 328.197 369.208 328.26 369.398C328.341 369.576 328.5 369.686 328.736 369.729C328.894 369.758 329.05 369.746 329.206 369.693C329.378 369.643 329.581 369.558 329.814 369.437L329.977 369.882C329.598 370.089 329.221 370.24 328.846 370.334C328.486 370.432 328.047 370.433 327.528 370.338C327.024 370.247 326.629 370.093 326.343 369.879C326.057 369.664 325.862 369.392 325.759 369.065C325.672 368.74 325.669 368.357 325.749 367.916C325.219 368.503 324.639 368.918 324.01 369.161C323.38 369.404 322.687 369.457 321.932 369.319ZM323.272 368.392C323.712 368.472 324.144 368.421 324.568 368.238C325.008 368.058 325.438 367.746 325.861 367.302L326.717 362.604C326.498 362.824 326.206 362.999 325.841 363.127C325.479 363.24 325.091 363.357 324.679 363.477C324.267 363.597 323.865 363.751 323.473 363.94C323.099 364.116 322.768 364.373 322.478 364.71C322.189 365.048 321.992 365.508 321.886 366.09C321.774 366.704 321.842 367.221 322.091 367.64C322.343 368.044 322.736 368.295 323.272 368.392ZM337.615 355.392L336.901 359.312L340.159 359.905L340.073 360.377L336.815 359.784L335.124 369.063C335.007 369.708 335.042 370.186 335.229 370.497C335.416 370.808 335.73 371.003 336.171 371.083C336.58 371.158 336.973 371.059 337.348 370.785C337.738 370.515 338.124 370.008 338.503 369.264L338.922 369.511C338.581 370.311 338.113 370.957 337.519 371.451C336.944 371.932 336.192 372.087 335.263 371.918C334.728 371.821 334.292 371.668 333.956 371.46C333.617 371.269 333.336 371.022 333.115 370.722C332.834 370.297 332.677 369.821 332.643 369.294C332.609 368.767 332.667 368.087 332.819 367.253L334.265 359.319L332.092 358.924L332.178 358.451L334.351 358.847L334.979 355.4C335.469 355.473 335.933 355.517 336.37 355.531C336.809 355.53 337.224 355.483 337.615 355.392ZM352.218 361.809L350.416 371.702C350.287 372.411 350.309 372.959 350.482 373.349C350.673 373.725 351.092 373.972 351.737 374.09L351.647 374.586C351.168 374.449 350.684 374.337 350.196 374.248C349.677 374.153 349.176 374.087 348.696 374.048C348.215 374.009 347.766 374.017 347.35 374.071L347.819 371.497C347.253 372.37 346.579 372.947 345.796 373.227C345.032 373.494 344.264 373.558 343.492 373.417C342.91 373.311 342.43 373.134 342.052 372.887C341.672 372.655 341.372 372.38 341.153 372.064C340.927 371.698 340.803 371.26 340.782 370.752C340.764 370.229 340.823 369.589 340.961 368.833L342.045 362.883C342.174 362.175 342.15 361.634 341.974 361.26C341.801 360.871 341.384 360.616 340.723 360.496L340.814 360C341.309 360.139 341.792 360.251 342.265 360.337C342.784 360.432 343.284 360.499 343.765 360.538C344.249 360.561 344.697 360.553 345.111 360.514L343.391 369.959C343.307 370.415 343.263 370.838 343.257 371.228C343.251 371.617 343.346 371.943 343.542 372.207C343.738 372.47 344.096 372.649 344.615 372.744C345.166 372.844 345.684 372.768 346.17 372.514C346.671 372.264 347.099 371.879 347.454 371.358C347.809 370.837 348.051 370.222 348.18 369.514L349.152 364.178C349.281 363.47 349.257 362.929 349.082 362.555C348.909 362.166 348.491 361.911 347.83 361.79L347.921 361.295C348.416 361.434 348.899 361.546 349.372 361.632C349.891 361.727 350.391 361.793 350.872 361.832C351.356 361.855 351.804 361.848 352.218 361.809ZM361.875 359.153C362.234 359.234 362.695 359.335 363.259 359.454C363.839 359.575 364.412 359.688 364.978 359.791C365.734 359.929 366.452 360.051 367.131 360.159C367.827 360.269 368.316 360.35 368.6 360.402C370.363 360.723 371.614 361.309 372.353 362.159C373.109 363.012 373.387 363.982 373.19 365.068C373.089 365.619 372.855 366.146 372.487 366.648C372.138 367.137 371.632 367.549 370.969 367.884C370.309 368.203 369.476 368.401 368.47 368.478L368.462 368.525C369.758 368.907 370.745 369.38 371.424 369.943C372.102 370.505 372.544 371.114 372.75 371.77C372.958 372.41 373.004 373.052 372.886 373.697C372.717 374.626 372.333 375.394 371.735 376C371.139 376.591 370.359 376.994 369.393 377.208C368.442 377.425 367.345 377.421 366.102 377.194C365.755 377.131 365.23 377.027 364.524 376.882C363.837 376.725 362.998 376.556 362.006 376.375C361.408 376.266 360.816 376.166 360.231 376.076C359.664 375.973 359.197 375.904 358.829 375.869L358.915 375.397C359.456 375.463 359.869 375.473 360.154 375.428C360.439 375.382 360.646 375.225 360.777 374.956C360.923 374.69 361.047 374.273 361.151 373.706L363.284 361.995C363.39 361.413 363.42 360.979 363.375 360.694C363.347 360.397 363.201 360.175 362.935 360.029C362.687 359.87 362.305 359.735 361.789 359.625L361.875 359.153ZM368.022 360.76C367.345 360.637 366.872 360.689 366.603 360.917C366.35 361.147 366.148 361.671 365.999 362.49L363.866 374.201C363.766 374.752 363.737 375.178 363.78 375.478C363.823 375.779 363.953 375.998 364.172 376.135C364.407 376.276 364.76 376.389 365.233 376.475C366.649 376.733 367.737 376.565 368.496 375.971C369.273 375.365 369.782 374.401 370.023 373.078C370.244 371.866 370.092 370.871 369.567 370.092C369.057 369.316 368.071 368.795 366.607 368.528L364.317 368.111C364.317 368.111 364.328 368.048 364.351 367.922C364.377 367.781 364.39 367.71 364.39 367.71L366.42 368.08C367.286 368.237 367.987 368.186 368.522 367.926C369.06 367.65 369.469 367.236 369.748 366.686C370.03 366.119 370.233 365.497 370.356 364.82C370.568 363.655 370.499 362.74 370.149 362.075C369.801 361.393 369.092 360.955 368.022 360.76ZM381.808 367.126C382.863 367.318 383.76 367.709 384.498 368.299C385.236 368.889 385.763 369.7 386.079 370.734C386.395 371.767 386.414 373.047 386.136 374.574C385.858 376.101 385.389 377.292 384.729 378.148C384.071 378.988 383.293 379.553 382.395 379.845C381.499 380.121 380.523 380.163 379.469 379.971C378.43 379.781 377.532 379.398 376.775 378.821C376.021 378.229 375.485 377.423 375.166 376.406C374.866 375.375 374.855 374.097 375.133 372.57C375.411 371.043 375.872 369.85 376.516 368.992C377.176 368.136 377.964 367.564 378.878 367.275C379.793 366.987 380.77 366.937 381.808 367.126ZM381.722 367.598C380.904 367.449 380.149 367.8 379.457 368.649C378.769 369.483 378.232 370.955 377.848 373.064C377.464 375.174 377.447 376.74 377.797 377.763C378.15 378.771 378.736 379.349 379.555 379.498C380.358 379.645 381.102 379.309 381.788 378.49C382.492 377.659 383.036 376.189 383.42 374.08C383.805 371.97 383.814 370.402 383.448 369.376C383.1 368.337 382.525 367.745 381.722 367.598ZM390.33 386.194C389.449 386.033 388.646 385.798 387.922 385.487C387.214 385.179 386.664 384.802 386.274 384.357C385.896 383.931 385.758 383.442 385.858 382.891C385.952 382.372 386.256 381.955 386.768 381.642C387.281 381.329 387.957 381.143 388.797 381.084L388.894 381.492C388.537 381.574 388.236 381.755 387.99 382.035C387.759 382.318 387.61 382.649 387.541 383.027C387.415 383.719 387.64 384.313 388.216 384.809C388.793 385.304 389.609 385.648 390.663 385.84C391.372 385.969 392.058 385.996 392.722 385.922C393.399 385.867 393.971 385.67 394.439 385.332C394.923 384.998 395.224 384.508 395.341 383.862C395.433 383.359 395.329 382.901 395.031 382.488C394.729 382.092 394.043 381.796 392.972 381.601L391.319 381.3C390.768 381.2 390.265 381.059 389.81 380.879C389.355 380.698 389.003 380.447 388.752 380.125C388.521 379.79 388.451 379.371 388.542 378.867C388.646 378.3 388.979 377.808 389.543 377.39C390.107 376.973 390.993 376.622 392.199 376.337L392.444 376.601C391.941 376.77 391.485 376.955 391.074 377.157C390.682 377.346 390.451 377.629 390.382 378.007C390.291 378.51 390.607 378.828 391.331 378.96L394.141 379.472C394.881 379.607 395.531 379.831 396.092 380.145C396.655 380.442 397.08 380.837 397.364 381.328C397.649 381.819 397.728 382.41 397.602 383.103C397.467 383.843 397.097 384.491 396.492 385.048C395.899 385.623 395.087 386.02 394.055 386.238C393.02 386.472 391.779 386.458 390.33 386.194ZM392.197 376.752C391.394 376.605 390.685 376.346 390.07 375.974C389.457 375.586 389.012 375.082 388.735 374.462C388.458 373.842 388.398 373.1 388.555 372.234C388.713 371.368 389.031 370.694 389.509 370.212C389.99 369.714 390.584 369.4 391.291 369.268C392.001 369.121 392.757 369.121 393.56 369.267C394.394 369.419 395.11 369.687 395.707 370.072C396.306 370.442 396.743 370.944 397.018 371.58C397.295 372.2 397.355 372.942 397.197 373.808C397.039 374.674 396.722 375.348 396.243 375.83C395.765 376.312 395.179 376.628 394.485 376.778C393.794 376.912 393.031 376.904 392.197 376.752ZM392.274 376.327C392.825 376.427 393.293 376.268 393.678 375.85C394.063 375.433 394.371 374.594 394.6 373.335C394.829 372.076 394.837 371.183 394.624 370.656C394.414 370.114 394.034 369.792 393.483 369.692C392.963 369.597 392.502 369.765 392.098 370.196C391.697 370.611 391.382 371.448 391.153 372.707C390.923 373.966 390.923 374.861 391.152 375.39C391.381 375.92 391.755 376.232 392.274 376.327ZM396.693 371.887L396.298 371.644C396.619 371.133 397.084 370.722 397.694 370.41C398.304 370.098 398.9 369.996 399.482 370.102C399.923 370.182 400.247 370.371 400.453 370.669C400.677 370.953 400.749 371.316 400.669 371.757C400.58 372.245 400.383 372.567 400.078 372.723C399.789 372.882 399.503 372.935 399.22 372.884C398.968 372.838 398.747 372.708 398.559 372.495C398.386 372.284 398.316 371.995 398.351 371.627C398.388 371.244 398.594 370.785 398.967 370.252L399.21 370.393C398.534 370.531 398.021 370.714 397.67 370.942C397.338 371.158 397.013 371.473 396.693 371.887ZM402.427 383.982C401.766 383.862 401.223 383.633 400.796 383.295C400.37 382.957 400.079 382.546 399.923 382.062C399.767 381.578 399.741 381.053 399.844 380.487C399.97 379.794 400.229 379.264 400.622 378.896C401.017 378.513 401.483 378.232 402.019 378.053C402.572 377.877 403.139 377.753 403.722 377.68C404.323 377.594 404.882 377.517 405.398 377.449C405.934 377.367 406.379 377.245 406.734 377.082C407.104 376.922 407.323 376.661 407.389 376.299L407.681 374.693C407.784 374.127 407.772 373.661 407.643 373.296C407.533 372.918 407.333 372.629 407.044 372.43C406.771 372.234 406.422 372.098 405.997 372.02C405.635 371.954 405.239 371.939 404.81 371.975C404.383 371.995 404.025 372.133 403.734 372.389C404.063 372.546 404.312 372.787 404.481 373.11C404.668 373.421 404.725 373.781 404.65 374.19C404.57 374.631 404.357 374.95 404.012 375.147C403.683 375.347 403.298 375.407 402.857 375.327C402.369 375.238 402.035 375.023 401.853 374.681C401.674 374.323 401.622 373.939 401.697 373.53C401.774 373.105 401.94 372.777 402.193 372.547C402.462 372.319 402.791 372.119 403.181 371.946C403.604 371.763 404.123 371.638 404.737 371.571C405.367 371.507 406.044 371.541 406.768 371.673C407.445 371.796 408.013 371.981 408.472 372.227C408.95 372.46 409.324 372.773 409.594 373.163C409.922 373.597 410.098 374.101 410.124 374.675C410.152 375.233 410.096 375.898 409.956 376.669L408.769 383.186C408.697 383.579 408.693 383.871 408.756 384.061C408.837 384.239 408.996 384.349 409.232 384.392C409.389 384.421 409.546 384.409 409.702 384.356C409.874 384.306 410.076 384.221 410.31 384.101L410.473 384.545C410.093 384.752 409.716 384.903 409.341 384.998C408.982 385.095 408.543 385.096 408.023 385.001C407.52 384.91 407.125 384.756 406.839 384.542C406.552 384.327 406.358 384.056 406.255 383.728C406.168 383.403 406.164 383.02 406.245 382.579C405.715 383.166 405.135 383.581 404.505 383.824C403.876 384.067 403.183 384.12 402.427 383.982ZM403.767 383.055C404.208 383.135 404.64 383.084 405.064 382.901C405.503 382.721 405.934 382.409 406.356 381.966L407.212 377.267C406.993 377.487 406.701 377.662 406.336 377.79C405.974 377.903 405.587 378.02 405.175 378.14C404.763 378.26 404.36 378.414 403.968 378.603C403.595 378.779 403.263 379.036 402.974 379.373C402.685 379.711 402.487 380.171 402.381 380.754C402.269 381.367 402.338 381.884 402.587 382.303C402.839 382.707 403.232 382.958 403.767 383.055Z" fill="#37322B"/>
<rect x="112.683" y="214.184" width="180.208" height="194.008" rx="10.492" transform="rotate(-10 112.683 214.184)" fill="white" stroke="#8ECEA3" stroke-width="4"/>
<rect x="124.98" y="222.795" width="157.917" height="137.749" rx="10.492" transform="rotate(-10 124.98 222.795)" fill="#ECF6EF" stroke="#ECF6EF" stroke-width="4"/>
<path d="M257.552 253.781C247.507 254.116 231.771 278.116 231.771 278.116C231.771 278.116 232.501 287.63 240.36 284.233C248.218 280.836 264.15 295.26 266.82 280.373C269.49 265.486 297.233 254.413 292.74 248.448C288.247 242.483 268.913 260.729 271.356 251.352C273.8 241.975 269.219 253.373 257.552 253.781Z" fill="#628E30"/>
<path d="M246.922 278.801C236.871 279.131 221.131 303.137 221.131 303.137C221.131 303.137 221.866 312.645 229.719 309.253C237.573 305.862 253.51 320.281 256.185 305.388C258.859 290.496 286.592 279.434 282.105 273.464C277.617 267.494 258.273 285.749 260.721 276.377C263.17 267.005 258.569 278.404 246.922 278.801Z" fill="#6F9A3F"/>
<path d="M236.316 246.874C226.271 247.209 210.53 271.214 210.53 271.214C210.53 271.214 211.265 280.722 219.119 277.331C226.973 273.939 242.91 288.358 245.584 273.466C248.259 258.574 275.992 247.511 271.504 241.541C267.016 235.571 247.672 253.827 250.116 244.45C252.559 235.073 247.954 246.497 236.316 246.874Z" fill="#6F9A3F"/>
<path d="M169.101 299.398C176.804 308.497 203.658 309.579 203.658 309.579C203.658 309.579 209.101 303.581 201.12 298.217C193.138 292.853 190.306 270.052 178.938 275.903C167.571 281.754 139.909 262.391 139.527 269.858C139.144 277.326 165.044 284.993 157.292 287.968C149.539 290.943 160.171 288.861 169.101 299.398Z" fill="#6F9A3F"/>
<path d="M186.201 295.145C193.88 304.268 220.758 305.325 220.758 305.325C220.758 305.325 226.201 299.328 218.22 293.963C210.238 288.599 207.406 265.798 196.049 271.668C184.692 277.539 157.004 258.122 156.622 265.609C156.24 273.097 182.14 280.744 174.387 283.719C166.635 286.694 177.271 284.607 186.201 295.145Z" fill="#6F9A3F"/>
<path d="M156.519 309.437C164.226 318.53 191.076 319.618 191.076 319.618C191.076 319.618 196.518 313.62 188.537 308.256C180.556 302.892 177.723 280.091 166.362 285.966C155 291.842 127.331 272.424 126.915 279.908C126.498 287.391 152.432 295.043 144.68 298.018C136.927 300.993 147.593 298.895 156.519 309.437Z" fill="#6F9A3F"/>
<path d="M190.384 290.871C198.092 299.974 224.941 301.052 224.941 301.052C224.941 301.052 230.384 295.054 222.407 289.694C214.431 284.335 211.594 261.529 200.227 267.41C188.861 273.291 161.192 253.863 160.8 261.351C160.409 268.838 186.313 276.481 178.565 279.461C170.818 282.44 181.454 280.333 190.384 290.871Z" fill="#6F9A3F"/>
<path d="M220.667 307.151C228.37 316.249 255.224 317.332 255.224 317.332C255.224 317.332 260.662 311.329 252.686 305.97C244.709 300.611 241.851 277.785 230.516 283.695C219.18 289.605 191.49 270.148 191.089 277.636C190.687 285.124 216.601 292.766 208.854 295.746C201.106 298.726 211.742 296.608 220.667 307.151Z" fill="#6F9A3F"/>
<path d="M198.813 284.014C206.492 293.138 233.37 294.195 233.37 294.195C233.37 294.195 238.813 288.197 230.837 282.838C222.861 277.479 220.023 254.672 208.657 260.553C197.29 266.434 169.626 247.001 169.23 254.494C168.833 261.987 194.742 269.624 186.995 272.604C179.247 275.584 189.893 273.486 198.813 284.014Z" fill="#6F9A3F"/>
<path d="M223.876 266.918C218.249 255.915 191.755 246.031 191.755 246.031C191.755 246.031 184.985 249.801 191.703 257.407C198.421 265.013 196.135 287.188 208.782 285.469C221.428 283.75 244.6 310.968 246.692 304.137C248.784 297.306 224.713 281.617 233.063 281.401C241.413 281.186 230.412 279.689 223.876 266.918Z" fill="#628E31"/>
<path d="M150.717 238.064C149.855 235.754 154.278 234.837 156.597 234.667C159.577 234.163 163.035 238.527 162.929 239.769C162.823 241.01 157.847 242.424 155.461 242.809C153.074 243.193 151.794 240.951 150.717 238.064Z" fill="#C9A053"/>
<ellipse cx="153.703" cy="237.829" rx="0.604367" ry="0.302184" transform="rotate(-9.15562 153.703 237.829)" fill="#9E772C"/>
<ellipse cx="156.282" cy="238.637" rx="0.604367" ry="0.302184" transform="rotate(-9.15562 156.282 238.637)" fill="#9E772C"/>
<ellipse cx="157.88" cy="237.156" rx="0.604367" ry="0.302184" transform="rotate(-9.15562 157.88 237.156)" fill="#9E772C"/>
<ellipse cx="159.362" cy="238.753" rx="0.604367" ry="0.302184" transform="rotate(-9.15562 159.362 238.753)" fill="#9E772C"/>
<path d="M205.779 273.769C202.594 282.711 214.515 304.407 214.515 304.407C214.515 304.407 221.605 306.872 221.846 298.876C222.087 290.88 237.877 281.559 228.062 274.342C218.247 267.125 219.716 239.119 213.87 241.102C208.024 243.084 214.595 266.058 208.691 260.856C202.788 255.653 209.461 263.41 205.779 273.769Z" fill="#6F9A3F"/>
<path d="M212.8 253.84C203.661 257.841 195.204 287.378 195.204 287.378C195.204 287.378 198.214 296.518 204.607 290.301C210.999 284.083 229.18 292.528 227.906 276.782C226.631 261.037 249.352 239.943 243.753 235.662C238.153 231.381 224.946 256.545 224.857 246.358C224.768 236.172 223.38 249.21 212.8 253.84Z" fill="#6F9A3F"/>
<path d="M223.909 295.492C231.617 304.585 258.466 305.673 258.466 305.673C258.466 305.673 263.914 299.67 255.927 294.311C247.941 288.952 245.118 266.141 233.752 272.021C222.386 277.902 194.722 258.479 194.325 265.962C193.928 273.445 219.843 281.097 212.09 284.072C204.338 287.047 214.984 284.95 223.909 295.492Z" fill="#6F9A3F"/>
<path d="M199.475 267.439C184.619 270.166 174.152 279.514 176.099 288.305C178.047 297.097 191.669 302.004 206.531 299.272C221.392 296.54 231.854 287.197 229.912 278.411C227.969 269.624 214.351 264.691 199.475 267.439ZM206.121 297.403C192.999 299.815 180.975 295.478 179.279 287.694C177.583 279.911 186.801 271.689 199.894 269.308C212.988 266.927 225.036 271.228 226.732 279.012C228.428 286.795 219.234 294.991 206.121 297.403Z" fill="#E7EEDF"/>
<path d="M248.393 253.161C239.627 256.846 234.121 264.136 236.096 269.441C238.07 274.745 246.763 276.057 255.54 272.382C264.316 268.706 269.812 261.407 267.837 256.102C265.862 250.798 257.164 249.471 248.393 253.161ZM255.109 271.245C247.376 274.499 239.689 273.338 237.939 268.669C236.189 263.999 241.065 257.557 248.798 254.303C256.532 251.05 264.213 252.206 265.963 256.875C267.713 261.544 262.848 267.987 255.114 271.24L255.109 271.245Z" fill="#E7EEDF"/>
<path d="M207.455 272.631C205.34 267.869 196.42 267.208 187.531 271.152C178.643 275.097 173.151 282.154 175.266 286.916C177.38 291.677 186.3 292.338 195.189 288.394C204.078 284.449 209.57 277.392 207.455 272.631Z" fill="#D75527"/>
<path d="M204.951 273.742C203.166 269.723 195.634 269.166 188.129 272.497C180.623 275.828 175.985 281.786 177.77 285.804C179.555 289.823 187.086 290.38 194.592 287.049C202.098 283.718 206.735 277.76 204.951 273.742Z" fill="#B74526"/>
<path d="M192.743 274.001C193.002 273.194 192.89 272.437 192.493 272.31C192.097 272.184 191.566 272.735 191.308 273.543C191.05 274.35 191.161 275.107 191.558 275.234C191.954 275.36 192.485 274.809 192.743 274.001Z" fill="#C28960"/>
<path d="M184.758 279.224C184.851 278.771 184.316 278.28 183.565 278.127C182.814 277.975 182.131 278.219 182.039 278.673C181.947 279.126 182.481 279.617 183.232 279.769C183.983 279.922 184.666 279.677 184.758 279.224Z" fill="#C28960"/>
<path d="M166.33 242.288C166.262 240.629 169.283 240.968 170.803 241.344C172.814 241.645 174.114 245.16 173.787 245.933C173.459 246.705 169.98 246.569 168.373 246.316C166.765 246.063 166.415 244.36 166.33 242.288Z" fill="#C9A053"/>
<ellipse cx="168.29" cy="242.762" rx="0.406814" ry="0.203407" transform="rotate(8.94695 168.29 242.762)" fill="#9E772C"/>
<ellipse cx="169.771" cy="243.819" rx="0.406814" ry="0.203407" transform="rotate(8.94695 169.771 243.819)" fill="#9E772C"/>
<ellipse cx="171.103" cy="243.205" rx="0.406814" ry="0.203407" transform="rotate(8.94695 171.103 243.205)" fill="#9E772C"/>
<ellipse cx="171.717" cy="244.537" rx="0.406814" ry="0.203407" transform="rotate(8.94695 171.717 244.537)" fill="#9E772C"/>
<path d="M174.63 238.851C173.202 238.005 175.133 235.656 176.277 234.587C177.625 233.064 181.281 233.89 181.75 234.586C182.219 235.281 180.209 238.124 179.12 239.334C178.032 240.544 176.414 239.909 174.63 238.851Z" fill="#C9A053"/>
<ellipse cx="176.096" cy="237.466" rx="0.406814" ry="0.203407" transform="rotate(-48.0308 176.096 237.466)" fill="#9E772C"/>
<ellipse cx="177.789" cy="236.801" rx="0.406814" ry="0.203407" transform="rotate(-48.0308 177.789 236.801)" fill="#9E772C"/>
<ellipse cx="178" cy="235.349" rx="0.406814" ry="0.203407" transform="rotate(-48.0308 178 235.349)" fill="#9E772C"/>
<ellipse cx="179.451" cy="235.56" rx="0.406814" ry="0.203407" transform="rotate(-48.0308 179.451 235.56)" fill="#9E772C"/>
<path d="M191.451 234.863C189.864 234.379 191.183 231.64 192.041 230.33C192.99 228.531 196.737 228.467 197.358 229.032C197.978 229.596 196.699 232.835 195.928 234.268C195.158 235.701 193.435 235.468 191.451 234.863Z" fill="#C9A053"/>
<ellipse cx="192.547" cy="233.17" rx="0.406814" ry="0.203407" transform="rotate(-61.7357 192.547 233.17)" fill="#9E772C"/>
<ellipse cx="194.034" cy="232.122" rx="0.406814" ry="0.203407" transform="rotate(-61.7357 194.034 232.122)" fill="#9E772C"/>
<ellipse cx="193.896" cy="230.662" rx="0.406814" ry="0.203407" transform="rotate(-61.7357 193.896 230.662)" fill="#9E772C"/>
<ellipse cx="195.356" cy="230.524" rx="0.406814" ry="0.203407" transform="rotate(-61.7357 195.356 230.524)" fill="#9E772C"/>
<path d="M183.192 281.801C182.992 281.366 182.283 281.266 181.608 281.576C180.933 281.886 180.548 282.49 180.748 282.924C180.948 283.359 181.657 283.459 182.332 283.149C183.007 282.839 183.392 282.235 183.192 281.801Z" fill="#C28960"/>
<path d="M187.522 275.44C186.95 274.773 186.239 274.444 185.935 274.705C185.631 274.966 185.849 275.717 186.421 276.384C186.993 277.051 187.704 277.38 188.008 277.119C188.312 276.859 188.095 276.107 187.522 275.44Z" fill="#C28960"/>
<path d="M190.995 284.682C191.254 283.875 191.142 283.118 190.745 282.991C190.349 282.864 189.818 283.416 189.56 284.223C189.301 285.031 189.413 285.788 189.81 285.914C190.206 286.041 190.737 285.489 190.995 284.682Z" fill="#C28960"/>
<path d="M195.755 282.471C195.269 281.706 194.609 281.256 194.28 281.464C193.952 281.673 194.08 282.462 194.566 283.226C195.052 283.991 195.712 284.441 196.04 284.233C196.369 284.024 196.241 283.236 195.755 282.471Z" fill="#C28960"/>
<path d="M201.786 274.26C201.539 273.855 200.822 273.842 200.184 274.23C199.546 274.618 199.228 275.261 199.475 275.666C199.722 276.071 200.439 276.085 201.077 275.697C201.715 275.309 202.032 274.666 201.786 274.26Z" fill="#C28960"/>
<path d="M197.39 272.32C197.077 271.98 196.368 272.121 195.806 272.637C195.244 273.152 195.043 273.846 195.356 274.187C195.669 274.527 196.378 274.386 196.94 273.87C197.501 273.355 197.703 272.661 197.39 272.32Z" fill="#C28960"/>
<path d="M199.091 280.713C199.107 280.243 198.511 279.842 197.761 279.817C197.01 279.793 196.389 280.154 196.374 280.624C196.359 281.094 196.954 281.495 197.705 281.52C198.455 281.544 199.076 281.183 199.091 280.713Z" fill="#C28960"/>
<path d="M201.346 277.539C201.278 277.065 200.627 276.767 199.891 276.872C199.156 276.977 198.614 277.446 198.682 277.919C198.75 278.392 199.401 278.691 200.136 278.586C200.872 278.481 201.413 278.012 201.346 277.539Z" fill="#C28960"/>
<path d="M186.326 283.426C186.03 283.065 185.314 283.163 184.728 283.645C184.142 284.126 183.907 284.808 184.203 285.169C184.5 285.529 185.215 285.431 185.801 284.95C186.387 284.468 186.622 283.786 186.326 283.426Z" fill="#C28960"/>
<path d="M231.981 269.005C229.856 265.885 223.284 266.655 217.303 270.726C211.322 274.796 208.196 280.625 210.322 283.745C212.447 286.865 219.019 286.095 225 282.024C230.981 277.954 234.107 272.125 231.981 269.005Z" fill="#D75527"/>
<path d="M230.293 270.154C228.498 267.519 222.95 268.169 217.901 271.604C212.853 275.04 210.215 279.961 212.01 282.596C213.805 285.231 219.353 284.582 224.401 281.146C229.45 277.71 232.088 272.789 230.293 270.154Z" fill="#B74526"/>
<path d="M221.69 271.962C221.816 271.337 221.681 270.783 221.387 270.723C221.094 270.664 220.753 271.122 220.627 271.747C220.5 272.372 220.635 272.927 220.929 272.986C221.222 273.046 221.563 272.587 221.69 271.962Z" fill="#C28960"/>
<path d="M216.373 276.707C216.38 276.361 215.942 276.072 215.393 276.06C214.845 276.049 214.394 276.32 214.387 276.666C214.38 277.012 214.819 277.302 215.367 277.313C215.915 277.324 216.366 277.053 216.373 276.707Z" fill="#C28960"/>
<path d="M215.433 278.786C215.231 278.505 214.703 278.54 214.255 278.863C213.807 279.186 213.608 279.675 213.811 279.956C214.013 280.236 214.541 280.202 214.989 279.879C215.437 279.556 215.636 279.067 215.433 278.786Z" fill="#C28960"/>
<path d="M218.074 273.623C217.615 273.192 217.075 273.02 216.867 273.241C216.659 273.462 216.862 273.991 217.321 274.423C217.779 274.854 218.32 275.026 218.528 274.805C218.736 274.584 218.533 274.055 218.074 273.623Z" fill="#C28960"/>
<path d="M221.274 280.062C221.401 279.437 221.266 278.882 220.972 278.823C220.679 278.763 220.338 279.222 220.211 279.847C220.085 280.472 220.22 281.026 220.514 281.086C220.807 281.145 221.148 280.687 221.274 280.062Z" fill="#C28960"/>
<path d="M224.535 277.884C224.132 277.37 223.619 277.099 223.389 277.278C223.16 277.458 223.3 278.021 223.703 278.535C224.105 279.049 224.618 279.32 224.848 279.141C225.078 278.961 224.937 278.398 224.535 277.884Z" fill="#C28960"/>
<path d="M228.175 271.069C227.947 270.814 227.423 270.91 227.006 271.283C226.588 271.656 226.435 272.166 226.663 272.421C226.892 272.676 227.415 272.58 227.832 272.206C228.25 271.833 228.403 271.324 228.175 271.069Z" fill="#C28960"/>
<path d="M224.689 271.347C225.045 270.895 225.123 270.363 224.863 270.158C224.603 269.954 224.104 270.155 223.748 270.607C223.392 271.059 223.314 271.591 223.573 271.796C223.833 272 224.333 271.799 224.689 271.347Z" fill="#C28960"/>
<path d="M226.767 276.142C226.71 275.797 226.228 275.589 225.691 275.677C225.153 275.766 224.764 276.118 224.821 276.463C224.878 276.808 225.36 277.016 225.897 276.927C226.434 276.839 226.824 276.487 226.767 276.142Z" fill="#C28960"/>
<path d="M228.128 273.534C228.01 273.205 227.498 273.088 226.986 273.273C226.474 273.458 226.154 273.874 226.273 274.203C226.392 274.532 226.903 274.649 227.416 274.465C227.928 274.28 228.247 273.864 228.128 273.534Z" fill="#C28960"/>
<path d="M217.595 280.807C217.97 280.376 218.07 279.848 217.817 279.629C217.565 279.41 217.056 279.582 216.681 280.013C216.306 280.445 216.207 280.972 216.459 281.191C216.712 281.411 217.22 281.238 217.595 280.807Z" fill="#C28960"/>
<path d="M268.253 278.669C271.062 273.371 264.627 264.464 253.879 258.772C243.132 253.081 232.142 252.762 229.333 258.059C226.523 263.356 232.959 272.264 243.706 277.955C254.454 283.647 265.444 283.966 268.253 278.669Z" fill="#D75527"/>
<path d="M265.222 277.064C267.594 272.591 262.161 265.07 253.087 260.265C244.013 255.461 234.735 255.191 232.363 259.664C229.991 264.137 235.424 271.658 244.497 276.463C253.571 281.268 262.85 281.537 265.222 277.064Z" fill="#B74526"/>
<path d="M253.586 262.139C253.185 261.704 252.348 261.824 251.715 262.406C251.083 262.987 250.894 263.811 251.295 264.246C251.695 264.681 252.532 264.562 253.165 263.98C253.798 263.398 253.986 262.574 253.586 262.139Z" fill="#C28960"/>
<path d="M241.666 259.823C240.993 258.973 240.147 258.52 239.778 258.812C239.409 259.104 239.656 260.03 240.33 260.881C241.003 261.731 241.848 262.184 242.218 261.892C242.587 261.6 242.34 260.674 241.666 259.823Z" fill="#C28960"/>
<path d="M239.297 263.241C239.582 262.777 239.167 262.003 238.369 261.512C237.571 261.021 236.692 260.998 236.406 261.462C236.121 261.925 236.536 262.699 237.334 263.19C238.133 263.682 239.011 263.704 239.297 263.241Z" fill="#C28960"/>
<path d="M246.922 260.471C246.609 259.312 246.024 258.461 245.614 258.571C245.205 258.682 245.127 259.711 245.44 260.871C245.752 262.031 246.338 262.882 246.747 262.771C247.157 262.661 247.235 261.631 246.922 260.471Z" fill="#C28960"/>
<path d="M246.536 270.841C246.135 270.407 245.298 270.526 244.665 271.108C244.033 271.689 243.844 272.514 244.245 272.948C244.645 273.383 245.482 273.264 246.115 272.682C246.748 272.1 246.936 271.276 246.536 270.841Z" fill="#C28960"/>
<path d="M251.98 274.649C251.794 273.47 251.301 272.568 250.879 272.635C250.456 272.701 250.263 273.711 250.449 274.89C250.634 276.069 251.127 276.971 251.55 276.904C251.972 276.838 252.165 275.828 251.98 274.649Z" fill="#C28960"/>
<path d="M262.198 272.863C262.45 272.363 261.996 271.625 261.184 271.215C260.371 270.805 259.508 270.878 259.255 271.378C259.003 271.878 259.457 272.615 260.269 273.025C261.082 273.435 261.945 273.362 262.198 272.863Z" fill="#C28960"/>
<path d="M258.657 267.041C258.817 266.477 258.274 265.828 257.444 265.591C256.613 265.355 255.809 265.622 255.649 266.186C255.488 266.751 256.031 267.4 256.861 267.636C257.692 267.872 258.496 267.606 258.657 267.041Z" fill="#C28960"/>
<path d="M255.568 274.419C254.85 273.659 253.98 273.314 253.627 273.648C253.274 273.981 253.57 274.868 254.289 275.628C255.007 276.388 255.877 276.733 256.23 276.399C256.583 276.066 256.287 275.179 255.568 274.419Z" fill="#C28960"/>
<path d="M260.095 275.446C260.429 275.067 260.09 274.222 259.337 273.559C258.584 272.896 257.702 272.666 257.368 273.045C257.034 273.424 257.373 274.269 258.126 274.932C258.879 275.595 259.76 275.825 260.095 275.446Z" fill="#C28960"/>
<path d="M241.793 267.715C241.985 267.169 241.47 266.489 240.641 266.197C239.811 265.905 238.983 266.112 238.79 266.658C238.598 267.204 239.113 267.884 239.942 268.176C240.772 268.468 241.6 268.262 241.793 267.715Z" fill="#C28960"/>
<path d="M200.845 287.972C189.335 292.812 182.104 302.384 184.67 309.332C187.236 316.281 198.704 318.041 210.188 313.177C221.671 308.314 228.928 298.766 226.362 291.817C223.796 284.869 212.378 283.107 200.845 287.972ZM209.657 311.716C199.5 315.989 189.42 314.467 187.139 308.326C184.858 302.185 191.243 293.731 201.401 289.458C211.558 285.185 221.638 286.706 223.924 292.852C226.21 298.998 219.82 307.447 209.657 311.716Z" fill="#E7EEDF"/>
<path d="M221.62 270.537C215.057 273.294 210.932 278.751 212.406 282.727C213.879 286.704 220.399 287.688 226.962 284.92C233.525 282.153 237.65 276.706 236.177 272.73C234.703 268.754 228.154 267.79 221.62 270.537ZM226.651 284.079C220.859 286.517 215.101 285.648 213.802 282.144C212.503 278.641 216.14 273.817 221.928 271.423C227.716 269.03 233.473 269.849 234.777 273.358C236.081 276.866 232.442 281.64 226.617 284.095L226.651 284.079Z" fill="#E7EEDF"/>
<path d="M169.284 273.352C162.701 276.13 158.299 280.689 159.37 283.623C160.441 286.556 166.639 286.669 173.202 283.912C179.766 281.155 184.212 276.549 183.126 273.631C182.041 270.713 175.848 270.594 169.284 273.352ZM172.973 283.292C167.176 285.726 161.711 285.614 160.78 283.014C159.85 280.415 163.746 276.385 169.538 273.946C175.329 271.508 180.804 271.619 181.759 274.193C182.714 276.766 178.765 280.853 172.973 283.292Z" fill="#E7EEDF"/>
<path d="M210.529 262.365C198.489 267.431 190.83 277.191 193.406 284.149C195.982 291.108 207.852 292.656 219.893 287.59C231.933 282.523 239.592 272.764 237.015 265.805C234.439 258.847 222.569 257.299 210.529 262.365ZM219.366 286.083C208.717 290.581 198.273 289.191 195.987 283.045C193.701 276.899 200.475 268.288 211.114 263.83C221.754 259.372 232.212 260.717 234.493 266.868C236.774 273.019 229.976 281.636 219.342 286.108L219.366 286.083Z" fill="#E7EEDF"/>
<path d="M260.371 265.492C250.722 267.916 238.948 295.339 238.948 295.339C238.948 295.339 240.996 304.755 248.084 299.73C255.173 294.704 272.595 305.873 273.071 290.33C273.547 274.787 298.699 257.862 293.543 252.81C288.387 247.758 272.305 270.131 273.335 260.182C274.365 250.234 271.537 262.686 260.371 265.492Z" fill="#6F9A3F"/>
<path d="M167.905 293.297C171.735 285.773 172.161 278.313 168.857 276.634C165.553 274.954 159.77 279.692 155.94 287.215C152.11 294.738 151.684 302.198 154.989 303.878C158.293 305.557 164.076 300.82 167.905 293.297Z" fill="#D75527"/>
<path d="M166.97 292.821C170.203 286.469 170.564 280.171 167.777 278.755C164.989 277.338 160.108 281.339 156.875 287.69C153.642 294.042 153.28 300.34 156.068 301.757C158.855 303.174 163.736 299.173 166.97 292.821Z" fill="#B74526"/>
<path d="M160.793 285.53C160.703 284.812 160.389 284.261 160.092 284.298C159.795 284.336 159.627 284.947 159.717 285.665C159.807 286.382 160.121 286.934 160.418 286.896C160.715 286.859 160.883 286.247 160.793 285.53Z" fill="#C28960"/>
<path d="M157.591 293.06C157.371 292.763 156.808 292.808 156.333 293.16C155.858 293.512 155.651 294.038 155.871 294.335C156.091 294.631 156.655 294.586 157.13 294.234C157.605 293.883 157.811 293.357 157.591 293.06Z" fill="#C28960"/>
<path d="M157.537 297.101C157.811 296.517 157.784 295.928 157.478 295.784C157.172 295.641 156.702 295.999 156.428 296.583C156.154 297.167 156.181 297.756 156.487 297.9C156.794 298.043 157.264 297.685 157.537 297.101Z" fill="#C28960"/>
<path d="M158.941 290.066C159.056 289.731 158.678 289.299 158.096 289.1C157.515 288.901 156.95 289.011 156.836 289.345C156.721 289.68 157.099 290.113 157.681 290.312C158.262 290.511 158.827 290.401 158.941 290.066Z" fill="#C28960"/>
<path d="M163.413 294.079C163.323 293.361 163.009 292.81 162.712 292.847C162.415 292.885 162.247 293.497 162.337 294.214C162.427 294.931 162.741 295.483 163.038 295.445C163.335 295.408 163.503 294.796 163.413 294.079Z" fill="#C28960"/>
<path d="M166.318 291.107C166.492 290.812 166.185 290.309 165.632 289.984C165.079 289.658 164.49 289.633 164.316 289.928C164.142 290.222 164.45 290.725 165.002 291.051C165.555 291.377 166.144 291.402 166.318 291.107Z" fill="#C28960"/>
<path d="M166.532 282.299C166.768 281.685 166.709 281.092 166.4 280.974C166.091 280.855 165.65 281.256 165.414 281.87C165.178 282.483 165.237 283.076 165.546 283.195C165.854 283.313 166.296 282.912 166.532 282.299Z" fill="#C28960"/>
<path d="M163.311 283.173C163.475 282.517 163.354 281.921 163.04 281.843C162.727 281.765 162.34 282.234 162.176 282.89C162.013 283.547 162.134 284.142 162.447 284.22C162.76 284.298 163.147 283.829 163.311 283.173Z" fill="#C28960"/>
<path d="M166.918 286.867C166.658 286.616 166.107 286.763 165.688 287.195C165.268 287.628 165.138 288.183 165.398 288.434C165.658 288.686 166.209 288.539 166.628 288.106C167.048 287.674 167.178 287.119 166.918 286.867Z" fill="#C28960"/>
<path d="M167.06 284.761C167.425 284.262 167.49 283.688 167.204 283.48C166.918 283.271 166.39 283.506 166.025 284.005C165.66 284.505 165.596 285.078 165.882 285.287C166.168 285.496 166.695 285.26 167.06 284.761Z" fill="#C28960"/>
<path d="M160.298 296.746C160.484 296.099 160.38 295.502 160.066 295.412C159.752 295.322 159.347 295.773 159.161 296.42C158.975 297.066 159.08 297.663 159.394 297.753C159.708 297.843 160.113 297.392 160.298 296.746Z" fill="#C28960"/>
<path d="M137.344 290.71C137.344 290.71 152.926 338.039 190.38 332.967C227.834 327.895 231.778 326.911 254.878 321.9C277.978 316.889 289.491 291.606 287.743 264.098L137.344 290.71Z" fill="#D28C3A"/>
<path d="M246.29 401.753L246.268 402.233C245.754 402.257 245.357 402.359 245.076 402.539C244.797 402.702 244.6 402.981 244.485 403.376C244.388 403.756 244.322 404.306 244.289 405.025L243.66 418.715C243.517 418.692 243.358 418.677 243.182 418.669C243.022 418.661 242.846 418.661 242.653 418.668L233.011 404.218L232.534 414.575C232.499 415.342 232.52 415.944 232.596 416.38C232.672 416.8 232.866 417.113 233.177 417.32C233.505 417.511 234.003 417.654 234.671 417.749L234.649 418.228C234.347 418.182 233.956 418.148 233.476 418.126C232.998 418.088 232.542 418.059 232.111 418.04C231.727 418.022 231.335 418.012 230.935 418.009C230.551 417.992 230.231 417.993 229.974 418.013L229.996 417.534C230.526 417.494 230.923 417.392 231.187 417.228C231.467 417.065 231.656 416.785 231.754 416.389C231.869 415.994 231.942 415.445 231.974 414.742L232.483 403.665C232.511 403.074 232.482 402.64 232.399 402.364C232.332 402.073 232.165 401.873 231.898 401.765C231.647 401.641 231.259 401.559 230.732 401.519L230.754 401.039C231.009 401.067 231.328 401.098 231.711 401.131C232.11 401.166 232.501 401.192 232.885 401.209C233.252 401.226 233.612 401.235 233.965 401.235C234.317 401.235 234.629 401.233 234.902 401.23L243.342 413.607L243.729 405.191C243.765 404.408 243.745 403.807 243.668 403.387C243.591 402.967 243.397 402.654 243.087 402.447C242.776 402.241 242.278 402.098 241.593 402.018L241.615 401.539C241.918 401.568 242.308 401.602 242.787 401.64C243.282 401.679 243.737 401.708 244.153 401.727C244.552 401.746 244.944 401.756 245.329 401.757C245.729 401.76 246.049 401.758 246.29 401.753ZM253.102 406.319C254.205 406.37 255.169 406.638 255.996 407.125C256.839 407.596 257.486 408.323 257.938 409.304C258.405 410.287 258.603 411.561 258.531 413.128C258.459 414.694 258.145 415.945 257.589 416.88C257.05 417.816 256.339 418.481 255.456 418.872C254.589 419.265 253.604 419.436 252.501 419.385C251.398 419.335 250.425 419.074 249.582 418.602C248.739 418.131 248.091 417.405 247.64 416.423C247.189 415.441 246.999 414.167 247.071 412.601C247.143 411.034 247.449 409.783 247.988 408.847C248.528 407.911 249.239 407.247 250.122 406.855C251.006 406.447 251.999 406.268 253.102 406.319ZM253.08 406.799C252.328 406.764 251.691 407.215 251.167 408.152C250.661 409.074 250.358 410.606 250.259 412.747C250.161 414.889 250.322 416.442 250.742 417.406C251.178 418.371 251.772 418.871 252.523 418.906C253.258 418.94 253.887 418.496 254.41 417.575C254.933 416.654 255.244 415.123 255.342 412.981C255.441 410.839 255.272 409.286 254.836 408.321C254.4 407.34 253.815 406.832 253.08 406.799ZM275.03 402.738C276.085 402.787 276.94 402.986 277.597 403.337C278.27 403.672 278.861 404.06 279.369 404.499C279.678 404.754 279.916 404.797 280.084 404.628C280.269 404.445 280.409 404.011 280.504 403.326L281.056 403.352C280.996 403.957 280.938 404.7 280.881 405.578C280.825 406.456 280.764 407.615 280.698 409.053L280.146 409.028C280.083 408.304 280.007 407.7 279.917 407.215C279.828 406.715 279.688 406.284 279.496 405.923C279.321 405.562 279.064 405.214 278.727 404.878C278.318 404.379 277.815 404.003 277.217 403.752C276.637 403.485 276.019 403.336 275.364 403.306C274.533 403.268 273.795 403.458 273.151 403.877C272.524 404.281 271.985 404.857 271.534 405.605C271.1 406.338 270.756 407.203 270.502 408.2C270.264 409.198 270.119 410.265 270.067 411.399C270.013 412.566 270.067 413.658 270.228 414.674C270.407 415.676 270.686 416.561 271.067 417.332C271.465 418.087 271.966 418.686 272.57 419.131C273.191 419.576 273.916 419.817 274.747 419.855C275.339 419.883 275.951 419.799 276.585 419.603C277.218 419.408 277.746 419.088 278.167 418.643C278.716 418.188 279.102 417.637 279.324 416.99C279.546 416.328 279.739 415.448 279.902 414.35L280.453 414.376C280.384 415.878 280.336 417.093 280.309 418.021C280.284 418.933 280.272 419.701 280.276 420.326L279.724 420.3C279.692 419.61 279.6 419.173 279.448 418.99C279.312 418.808 279.063 418.82 278.702 419.028C278.091 419.416 277.443 419.755 276.757 420.044C276.088 420.317 275.233 420.43 274.195 420.382C272.564 420.308 271.15 419.898 269.95 419.154C268.751 418.41 267.838 417.375 267.21 416.049C266.598 414.724 266.334 413.15 266.418 411.328C266.5 409.538 266.924 407.988 267.689 406.677C268.454 405.367 269.469 404.365 270.734 403.67C272 402.975 273.431 402.665 275.03 402.738ZM285.667 420.742C284.98 420.71 284.402 420.555 283.934 420.278C283.467 419.984 283.124 419.608 282.905 419.149C282.687 418.675 282.59 418.158 282.616 417.598C282.648 416.911 282.833 416.359 283.173 415.942C283.513 415.509 283.937 415.176 284.444 414.943C284.968 414.695 285.513 414.496 286.081 414.346C286.649 414.18 287.185 414.028 287.688 413.891C288.191 413.738 288.608 413.557 288.938 413.348C289.268 413.139 289.441 412.851 289.458 412.483L289.539 410.733C289.562 410.221 289.501 409.802 289.356 409.475C289.228 409.133 289.015 408.875 288.719 408.701C288.439 408.512 288.076 408.407 287.628 408.387C287.293 408.371 286.939 408.403 286.567 408.482C286.195 408.561 285.883 408.731 285.63 408.992C286.041 409.123 286.351 409.345 286.561 409.659C286.787 409.974 286.889 410.347 286.87 410.778C286.847 411.274 286.661 411.658 286.312 411.93C285.98 412.187 285.566 412.304 285.071 412.281C284.543 412.257 284.151 412.071 283.895 411.723C283.639 411.375 283.521 410.977 283.542 410.529C283.562 410.082 283.691 409.719 283.928 409.442C284.166 409.149 284.49 408.891 284.9 408.67C285.312 408.416 285.834 408.224 286.465 408.093C287.095 407.962 287.778 407.913 288.513 407.947C289.217 407.979 289.836 408.088 290.372 408.273C290.909 408.441 291.361 408.726 291.727 409.128C292.093 409.513 292.32 409.98 292.407 410.528C292.494 411.077 292.519 411.743 292.483 412.526L292.181 419.095C292.163 419.495 292.198 419.785 292.286 419.965C292.374 420.129 292.522 420.216 292.73 420.225C292.89 420.233 293.044 420.2 293.191 420.127C293.339 420.053 293.504 419.949 293.686 419.813L293.931 420.233C293.567 420.488 293.189 420.687 292.798 420.829C292.407 420.971 291.94 421.03 291.397 421.005C290.837 420.979 290.394 420.879 290.065 420.704C289.753 420.529 289.524 420.286 289.378 419.975C289.248 419.665 289.185 419.302 289.188 418.885C288.775 419.507 288.281 419.981 287.705 420.307C287.129 420.633 286.45 420.778 285.667 420.742ZM287.167 419.465C287.551 419.483 287.907 419.395 288.236 419.202C288.581 419.01 288.899 418.712 289.19 418.309L289.413 413.466C289.242 413.698 289 413.904 288.688 414.081C288.391 414.26 288.071 414.437 287.726 414.614C287.382 414.79 287.052 414.999 286.737 415.241C286.438 415.468 286.176 415.76 285.951 416.118C285.744 416.461 285.627 416.912 285.601 417.471C285.572 418.095 285.702 418.581 285.99 418.931C286.279 419.264 286.672 419.442 287.167 419.465ZM299.869 404.865L299.687 408.821L302.756 408.962L302.734 409.441L299.665 409.3L299.226 418.842C299.2 419.418 299.285 419.83 299.482 420.079C299.678 420.329 299.969 420.462 300.352 420.48C300.72 420.497 301.062 420.376 301.378 420.118C301.695 419.845 301.988 419.386 302.258 418.741L302.681 418.953C302.405 419.725 301.999 420.363 301.464 420.867C300.945 421.356 300.23 421.579 299.319 421.537C298.775 421.512 298.315 421.419 297.938 421.258C297.576 421.113 297.265 420.906 297.005 420.638C296.671 420.254 296.451 419.804 296.347 419.287C296.258 418.77 296.234 418.088 296.273 417.241L296.644 409.162L294.534 409.065L294.556 408.585L296.666 408.682L296.819 405.35C297.395 405.36 297.933 405.329 298.433 405.256C298.933 405.182 299.412 405.052 299.869 404.865ZM309.596 408.916C311.002 408.981 312.085 409.455 312.846 410.339C313.606 411.223 313.943 412.592 313.858 414.446L305.779 414.074L305.776 413.618L311.098 413.862C311.166 413.081 311.151 412.359 311.053 411.698C310.956 411.021 310.773 410.476 310.504 410.063C310.251 409.651 309.9 409.435 309.453 409.414C308.845 409.386 308.301 409.721 307.821 410.42C307.341 411.103 307.008 412.249 306.822 413.858L306.911 414.006C306.869 414.212 306.835 414.435 306.808 414.674C306.797 414.914 306.786 415.154 306.775 415.393C306.724 416.496 306.842 417.415 307.129 418.149C307.416 418.882 307.807 419.429 308.303 419.788C308.799 420.147 309.319 420.339 309.862 420.364C310.23 420.381 310.608 420.343 310.997 420.248C311.385 420.154 311.771 419.964 312.152 419.677C312.534 419.39 312.889 418.974 313.219 418.428L313.665 418.641C313.464 419.193 313.142 419.738 312.701 420.279C312.277 420.804 311.736 421.227 311.081 421.55C310.426 421.872 309.666 422.013 308.803 421.973C307.716 421.923 306.768 421.64 305.959 421.122C305.15 420.604 304.536 419.863 304.115 418.899C303.696 417.919 303.518 416.741 303.581 415.367C303.648 413.912 303.944 412.7 304.469 411.732C305.01 410.763 305.724 410.043 306.61 409.572C307.498 409.084 308.493 408.865 309.596 408.916ZM319.421 426.642C318.478 426.599 317.627 426.471 316.868 426.26C316.109 426.049 315.514 425.758 315.082 425.385C314.65 425.029 314.446 424.587 314.47 424.06C314.494 423.548 314.739 423.103 315.205 422.724C315.67 422.345 316.34 422.072 317.212 421.904L317.363 422.295C317.051 422.457 316.808 422.686 316.634 422.982C316.46 423.278 316.366 423.594 316.35 423.93C316.319 424.617 316.606 425.159 317.213 425.555C317.834 425.968 318.673 426.199 319.728 426.248C320.447 426.281 321.115 426.215 321.731 426.051C322.347 425.887 322.848 425.614 323.234 425.232C323.62 424.849 323.826 424.362 323.854 423.77C323.876 423.275 323.712 422.851 323.36 422.498C323.023 422.147 322.32 421.946 321.249 421.897L319.667 421.824C319.075 421.797 318.535 421.708 318.045 421.557C317.572 421.407 317.198 421.182 316.923 420.881C316.649 420.58 316.523 420.174 316.547 419.663C316.575 419.039 316.857 418.492 317.391 418.02C317.926 417.532 318.748 417.073 319.857 416.643L320.111 416.871C319.701 417.061 319.332 417.268 319.001 417.493C318.686 417.719 318.52 418.015 318.503 418.383C318.48 418.895 318.82 419.166 319.523 419.199L322.232 419.323C323.063 419.362 323.794 419.499 324.424 419.736C325.069 419.974 325.574 420.326 325.937 420.791C326.3 421.256 326.464 421.856 326.431 422.592C326.395 423.359 326.115 424.059 325.589 424.691C325.063 425.34 324.287 425.841 323.262 426.194C322.252 426.564 320.972 426.713 319.421 426.642ZM320.079 417.038C319.216 416.998 318.438 416.834 317.747 416.546C317.072 416.243 316.548 415.803 316.174 415.225C315.801 414.631 315.635 413.895 315.675 413.016C315.715 412.136 315.948 411.426 316.373 410.885C316.799 410.344 317.361 409.954 318.061 409.714C318.777 409.474 319.566 409.374 320.429 409.414C321.308 409.454 322.085 409.626 322.76 409.93C323.435 410.233 323.959 410.673 324.333 411.251C324.707 411.829 324.874 412.557 324.833 413.437C324.793 414.316 324.56 415.034 324.134 415.591C323.708 416.132 323.146 416.522 322.446 416.762C321.747 416.987 320.958 417.078 320.079 417.038ZM320.099 416.606C320.578 416.629 320.965 416.406 321.259 415.939C321.569 415.457 321.754 414.576 321.812 413.298C321.871 412.019 321.768 411.133 321.502 410.641C321.253 410.133 320.889 409.868 320.409 409.846C319.93 409.824 319.535 410.054 319.225 410.536C318.931 411.003 318.755 411.876 318.696 413.154C318.637 414.433 318.732 415.326 318.981 415.834C319.247 416.327 319.619 416.584 320.099 416.606ZM323.956 411.618L323.508 411.43C323.775 410.849 324.189 410.372 324.751 409.997C325.314 409.607 325.899 409.425 326.506 409.453C326.969 409.474 327.323 409.619 327.567 409.886C327.827 410.155 327.946 410.52 327.925 410.984C327.903 411.463 327.759 411.809 327.493 412.021C327.227 412.233 326.942 412.332 326.639 412.318C326.367 412.306 326.123 412.206 325.907 412.02C325.692 411.818 325.578 411.525 325.563 411.14C325.55 410.739 325.701 410.249 326.015 409.671L326.251 409.778C325.616 409.989 325.141 410.231 324.824 410.505C324.507 410.779 324.218 411.15 323.956 411.618ZM334.484 410.06C335.587 410.111 336.552 410.379 337.379 410.866C338.222 411.337 338.869 412.064 339.32 413.045C339.788 414.028 339.986 415.302 339.914 416.869C339.842 418.435 339.528 419.686 338.972 420.621C338.433 421.558 337.721 422.222 336.838 422.613C335.972 423.006 334.987 423.177 333.884 423.126C332.781 423.076 331.808 422.815 330.965 422.343C330.121 421.872 329.474 421.146 329.023 420.164C328.571 419.182 328.382 417.908 328.454 416.342C328.526 414.775 328.831 413.524 329.371 412.588C329.911 411.652 330.622 410.988 331.505 410.596C332.388 410.188 333.382 410.009 334.484 410.06ZM334.462 410.54C333.711 410.505 333.074 410.956 332.55 411.893C332.043 412.815 331.741 414.347 331.642 416.488C331.544 418.63 331.705 420.183 332.125 421.147C332.561 422.113 333.155 422.612 333.906 422.647C334.641 422.681 335.27 422.237 335.793 421.316C336.316 420.395 336.626 418.864 336.725 416.722C336.823 414.58 336.655 413.027 336.218 412.062C335.783 411.081 335.198 410.573 334.462 410.54ZM349.747 410.762C350.242 410.785 350.645 410.907 350.955 411.13C351.281 411.353 351.517 411.628 351.662 411.955C351.807 412.282 351.871 412.621 351.855 412.973C351.831 413.5 351.651 413.933 351.315 414.269C350.995 414.607 350.58 414.764 350.068 414.741C349.589 414.719 349.203 414.573 348.911 414.303C348.619 414.033 348.484 413.675 348.504 413.227C348.522 412.828 348.634 412.496 348.838 412.234C349.058 411.971 349.3 411.766 349.563 411.618C349.392 411.514 349.193 411.473 348.968 411.495C348.583 411.509 348.225 411.629 347.895 411.854C347.564 412.079 347.279 412.362 347.039 412.703C346.799 413.045 346.606 413.412 346.459 413.806C346.329 414.2 346.256 414.581 346.239 414.949L345.966 420.871C345.93 421.654 346.106 422.191 346.493 422.481C346.881 422.755 347.458 422.909 348.226 422.945L348.202 423.448C347.836 423.415 347.301 423.375 346.598 423.326C345.913 423.263 345.194 423.214 344.443 423.179C343.819 423.151 343.195 423.138 342.571 423.141C341.962 423.129 341.506 423.124 341.202 423.126L341.225 422.623C341.816 422.65 342.237 422.549 342.488 422.321C342.755 422.093 342.904 421.643 342.935 420.972L343.282 413.42C343.315 412.7 343.219 412.167 342.995 411.821C342.787 411.459 342.372 411.264 341.748 411.235L341.772 410.731C342.281 410.803 342.775 410.85 343.255 410.872C343.846 410.899 344.407 410.901 344.936 410.877C345.483 410.838 345.982 410.773 346.435 410.682L346.32 413.175C346.533 412.736 346.799 412.332 347.121 411.962C347.458 411.594 347.848 411.299 348.29 411.079C348.75 410.844 349.235 410.738 349.747 410.762ZM364.283 411.766L364.26 412.27C363.954 412.32 363.658 412.474 363.374 412.734C363.106 412.994 362.836 413.462 362.565 414.138L358.569 423.709L357.774 424.801L353.362 413.114C353.086 412.493 352.816 412.104 352.551 411.948C352.286 411.791 352.065 411.709 351.889 411.701L351.912 411.198C352.374 411.267 352.851 411.329 353.345 411.384C353.856 411.423 354.367 411.455 354.879 411.478C355.47 411.505 356.038 411.515 356.583 411.508C357.144 411.502 357.665 411.494 358.146 411.484L358.123 411.988C357.755 411.971 357.426 411.98 357.137 412.014C356.847 412.049 356.649 412.176 356.542 412.396C356.453 412.6 356.5 412.97 356.683 413.507L359.344 420.957L359.148 421.044L361.52 415.435C361.826 414.697 361.966 414.094 361.939 413.629C361.913 413.163 361.753 412.803 361.46 412.55C361.168 412.296 360.759 412.141 360.233 412.085L360.256 411.581C360.511 411.609 360.766 411.637 361.021 411.664C361.276 411.692 361.523 411.72 361.762 411.747C362.001 411.758 362.233 411.768 362.457 411.778C362.793 411.794 363.121 411.801 363.441 411.8C363.777 411.799 364.058 411.788 364.283 411.766ZM358.569 423.709L357.547 426.088C357.384 426.481 357.209 426.809 357.021 427.073C356.848 427.353 356.653 427.577 356.438 427.743C356.188 427.94 355.886 428.078 355.529 428.158C355.189 428.238 354.812 428.269 354.396 428.25C354.028 428.233 353.672 428.152 353.326 428.008C352.996 427.865 352.717 427.66 352.489 427.393C352.277 427.127 352.181 426.786 352.2 426.371C352.221 425.923 352.389 425.571 352.705 425.313C353.021 425.055 353.443 424.938 353.971 424.963C354.434 424.984 354.805 425.113 355.082 425.35C355.375 425.604 355.51 425.962 355.489 426.426C355.475 426.73 355.375 426.997 355.188 427.229C355.001 427.461 354.745 427.633 354.419 427.746C354.498 427.766 354.57 427.777 354.634 427.78C354.713 427.8 354.777 427.811 354.825 427.813C355.288 427.834 355.711 427.701 356.092 427.415C356.474 427.128 356.792 426.662 357.045 426.017L358.018 423.683L358.569 423.709Z" fill="#37322B" fill-opacity="0.33"/>
<path d="M272.269 425.615C272.173 426.299 272.095 426.96 272.034 427.598C271.988 428.236 271.958 428.724 271.942 429.059C271.926 429.427 271.918 429.771 271.919 430.091C271.92 430.412 271.923 430.692 271.928 430.933L271.377 430.907C271.256 429.7 271.06 428.746 270.788 428.045C270.516 427.328 270.132 426.814 269.633 426.502C269.136 426.175 268.464 425.992 267.616 425.953L266.586 425.906C266.106 425.884 265.737 425.907 265.477 425.975C265.218 426.043 265.034 426.203 264.927 426.454C264.835 426.706 264.777 427.096 264.753 427.624L264.202 439.611C264.174 440.218 264.217 440.677 264.331 440.986C264.445 441.296 264.683 441.507 265.046 441.62C265.41 441.733 265.934 441.813 266.621 441.86L266.598 442.364C266.136 442.311 265.537 442.267 264.802 442.233C264.067 442.183 263.309 442.141 262.525 442.105C261.854 442.074 261.206 442.052 260.582 442.039C259.959 442.011 259.415 442.002 258.95 442.012L258.972 441.533C259.501 441.525 259.895 441.479 260.156 441.395C260.432 441.312 260.616 441.128 260.709 440.844C260.819 440.561 260.886 440.131 260.913 439.556L261.459 427.664C261.487 427.073 261.458 426.639 261.375 426.363C261.308 426.072 261.141 425.872 260.874 425.763C260.624 425.64 260.235 425.558 259.708 425.518L259.73 425.038C260.369 425.084 261.039 425.13 261.742 425.179C262.461 425.212 263.164 425.252 263.851 425.3C264.554 425.332 265.201 425.362 265.792 425.389C266.4 425.417 266.887 425.439 267.255 425.456C267.99 425.49 268.821 425.528 269.748 425.571C270.692 425.598 271.532 425.613 272.269 425.615ZM268.265 433.791C268.265 433.791 268.262 433.871 268.254 434.031C268.247 434.191 268.243 434.271 268.243 434.271L263.736 434.064C263.736 434.064 263.74 433.984 263.747 433.824C263.754 433.664 263.758 433.584 263.758 433.584L268.265 433.791ZM268.962 430.652C268.856 431.56 268.792 432.254 268.77 432.733C268.764 433.214 268.752 433.654 268.734 434.053C268.715 434.453 268.703 434.893 268.697 435.373C268.691 435.853 268.699 436.55 268.721 437.464L268.17 437.439C268.131 436.892 268.034 436.375 267.881 435.888C267.728 435.384 267.474 434.98 267.119 434.676C266.782 434.356 266.277 434.18 265.606 434.15L265.628 433.67C266.124 433.693 266.536 433.608 266.865 433.415C267.194 433.222 267.454 432.969 267.645 432.658C267.852 432.331 268.012 431.994 268.124 431.647C268.252 431.284 268.348 430.944 268.411 430.627L268.962 430.652ZM278.824 430.168C279.927 430.219 280.891 430.488 281.718 430.974C282.561 431.445 283.209 432.172 283.66 433.154C284.127 434.136 284.325 435.411 284.253 436.977C284.181 438.543 283.867 439.794 283.312 440.73C282.772 441.666 282.061 442.33 281.178 442.722C280.311 443.114 279.326 443.285 278.223 443.235C277.12 443.184 276.147 442.923 275.304 442.452C274.461 441.98 273.814 441.254 273.362 440.272C272.911 439.29 272.721 438.016 272.793 436.45C272.865 434.884 273.171 433.632 273.71 432.696C274.25 431.76 274.961 431.096 275.844 430.704C276.728 430.296 277.721 430.118 278.824 430.168ZM278.802 430.648C278.051 430.613 277.413 431.065 276.89 432.001C276.383 432.923 276.08 434.455 275.982 436.597C275.883 438.738 276.044 440.291 276.464 441.256C276.9 442.221 277.494 442.721 278.245 442.755C278.981 442.789 279.61 442.345 280.132 441.424C280.655 440.503 280.966 438.972 281.064 436.83C281.163 434.689 280.994 433.135 280.558 432.17C280.122 431.189 279.537 430.682 278.802 430.648ZM297.703 431.108L297.24 441.178C297.207 441.897 297.302 442.438 297.526 442.801C297.75 443.147 298.166 443.334 298.773 443.362L298.75 443.866C298.257 443.795 297.763 443.748 297.267 443.726C296.676 443.698 296.107 443.696 295.562 443.719C295.032 443.743 294.54 443.808 294.087 443.916L294.197 441.518C293.757 442.379 293.177 442.985 292.456 443.336C291.752 443.672 291 443.822 290.201 443.785C289.577 443.757 289.054 443.644 288.631 443.449C288.222 443.27 287.897 443.031 287.655 442.731C287.397 442.415 287.223 442.007 287.134 441.506C287.045 441.005 287.019 440.363 287.055 439.58L287.333 433.515C287.367 432.795 287.271 432.262 287.047 431.916C286.839 431.554 286.423 431.359 285.8 431.33L285.823 430.826C286.333 430.898 286.827 430.945 287.306 430.967C287.898 430.994 288.458 430.996 288.988 430.972C289.534 430.933 290.034 430.868 290.487 430.777L290.037 440.558C290.017 440.99 290.031 441.375 290.08 441.713C290.144 442.053 290.284 442.331 290.498 442.55C290.713 442.752 291.044 442.863 291.492 442.884C291.987 442.906 292.441 442.783 292.854 442.514C293.267 442.244 293.597 441.867 293.843 441.382C294.106 440.897 294.251 440.344 294.28 439.72L294.55 433.846C294.583 433.127 294.487 432.594 294.263 432.248C294.055 431.886 293.64 431.69 293.017 431.662L293.04 431.158C293.549 431.23 294.043 431.276 294.523 431.298C295.114 431.326 295.675 431.327 296.204 431.304C296.751 431.265 297.25 431.2 297.703 431.108ZM309.039 431.557C309.71 431.588 310.241 431.701 310.633 431.895C311.04 432.09 311.366 432.329 311.609 432.612C311.883 432.929 312.064 433.33 312.154 433.815C312.26 434.3 312.294 434.95 312.257 435.766L311.96 442.215C311.929 442.886 312.028 443.347 312.257 443.598C312.502 443.849 312.92 443.989 313.511 444.016L313.488 444.519C313.201 444.49 312.754 444.454 312.148 444.41C311.558 444.351 310.983 444.308 310.424 444.282C309.832 444.255 309.256 444.245 308.695 444.251C308.135 444.241 307.719 444.238 307.446 444.242L307.47 443.738C307.981 443.762 308.346 443.658 308.565 443.428C308.784 443.198 308.909 442.747 308.939 442.076L309.273 434.812C309.293 434.38 309.271 433.995 309.206 433.655C309.143 433.3 308.995 433.021 308.764 432.818C308.534 432.599 308.195 432.48 307.748 432.459C307.22 432.435 306.742 432.557 306.313 432.826C305.901 433.095 305.563 433.48 305.299 433.98C305.053 434.465 304.915 435.02 304.887 435.643L304.6 441.876C304.569 442.548 304.652 443.008 304.849 443.257C305.046 443.507 305.4 443.643 305.911 443.666L305.888 444.17C305.617 444.141 305.21 444.107 304.668 444.066C304.126 444.009 303.575 443.968 303.015 443.942C302.424 443.915 301.824 443.903 301.215 443.907C300.607 443.895 300.151 443.89 299.846 443.892L299.87 443.389C300.461 443.416 300.882 443.315 301.133 443.086C301.4 442.858 301.548 442.409 301.579 441.738L301.926 434.185C301.959 433.466 301.864 432.933 301.639 432.587C301.432 432.225 301.016 432.029 300.393 432.001L300.416 431.497C300.925 431.569 301.42 431.616 301.899 431.638C302.491 431.665 303.051 431.666 303.581 431.643C304.127 431.604 304.627 431.539 305.079 431.447L304.969 433.845C305.411 432.952 305.991 432.338 306.712 432.003C307.432 431.668 308.207 431.519 309.039 431.557ZM326.779 426.318L326.037 442.477C326.004 443.197 326.099 443.738 326.322 444.1C326.547 444.447 326.963 444.634 327.57 444.662L327.547 445.166C327.053 445.095 326.559 445.048 326.064 445.025C325.472 444.998 324.912 444.996 324.382 445.02C323.852 445.044 323.353 445.109 322.884 445.216L323.626 429.057C323.659 428.337 323.564 427.804 323.339 427.458C323.132 427.096 322.716 426.901 322.093 426.872L322.116 426.368C322.625 426.44 323.12 426.487 323.599 426.509C324.207 426.537 324.775 426.539 325.305 426.515C325.835 426.475 326.327 426.41 326.779 426.318ZM320.772 432.097C321.475 432.129 322.1 432.294 322.647 432.591C323.194 432.889 323.589 433.363 323.831 434.015L323.532 434.242C323.33 433.768 323.042 433.41 322.668 433.169C322.295 432.928 321.869 432.796 321.389 432.774C320.526 432.734 319.809 433.19 319.236 434.14C318.681 435.076 318.357 436.542 318.265 438.54C318.203 439.883 318.257 440.975 318.427 441.815C318.597 442.64 318.866 443.245 319.232 443.63C319.615 444.016 320.078 444.222 320.622 444.247C321.197 444.273 321.727 444.065 322.212 443.623C322.697 443.165 323 442.498 323.121 441.623L323.258 442.302C323.005 443.267 322.579 443.992 321.98 444.477C321.382 444.962 320.611 445.183 319.668 445.14C318.709 445.096 317.864 444.825 317.134 444.327C316.421 443.813 315.879 443.068 315.507 442.089C315.153 441.096 315.009 439.856 315.078 438.37C315.144 436.915 315.44 435.72 315.963 434.783C316.488 433.83 317.168 433.132 318.006 432.69C318.843 432.248 319.765 432.05 320.772 432.097Z" fill="#37322B" fill-opacity="0.33"/>
<path d="M379.599 302.488L387.908 314.208C387.908 314.208 391.578 317.156 389.563 320.955C387.548 324.754 395.151 325.913 395.691 322.386C396.231 318.858 396.605 319.252 396.605 319.252C396.605 319.252 402.975 321.184 403.868 317.184C404.657 313.607 402.988 310.466 400.08 311.553C397.172 312.641 388.649 300.513 388.649 300.513L379.599 302.488Z" fill="#CEC3BC"/>
<path d="M339.218 246.566C322.375 256.189 323.902 284.816 351.28 292.25C370.723 297.53 377.702 300.8 378.498 303.154C379.294 305.508 384.487 311.11 385.831 311.303C387.174 311.496 392.609 312.312 393.606 310.144C394.603 307.976 398.225 309.879 391.453 302.553C390.809 301.837 386.731 296.335 385.124 285.918C383.518 275.5 374.385 226.476 339.218 246.566Z" fill="#AD6F36"/>
<mask id="mask0_913_418" style="mask-type:alpha" maskUnits="userSpaceOnUse" x="328" y="241" width="77" height="84">
<path d="M379.599 302.488L387.908 314.208C387.908 314.208 391.578 317.156 389.563 320.955C387.548 324.754 395.15 325.913 395.69 322.386C396.231 318.858 396.604 319.252 396.604 319.252C396.604 319.252 402.975 321.184 403.868 317.184C404.657 313.607 402.988 310.466 400.08 311.553C397.172 312.641 388.649 300.513 388.649 300.513L379.599 302.488Z" fill="#CEC3BC"/>
<path d="M339.218 246.566C322.374 256.189 323.902 284.816 351.28 292.25C370.722 297.53 377.702 300.8 378.498 303.154C379.294 305.508 384.487 311.11 385.831 311.303C387.174 311.496 392.609 312.312 393.606 310.144C394.603 307.976 398.225 309.879 391.453 302.553C390.809 301.837 386.731 296.335 385.124 285.918C383.518 275.5 374.385 226.476 339.218 246.566Z" fill="#AD6F36"/>
</mask>
<g mask="url(#mask0_913_418)">
<path d="M384.716 310.235C384.716 336.114 363.737 357.093 337.858 357.093C311.979 357.093 291 336.114 291 310.235C291 284.356 302.607 242.597 328.486 242.597C328.486 299.641 384.716 284.356 384.716 310.235Z" fill="#9F632C"/>
</g>
<path d="M174.668 367.856C175.032 367.8 175.498 367.724 176.066 367.628C176.65 367.529 177.225 367.423 177.79 367.311C178.543 367.162 179.256 367.013 179.927 366.864C180.615 366.711 181.1 366.607 181.382 366.551C182.717 366.287 183.857 366.24 184.805 366.412C185.768 366.58 186.523 366.936 187.071 367.48C187.632 368.005 187.991 368.667 188.15 369.468C188.246 369.954 188.247 370.493 188.152 371.082C188.069 371.653 187.831 372.222 187.438 372.789C187.041 373.341 186.457 373.848 185.684 374.311C184.911 374.774 183.881 375.133 182.594 375.388L180.334 375.835L180.241 375.365L182.265 374.964C183.317 374.755 184.083 374.424 184.564 373.97C185.058 373.497 185.341 372.952 185.415 372.334C185.501 371.697 185.472 371.018 185.329 370.296C185.083 369.056 184.627 368.151 183.96 367.582C183.289 366.997 182.295 366.835 180.977 367.096C180.302 367.23 179.881 367.452 179.714 367.762C179.563 368.069 179.568 368.631 179.73 369.447L182.042 381.124C182.154 381.689 182.285 382.104 182.435 382.368C182.585 382.632 182.803 382.784 183.088 382.826C183.374 382.867 183.779 382.852 184.303 382.781L184.396 383.252C184.013 383.295 183.531 383.374 182.951 383.489C182.382 383.585 181.8 383.692 181.204 383.81C180.545 383.941 179.926 384.072 179.349 384.202C178.784 384.314 178.324 384.422 177.969 384.524L177.876 384.054C178.403 383.917 178.791 383.774 179.039 383.627C179.287 383.48 179.423 383.258 179.445 382.96C179.483 382.659 179.446 382.226 179.335 381.661L177.022 369.983C176.907 369.403 176.776 368.988 176.629 368.74C176.495 368.473 176.277 368.32 175.976 368.282C175.687 368.225 175.282 368.24 174.761 368.327L174.668 367.856ZM180.302 375.426C181.109 375.299 181.76 375.211 182.256 375.161C182.748 375.096 183.163 375.047 183.499 375.013C183.834 374.979 184.148 374.958 184.44 374.949C185.648 374.873 186.566 375.017 187.193 375.382C187.835 375.745 188.355 376.392 188.752 377.325L189.816 379.609C190.091 380.256 190.335 380.706 190.547 380.957C190.776 381.205 191.055 381.297 191.385 381.232C191.633 381.166 191.823 381.055 191.955 380.898C192.1 380.723 192.243 380.499 192.385 380.226L192.765 380.42C192.501 380.978 192.197 381.421 191.854 381.75C191.509 382.063 191.006 382.285 190.347 382.416C189.672 382.549 189.057 382.492 188.502 382.243C187.96 381.975 187.489 381.367 187.089 380.419L186.152 378.158C185.877 377.511 185.605 376.961 185.336 376.509C185.064 376.041 184.743 375.696 184.373 375.476C184.019 375.253 183.552 375.198 182.971 375.313L180.428 375.817L180.302 375.426ZM196.649 380.996C195.99 381.127 195.4 381.113 194.88 380.955C194.359 380.797 193.938 380.522 193.615 380.129C193.293 379.736 193.076 379.257 192.964 378.692C192.827 378.002 192.874 377.414 193.104 376.928C193.33 376.426 193.661 375.994 194.094 375.63C194.544 375.264 195.026 374.94 195.541 374.659C196.069 374.359 196.561 374.082 197.016 373.829C197.484 373.557 197.853 373.279 198.124 372.998C198.41 372.713 198.517 372.39 198.446 372.029L198.129 370.428C198.017 369.863 197.834 369.434 197.58 369.142C197.339 368.831 197.048 368.636 196.706 368.556C196.38 368.474 196.005 368.475 195.581 368.559C195.22 368.63 194.846 368.762 194.46 368.952C194.071 369.127 193.788 369.387 193.611 369.732C193.975 369.758 194.295 369.89 194.571 370.129C194.859 370.349 195.044 370.663 195.124 371.072C195.211 371.511 195.131 371.886 194.882 372.196C194.649 372.503 194.313 372.7 193.874 372.787C193.387 372.884 192.997 372.806 192.702 372.554C192.405 372.287 192.216 371.949 192.135 371.541C192.051 371.118 192.084 370.752 192.236 370.445C192.403 370.134 192.635 369.827 192.934 369.524C193.261 369.198 193.698 368.891 194.244 368.604C194.806 368.313 195.449 368.096 196.171 367.953C196.845 367.819 197.442 367.783 197.959 367.843C198.49 367.885 198.952 368.038 199.347 368.303C199.811 368.586 200.16 368.99 200.394 369.514C200.626 370.023 200.817 370.662 200.97 371.431L202.256 377.929C202.334 378.321 202.437 378.594 202.565 378.748C202.706 378.884 202.895 378.928 203.13 378.881C203.287 378.85 203.428 378.781 203.554 378.675C203.695 378.565 203.853 378.412 204.026 378.215L204.34 378.568C204.063 378.9 203.768 379.179 203.454 379.404C203.155 379.626 202.747 379.789 202.229 379.891C201.727 379.991 201.303 379.993 200.958 379.898C200.613 379.804 200.333 379.623 200.117 379.356C199.916 379.085 199.773 378.73 199.686 378.291C199.408 379.031 199.021 379.63 198.524 380.087C198.028 380.544 197.403 380.847 196.649 380.996ZM197.556 379.643C197.995 379.555 198.378 379.349 198.705 379.023C199.048 378.695 199.334 378.246 199.565 377.679L198.637 372.994C198.514 373.279 198.306 373.549 198.014 373.802C197.719 374.04 197.401 374.291 197.062 374.554C196.722 374.816 196.405 375.108 196.109 375.427C195.826 375.728 195.612 376.088 195.467 376.509C195.322 376.929 195.307 377.429 195.422 378.01C195.543 378.622 195.796 379.078 196.182 379.376C196.564 379.659 197.022 379.748 197.556 379.643ZM206.129 362.287L206.903 366.195L210.152 365.551L210.245 366.022L206.996 366.665L208.828 375.918C208.956 376.561 209.163 376.993 209.452 377.213C209.74 377.434 210.104 377.5 210.543 377.413C210.951 377.332 211.28 377.096 211.528 376.704C211.793 376.309 211.965 375.696 212.045 374.865L212.525 374.941C212.501 375.81 212.304 376.583 211.932 377.26C211.573 377.919 210.931 378.34 210.005 378.523C209.471 378.629 209.01 378.647 208.621 378.577C208.235 378.523 207.884 378.397 207.567 378.198C207.15 377.906 206.829 377.521 206.604 377.043C206.379 376.566 206.184 375.911 206.02 375.079L204.453 367.169L202.287 367.598L202.194 367.127L204.36 366.698L203.679 363.261C204.163 363.149 204.61 363.019 205.021 362.873C205.43 362.71 205.799 362.515 206.129 362.287ZM222.068 362.898L224.021 372.762C224.161 373.469 224.383 373.971 224.687 374.27C225.003 374.55 225.483 374.626 226.127 374.498L226.225 374.993C225.729 375.042 225.238 375.115 224.751 375.211C224.233 375.314 223.743 375.435 223.282 375.576C222.82 375.716 222.406 375.888 222.038 376.091L221.53 373.525C221.324 374.544 220.909 375.328 220.283 375.876C219.67 376.405 218.979 376.746 218.21 376.898C217.629 377.013 217.118 377.025 216.676 376.933C216.237 376.857 215.857 376.711 215.537 376.498C215.193 376.24 214.917 375.878 214.711 375.413C214.502 374.933 214.323 374.316 214.173 373.563L212.998 367.63C212.859 366.924 212.638 366.429 212.338 366.146C212.034 365.847 211.552 365.763 210.893 365.894L210.795 365.399C211.307 365.347 211.798 365.274 212.269 365.181C212.787 365.078 213.277 364.957 213.738 364.817C214.196 364.661 214.611 364.489 214.982 364.301L216.846 373.718C216.937 374.173 217.05 374.583 217.188 374.947C217.325 375.312 217.533 375.58 217.812 375.753C218.091 375.927 218.49 375.962 219.008 375.859C219.557 375.75 220.011 375.489 220.369 375.076C220.744 374.659 221 374.143 221.139 373.529C221.279 372.914 221.278 372.253 221.138 371.547L220.085 366.226C219.945 365.52 219.725 365.026 219.424 364.743C219.12 364.444 218.639 364.36 217.979 364.49L217.882 363.996C218.393 363.944 218.884 363.871 219.355 363.778C219.873 363.675 220.363 363.554 220.824 363.413C221.283 363.257 221.697 363.085 222.068 362.898ZM230.076 356.884C230.441 356.828 230.907 356.752 231.475 356.656C232.059 356.556 232.633 356.451 233.198 356.339C233.951 356.19 234.664 356.04 235.336 355.891C236.023 355.739 236.508 355.634 236.791 355.578C238.549 355.23 239.928 355.316 240.928 355.836C241.943 356.352 242.558 357.152 242.773 358.235C242.882 358.784 242.857 359.36 242.699 359.962C242.553 360.546 242.234 361.114 241.74 361.669C241.243 362.208 240.541 362.697 239.633 363.138L239.643 363.185C240.989 363.065 242.081 363.143 242.918 363.417C243.756 363.692 244.39 364.096 244.822 364.631C245.251 365.149 245.529 365.73 245.657 366.374C245.84 367.3 245.765 368.155 245.431 368.939C245.093 369.707 244.515 370.368 243.695 370.921C242.89 371.472 241.868 371.87 240.628 372.116C240.283 372.184 239.756 372.281 239.046 372.405C238.35 372.51 237.507 372.661 236.518 372.857C235.922 372.975 235.335 373.099 234.757 373.23C234.192 373.342 233.732 373.449 233.377 373.552L233.284 373.081C233.811 372.944 234.199 372.802 234.447 372.655C234.696 372.508 234.831 372.285 234.853 371.987C234.892 371.686 234.855 371.253 234.743 370.688L232.43 359.011C232.315 358.43 232.184 358.016 232.037 357.767C231.903 357.5 231.685 357.348 231.384 357.31C231.096 357.253 230.691 357.268 230.17 357.354L230.076 356.884ZM236.385 356.124C235.71 356.257 235.289 356.479 235.122 356.79C234.971 357.097 234.976 357.658 235.138 358.475L237.45 370.152C237.559 370.701 237.689 371.108 237.839 371.372C237.989 371.636 238.191 371.791 238.445 371.839C238.715 371.883 239.085 371.859 239.556 371.766C240.969 371.486 241.919 370.931 242.407 370.1C242.907 369.251 243.027 368.167 242.766 366.848C242.527 365.64 242.02 364.77 241.246 364.238C240.487 363.703 239.378 363.58 237.919 363.869L235.635 364.321C235.635 364.321 235.623 364.259 235.598 364.133C235.57 363.992 235.556 363.921 235.556 363.921L237.581 363.52C238.444 363.349 239.077 363.045 239.479 362.606C239.879 362.152 240.107 361.617 240.165 361.002C240.219 360.372 240.18 359.719 240.046 359.044C239.816 357.883 239.416 357.057 238.846 356.566C238.273 356.06 237.452 355.912 236.385 356.124ZM251.546 356.987C252.597 356.779 253.575 356.814 254.478 357.091C255.381 357.369 256.169 357.931 256.842 358.776C257.515 359.622 258.002 360.805 258.304 362.328C258.605 363.85 258.606 365.131 258.306 366.169C258.003 367.191 257.487 368.003 256.758 368.604C256.025 369.189 255.133 369.586 254.082 369.794C253.046 369.999 252.07 369.972 251.154 369.713C250.235 369.439 249.441 368.886 248.771 368.057C248.114 367.208 247.634 366.023 247.333 364.5C247.031 362.978 247.023 361.699 247.307 360.664C247.607 359.626 248.13 358.805 248.875 358.201C249.619 357.597 250.51 357.192 251.546 356.987ZM251.639 357.458C250.823 357.619 250.249 358.222 249.917 359.267C249.583 360.295 249.624 361.861 250.04 363.964C250.457 366.067 251.016 367.531 251.717 368.354C252.415 369.162 253.172 369.485 253.989 369.323C254.789 369.165 255.358 368.579 255.696 367.566C256.046 366.535 256.013 364.967 255.596 362.864C255.18 360.761 254.613 359.299 253.896 358.479C253.192 357.64 252.439 357.299 251.639 357.458ZM266.469 371.598C265.59 371.772 264.757 371.848 263.97 371.824C263.198 371.798 262.548 371.649 262.022 371.378C261.514 371.12 261.206 370.716 261.097 370.167C260.994 369.649 261.124 369.15 261.486 368.671C261.847 368.191 262.408 367.77 263.168 367.408L263.408 367.752C263.106 367.958 262.892 368.237 262.766 368.588C262.656 368.936 262.638 369.299 262.712 369.675C262.849 370.366 263.276 370.836 263.995 371.085C264.713 371.334 265.597 371.355 266.649 371.147C267.355 371.007 268.004 370.781 268.594 370.468C269.204 370.168 269.664 369.775 269.976 369.289C270.303 368.8 270.403 368.234 270.275 367.591C270.176 367.088 269.911 366.7 269.482 366.426C269.056 366.168 268.309 366.145 267.242 366.356L265.594 366.683C265.044 366.791 264.525 366.845 264.036 366.844C263.546 366.844 263.126 366.739 262.775 366.531C262.436 366.305 262.217 365.94 262.118 365.438C262.006 364.873 262.136 364.293 262.507 363.697C262.878 363.102 263.573 362.451 264.591 361.743L264.916 361.899C264.51 362.241 264.153 362.58 263.845 362.919C263.55 363.238 263.439 363.586 263.514 363.963C263.613 364.465 264.024 364.645 264.746 364.502L267.548 363.947C268.285 363.801 268.972 363.771 269.609 363.857C270.243 363.927 270.782 364.138 271.227 364.491C271.672 364.843 271.963 365.364 272.1 366.055C272.246 366.793 272.139 367.531 271.78 368.271C271.44 369.024 270.83 369.691 269.95 370.273C269.074 370.87 267.913 371.312 266.469 371.598ZM264.741 362.13C263.941 362.288 263.186 362.307 262.477 362.187C261.765 362.05 261.166 361.745 260.681 361.27C260.195 360.795 259.867 360.126 259.696 359.263C259.525 358.4 259.574 357.656 259.842 357.032C260.106 356.393 260.543 355.882 261.153 355.5C261.759 355.103 262.463 354.825 263.263 354.667C264.095 354.502 264.859 354.489 265.555 354.629C266.249 354.752 266.84 355.059 267.328 355.55C267.814 356.024 268.142 356.693 268.313 357.557C268.484 358.42 268.435 359.163 268.167 359.787C267.899 360.411 267.47 360.92 266.879 361.315C266.286 361.693 265.573 361.965 264.741 362.13ZM264.657 361.706C265.206 361.597 265.584 361.278 265.789 360.748C265.994 360.218 265.972 359.325 265.723 358.07C265.474 356.814 265.154 355.98 264.763 355.568C264.368 355.141 263.896 354.982 263.347 355.09C262.829 355.193 262.461 355.519 262.244 356.067C262.023 356.6 262.037 357.495 262.286 358.75C262.534 360.006 262.862 360.838 263.269 361.247C263.677 361.655 264.139 361.808 264.657 361.706ZM267.139 355.954L266.683 355.873C266.794 355.28 267.076 354.727 267.528 354.213C267.981 353.7 268.498 353.385 269.079 353.27C269.518 353.183 269.888 353.24 270.189 353.442C270.503 353.624 270.703 353.935 270.79 354.375C270.886 354.861 270.821 355.233 270.595 355.49C270.384 355.744 270.137 355.899 269.855 355.955C269.604 356.004 269.351 355.965 269.097 355.835C268.859 355.703 268.689 355.46 268.586 355.105C268.48 354.734 268.503 354.232 268.654 353.599L268.932 353.642C268.354 354.017 267.944 354.376 267.702 354.717C267.472 355.04 267.284 355.452 267.139 355.954ZM276.911 365.102C276.252 365.233 275.662 365.219 275.141 365.061C274.621 364.903 274.199 364.628 273.877 364.235C273.554 363.842 273.337 363.363 273.225 362.798C273.089 362.108 273.135 361.519 273.365 361.033C273.592 360.532 273.922 360.099 274.356 359.736C274.805 359.37 275.288 359.046 275.803 358.765C276.331 358.464 276.822 358.188 277.278 357.934C277.746 357.662 278.115 357.385 278.385 357.103C278.671 356.818 278.779 356.495 278.707 356.134L278.39 354.533C278.278 353.968 278.096 353.54 277.842 353.247C277.601 352.936 277.31 352.741 276.968 352.662C276.641 352.58 276.266 352.581 275.843 352.665C275.482 352.736 275.108 352.867 274.722 353.058C274.332 353.233 274.049 353.493 273.873 353.838C274.237 353.863 274.557 353.996 274.832 354.235C275.121 354.455 275.305 354.769 275.386 355.177C275.473 355.617 275.392 355.992 275.144 356.302C274.911 356.609 274.575 356.806 274.136 356.893C273.649 356.989 273.258 356.912 272.964 356.66C272.666 356.393 272.477 356.055 272.396 355.647C272.312 355.223 272.346 354.858 272.497 354.551C272.664 354.24 272.897 353.933 273.196 353.629C273.523 353.304 273.959 352.997 274.506 352.709C275.068 352.419 275.71 352.202 276.432 352.059C277.107 351.925 277.703 351.888 278.221 351.949C278.751 351.991 279.214 352.144 279.609 352.408C280.072 352.692 280.422 353.095 280.656 353.62C280.887 354.129 281.079 354.768 281.231 355.537L282.518 362.034C282.596 362.427 282.699 362.7 282.827 362.854C282.968 362.989 283.156 363.034 283.392 362.987C283.549 362.956 283.69 362.887 283.816 362.781C283.957 362.671 284.114 362.518 284.287 362.32L284.602 362.674C284.325 363.006 284.03 363.285 283.715 363.51C283.417 363.732 283.009 363.895 282.491 363.997C281.989 364.097 281.565 364.099 281.22 364.004C280.875 363.909 280.594 363.728 280.378 363.461C280.178 363.191 280.034 362.836 279.947 362.397C279.67 363.137 279.283 363.735 278.786 364.193C278.289 364.65 277.664 364.953 276.911 365.102ZM277.817 363.748C278.257 363.661 278.64 363.455 278.967 363.129C279.31 362.8 279.596 362.352 279.826 361.785L278.898 357.1C278.776 357.385 278.568 357.654 278.276 357.908C277.98 358.146 277.663 358.396 277.323 358.659C276.984 358.922 276.667 359.213 276.371 359.533C276.088 359.834 275.874 360.194 275.729 360.614C275.584 361.034 275.569 361.535 275.684 362.116C275.805 362.728 276.058 363.183 276.444 363.482C276.826 363.765 277.284 363.854 277.817 363.748Z" fill="#37322B"/>
</svg>
