<svg width="560" height="560" viewBox="0 0 560 560" fill="none" xmlns="http://www.w3.org/2000/svg">
<circle cx="290.5" cy="283.5" r="175.5" fill="#EEE1D1"/>
<circle cx="126" cy="165" r="11" fill="#ECF6EF"/>
<circle cx="410.5" cy="121.5" r="20.5" fill="#ECF6EF"/>
<circle cx="129.5" cy="396.5" r="19.5" fill="#ECF6EF"/>
<circle cx="478.5" cy="377.5" r="19.5" fill="#ECF6EF"/>
<circle cx="440.5" cy="399.5" r="9.5" fill="#ECF6EF"/>
<path d="M318.525 115.537C317.946 115.414 317.946 114.586 318.525 114.463L327.291 112.599C327.502 112.554 327.668 112.389 327.713 112.178L329.601 103.474C329.726 102.897 330.549 102.897 330.674 103.474L332.561 112.178C332.607 112.389 332.772 112.554 332.984 112.599L341.749 114.463C342.329 114.586 342.329 115.414 341.749 115.537L332.984 117.401C332.772 117.446 332.607 117.611 332.561 117.822L330.674 126.526C330.549 127.103 329.726 127.103 329.601 126.526L327.713 117.822C327.668 117.611 327.502 117.446 327.291 117.401L318.525 115.537Z" fill="#8ECEA3"/>
<path d="M80.2229 309.622C80.4467 308.565 81.9558 308.565 82.1796 309.622L85.5224 325.415C85.6038 325.799 85.9034 326.101 86.2878 326.185L101.917 329.589C102.967 329.818 102.967 331.315 101.917 331.544L86.2878 334.948C85.9034 335.032 85.6038 335.334 85.5224 335.718L82.1796 351.511C81.9558 352.568 80.4467 352.568 80.2229 351.511L76.8801 335.718C76.7986 335.334 76.499 335.032 76.1146 334.948L60.4851 331.544C59.4356 331.315 59.4356 329.818 60.4851 329.589L76.1146 326.185C76.499 326.101 76.7986 325.799 76.8801 325.415L80.2229 309.622Z" fill="#8ECEA3"/>
<path d="M447.345 169.622C447.568 168.565 449.078 168.565 449.301 169.622L451.251 178.835C451.333 179.22 451.633 179.521 452.017 179.605L461.161 181.597C462.21 181.826 462.21 183.323 461.161 183.551L452.017 185.543C451.633 185.627 451.333 185.928 451.251 186.313L449.301 195.526C449.078 196.583 447.568 196.583 447.345 195.526L445.395 186.313C445.313 185.928 445.014 185.627 444.629 185.543L435.485 183.551C434.436 183.323 434.436 181.826 435.485 181.597L444.629 179.605C445.014 179.521 445.313 179.22 445.395 178.835L447.345 169.622Z" fill="#8ECEA3"/>
<path d="M487.658 317.331L490.721 331.798L504.981 334.905L490.721 338.011L487.658 352.479L484.596 338.011L470.335 334.905L484.596 331.798L487.658 317.331Z" fill="white"/>
<rect x="286.846" y="182.891" width="180.208" height="194.008" rx="10.492" transform="rotate(10 286.846 182.891)" fill="white" stroke="#8ECEA3" stroke-width="4"/>
<rect x="295.457" y="195.188" width="157.917" height="137.749" rx="10.492" transform="rotate(10 295.457 195.188)" fill="#ECF6EF" stroke="#ECF6EF" stroke-width="4"/>
<path d="M306.305 349.03C306.664 349.112 307.125 349.212 307.689 349.331C308.269 349.453 308.842 349.565 309.408 349.668C310.164 349.806 310.882 349.929 311.561 350.036C312.257 350.147 312.746 350.228 313.03 350.279C314.368 350.523 315.446 350.898 316.264 351.405C317.098 351.915 317.671 352.523 317.981 353.23C318.31 353.925 318.401 354.673 318.255 355.476C318.166 355.964 317.969 356.465 317.664 356.978C317.378 357.479 316.948 357.921 316.374 358.305C315.802 358.672 315.073 358.929 314.184 359.077C313.295 359.224 312.205 359.18 310.914 358.945L308.648 358.532L308.734 358.059L310.764 358.429C311.819 358.621 312.653 358.595 313.267 358.349C313.9 358.09 314.364 357.686 314.659 357.138C314.972 356.577 315.195 355.935 315.327 355.211C315.554 353.967 315.461 352.958 315.049 352.184C314.64 351.394 313.774 350.878 312.452 350.638C311.775 350.514 311.302 350.566 311.033 350.794C310.78 351.024 310.578 351.549 310.429 352.367L308.296 364.078C308.193 364.645 308.163 365.079 308.205 365.379C308.248 365.68 308.395 365.902 308.645 366.045C308.896 366.188 309.278 366.323 309.791 366.449L309.705 366.921C309.333 366.821 308.856 366.718 308.274 366.611C307.71 366.492 307.129 366.378 306.531 366.27C305.87 366.149 305.246 366.044 304.661 365.953C304.095 365.85 303.627 365.781 303.26 365.747L303.346 365.275C303.886 365.341 304.299 365.351 304.584 365.305C304.869 365.259 305.076 365.102 305.207 364.833C305.353 364.567 305.478 364.15 305.581 363.584L307.714 351.873C307.82 351.29 307.85 350.856 307.805 350.572C307.778 350.274 307.631 350.052 307.365 349.906C307.117 349.747 306.735 349.613 306.219 349.502L306.305 349.03ZM308.768 358.139C309.565 358.317 310.203 358.473 310.683 358.61C311.165 358.73 311.569 358.836 311.893 358.928C312.218 359.019 312.518 359.115 312.793 359.214C313.945 359.586 314.745 360.057 315.194 360.627C315.659 361.199 315.905 361.992 315.932 363.005L316.084 365.521C316.102 366.224 316.164 366.731 316.27 367.043C316.391 367.358 316.617 367.546 316.948 367.606C317.203 367.636 317.42 367.603 317.601 367.505C317.799 367.395 318.015 367.239 318.247 367.038L318.53 367.358C318.079 367.78 317.634 368.081 317.195 368.261C316.758 368.425 316.209 368.447 315.548 368.327C314.871 368.204 314.32 367.924 313.895 367.489C313.489 367.041 313.274 366.303 313.25 365.274L313.208 362.826C313.19 362.124 313.138 361.513 313.054 360.993C312.973 360.458 312.8 360.02 312.537 359.679C312.29 359.341 311.875 359.119 311.292 359.013L308.742 358.549L308.768 358.139ZM321.932 369.319C321.271 369.198 320.727 368.969 320.3 368.631C319.874 368.294 319.583 367.883 319.427 367.399C319.271 366.915 319.245 366.39 319.348 365.823C319.474 365.131 319.734 364.601 320.126 364.233C320.521 363.85 320.987 363.569 321.524 363.39C322.076 363.214 322.644 363.09 323.226 363.017C323.827 362.931 324.386 362.854 324.903 362.786C325.438 362.704 325.883 362.582 326.238 362.419C326.609 362.259 326.827 361.998 326.893 361.636L327.185 360.03C327.289 359.463 327.276 358.998 327.147 358.633C327.037 358.255 326.838 357.966 326.549 357.767C326.275 357.571 325.926 357.434 325.501 357.357C325.139 357.291 324.743 357.276 324.314 357.311C323.888 357.331 323.529 357.469 323.239 357.725C323.568 357.883 323.817 358.123 323.985 358.447C324.173 358.758 324.229 359.117 324.155 359.527C324.074 359.968 323.862 360.287 323.517 360.484C323.187 360.684 322.802 360.744 322.362 360.664C321.874 360.575 321.539 360.359 321.357 360.017C321.179 359.66 321.126 359.276 321.201 358.867C321.278 358.442 321.444 358.114 321.697 357.884C321.966 357.656 322.296 357.456 322.685 357.283C323.109 357.1 323.627 356.975 324.241 356.908C324.871 356.844 325.548 356.878 326.272 357.009C326.949 357.133 327.517 357.318 327.976 357.564C328.454 357.797 328.828 358.109 329.099 358.5C329.426 358.934 329.603 359.438 329.628 360.012C329.657 360.57 329.601 361.234 329.46 362.006L328.273 368.522C328.201 368.916 328.197 369.208 328.26 369.398C328.341 369.576 328.5 369.686 328.736 369.729C328.894 369.758 329.05 369.746 329.206 369.693C329.378 369.643 329.581 369.558 329.814 369.437L329.977 369.882C329.598 370.089 329.221 370.24 328.846 370.334C328.486 370.432 328.047 370.433 327.528 370.338C327.024 370.247 326.629 370.093 326.343 369.879C326.057 369.664 325.862 369.392 325.759 369.065C325.672 368.74 325.669 368.357 325.749 367.916C325.219 368.503 324.639 368.918 324.01 369.161C323.38 369.404 322.687 369.457 321.932 369.319ZM323.272 368.392C323.712 368.472 324.144 368.421 324.568 368.238C325.008 368.058 325.438 367.746 325.861 367.302L326.717 362.604C326.498 362.824 326.206 362.999 325.841 363.127C325.479 363.24 325.091 363.357 324.679 363.477C324.267 363.597 323.865 363.751 323.473 363.94C323.099 364.116 322.768 364.373 322.478 364.71C322.189 365.048 321.992 365.508 321.886 366.09C321.774 366.704 321.842 367.221 322.091 367.64C322.343 368.044 322.736 368.295 323.272 368.392ZM337.615 355.392L336.901 359.312L340.159 359.905L340.073 360.377L336.815 359.784L335.124 369.063C335.007 369.708 335.042 370.186 335.229 370.497C335.416 370.808 335.73 371.003 336.171 371.083C336.58 371.158 336.973 371.059 337.348 370.785C337.738 370.515 338.124 370.008 338.503 369.264L338.922 369.511C338.581 370.311 338.113 370.957 337.519 371.451C336.944 371.932 336.192 372.087 335.263 371.918C334.728 371.821 334.292 371.668 333.956 371.46C333.617 371.269 333.336 371.022 333.115 370.722C332.834 370.297 332.677 369.821 332.643 369.294C332.609 368.767 332.667 368.087 332.819 367.253L334.265 359.319L332.092 358.924L332.178 358.451L334.351 358.847L334.979 355.4C335.469 355.473 335.933 355.517 336.37 355.531C336.809 355.53 337.224 355.483 337.615 355.392ZM352.218 361.809L350.416 371.702C350.287 372.411 350.309 372.959 350.482 373.349C350.673 373.725 351.092 373.972 351.737 374.09L351.647 374.586C351.168 374.449 350.684 374.337 350.196 374.248C349.677 374.153 349.176 374.087 348.696 374.048C348.215 374.009 347.766 374.017 347.35 374.071L347.819 371.497C347.253 372.37 346.579 372.947 345.796 373.227C345.032 373.494 344.264 373.558 343.492 373.417C342.91 373.311 342.43 373.134 342.052 372.887C341.672 372.655 341.372 372.38 341.153 372.064C340.927 371.698 340.803 371.26 340.782 370.752C340.764 370.229 340.823 369.589 340.961 368.833L342.045 362.883C342.174 362.175 342.15 361.634 341.974 361.26C341.801 360.871 341.384 360.616 340.723 360.496L340.814 360C341.309 360.139 341.792 360.251 342.265 360.337C342.784 360.432 343.284 360.499 343.765 360.538C344.249 360.561 344.697 360.553 345.111 360.514L343.391 369.959C343.307 370.415 343.263 370.838 343.257 371.228C343.251 371.617 343.346 371.943 343.542 372.207C343.738 372.47 344.096 372.649 344.615 372.744C345.166 372.844 345.684 372.768 346.17 372.514C346.671 372.264 347.099 371.879 347.454 371.358C347.809 370.837 348.051 370.222 348.18 369.514L349.152 364.178C349.281 363.47 349.257 362.929 349.082 362.555C348.909 362.166 348.491 361.911 347.83 361.79L347.921 361.295C348.416 361.434 348.899 361.546 349.372 361.632C349.891 361.727 350.391 361.793 350.872 361.832C351.356 361.855 351.804 361.848 352.218 361.809ZM361.875 359.153C362.234 359.234 362.695 359.335 363.259 359.454C363.839 359.575 364.412 359.688 364.978 359.791C365.734 359.929 366.452 360.051 367.131 360.159C367.827 360.269 368.316 360.35 368.6 360.402C370.363 360.723 371.614 361.309 372.353 362.159C373.109 363.012 373.387 363.982 373.19 365.068C373.089 365.619 372.855 366.146 372.487 366.648C372.138 367.137 371.632 367.549 370.969 367.884C370.309 368.203 369.476 368.401 368.47 368.478L368.462 368.525C369.758 368.907 370.745 369.38 371.424 369.943C372.102 370.505 372.544 371.114 372.75 371.77C372.958 372.41 373.004 373.052 372.886 373.697C372.717 374.626 372.333 375.394 371.735 376C371.139 376.591 370.359 376.994 369.393 377.208C368.442 377.425 367.345 377.421 366.102 377.194C365.755 377.131 365.23 377.027 364.524 376.882C363.837 376.725 362.998 376.556 362.006 376.375C361.408 376.266 360.816 376.166 360.231 376.076C359.664 375.973 359.197 375.904 358.829 375.869L358.915 375.397C359.456 375.463 359.869 375.473 360.154 375.428C360.439 375.382 360.646 375.225 360.777 374.956C360.923 374.69 361.047 374.273 361.151 373.706L363.284 361.995C363.39 361.413 363.42 360.979 363.375 360.694C363.347 360.397 363.201 360.175 362.935 360.029C362.687 359.87 362.305 359.735 361.789 359.625L361.875 359.153ZM368.022 360.76C367.345 360.637 366.872 360.689 366.603 360.917C366.35 361.147 366.148 361.671 365.999 362.49L363.866 374.201C363.766 374.752 363.737 375.178 363.78 375.478C363.823 375.779 363.953 375.998 364.172 376.135C364.407 376.276 364.76 376.389 365.233 376.475C366.649 376.733 367.737 376.565 368.496 375.971C369.273 375.365 369.782 374.401 370.023 373.078C370.244 371.866 370.092 370.871 369.567 370.092C369.057 369.316 368.071 368.795 366.607 368.528L364.317 368.111C364.317 368.111 364.328 368.048 364.351 367.922C364.377 367.781 364.39 367.71 364.39 367.71L366.42 368.08C367.286 368.237 367.987 368.186 368.522 367.926C369.06 367.65 369.469 367.236 369.748 366.686C370.03 366.119 370.233 365.497 370.356 364.82C370.568 363.655 370.499 362.74 370.149 362.075C369.801 361.393 369.092 360.955 368.022 360.76ZM381.808 367.126C382.863 367.318 383.76 367.709 384.498 368.299C385.236 368.889 385.763 369.7 386.079 370.734C386.395 371.767 386.414 373.047 386.136 374.574C385.858 376.101 385.389 377.292 384.729 378.148C384.071 378.988 383.293 379.553 382.395 379.845C381.499 380.121 380.523 380.163 379.469 379.971C378.43 379.781 377.532 379.398 376.775 378.821C376.021 378.229 375.485 377.423 375.166 376.406C374.866 375.375 374.855 374.097 375.133 372.57C375.411 371.043 375.872 369.85 376.516 368.992C377.176 368.136 377.964 367.564 378.878 367.275C379.793 366.987 380.77 366.937 381.808 367.126ZM381.722 367.598C380.904 367.449 380.149 367.8 379.457 368.649C378.769 369.483 378.232 370.955 377.848 373.064C377.464 375.174 377.447 376.74 377.797 377.763C378.15 378.771 378.736 379.349 379.555 379.498C380.358 379.645 381.102 379.309 381.788 378.49C382.492 377.659 383.036 376.189 383.42 374.08C383.805 371.97 383.814 370.402 383.448 369.376C383.1 368.337 382.525 367.745 381.722 367.598ZM390.33 386.194C389.449 386.033 388.646 385.798 387.922 385.487C387.214 385.179 386.664 384.802 386.274 384.357C385.896 383.931 385.758 383.442 385.858 382.891C385.952 382.372 386.256 381.955 386.768 381.642C387.281 381.329 387.957 381.143 388.797 381.084L388.894 381.492C388.537 381.574 388.236 381.755 387.99 382.035C387.759 382.318 387.61 382.649 387.541 383.027C387.415 383.719 387.64 384.313 388.216 384.809C388.793 385.304 389.609 385.648 390.663 385.84C391.372 385.969 392.058 385.996 392.722 385.922C393.399 385.867 393.971 385.67 394.439 385.332C394.923 384.998 395.224 384.508 395.341 383.862C395.433 383.359 395.329 382.901 395.031 382.488C394.729 382.092 394.043 381.796 392.972 381.601L391.319 381.3C390.768 381.2 390.265 381.059 389.81 380.879C389.355 380.698 389.003 380.447 388.752 380.125C388.521 379.79 388.451 379.371 388.542 378.867C388.646 378.3 388.979 377.808 389.543 377.39C390.107 376.973 390.993 376.622 392.199 376.337L392.444 376.601C391.941 376.77 391.485 376.955 391.074 377.157C390.682 377.346 390.451 377.629 390.382 378.007C390.291 378.51 390.607 378.828 391.331 378.96L394.141 379.472C394.881 379.607 395.531 379.831 396.092 380.145C396.655 380.442 397.08 380.837 397.364 381.328C397.649 381.819 397.728 382.41 397.602 383.103C397.467 383.843 397.097 384.491 396.492 385.048C395.899 385.623 395.087 386.02 394.055 386.238C393.02 386.472 391.779 386.458 390.33 386.194ZM392.197 376.752C391.394 376.605 390.685 376.346 390.07 375.974C389.457 375.586 389.012 375.082 388.735 374.462C388.458 373.842 388.398 373.1 388.555 372.234C388.713 371.368 389.031 370.694 389.509 370.212C389.99 369.714 390.584 369.4 391.291 369.268C392.001 369.121 392.757 369.121 393.56 369.267C394.394 369.419 395.11 369.687 395.707 370.072C396.306 370.442 396.743 370.944 397.018 371.58C397.295 372.2 397.355 372.942 397.197 373.808C397.039 374.674 396.722 375.348 396.243 375.83C395.765 376.312 395.179 376.628 394.485 376.778C393.794 376.912 393.031 376.904 392.197 376.752ZM392.274 376.327C392.825 376.427 393.293 376.268 393.678 375.85C394.063 375.433 394.371 374.594 394.6 373.335C394.829 372.076 394.837 371.183 394.624 370.656C394.414 370.114 394.034 369.792 393.483 369.692C392.963 369.597 392.502 369.765 392.098 370.196C391.697 370.611 391.382 371.448 391.153 372.707C390.923 373.966 390.923 374.861 391.152 375.39C391.381 375.92 391.755 376.232 392.274 376.327ZM396.693 371.887L396.298 371.644C396.619 371.133 397.084 370.722 397.694 370.41C398.304 370.098 398.9 369.996 399.482 370.102C399.923 370.182 400.247 370.371 400.453 370.669C400.677 370.953 400.749 371.316 400.669 371.757C400.58 372.245 400.383 372.567 400.078 372.723C399.789 372.882 399.503 372.935 399.22 372.884C398.968 372.838 398.747 372.708 398.559 372.495C398.386 372.284 398.316 371.995 398.351 371.627C398.388 371.244 398.594 370.785 398.967 370.252L399.21 370.393C398.534 370.531 398.021 370.714 397.67 370.942C397.338 371.158 397.013 371.473 396.693 371.887ZM402.427 383.982C401.766 383.862 401.223 383.633 400.796 383.295C400.37 382.957 400.079 382.546 399.923 382.062C399.767 381.578 399.741 381.053 399.844 380.487C399.97 379.794 400.229 379.264 400.622 378.896C401.017 378.513 401.483 378.232 402.019 378.053C402.572 377.877 403.139 377.753 403.722 377.68C404.323 377.594 404.882 377.517 405.398 377.449C405.934 377.367 406.379 377.245 406.734 377.082C407.104 376.922 407.323 376.661 407.389 376.299L407.681 374.693C407.784 374.127 407.772 373.661 407.643 373.296C407.533 372.918 407.333 372.629 407.044 372.43C406.771 372.234 406.422 372.098 405.997 372.02C405.635 371.954 405.239 371.939 404.81 371.975C404.383 371.995 404.025 372.133 403.734 372.389C404.063 372.546 404.312 372.787 404.481 373.11C404.668 373.421 404.725 373.781 404.65 374.19C404.57 374.631 404.357 374.95 404.012 375.147C403.683 375.347 403.298 375.407 402.857 375.327C402.369 375.238 402.035 375.023 401.853 374.681C401.674 374.323 401.622 373.939 401.697 373.53C401.774 373.105 401.94 372.777 402.193 372.547C402.462 372.319 402.791 372.119 403.181 371.946C403.604 371.763 404.123 371.638 404.737 371.571C405.367 371.507 406.044 371.541 406.768 371.673C407.445 371.796 408.013 371.981 408.472 372.227C408.95 372.46 409.324 372.773 409.594 373.163C409.922 373.597 410.098 374.101 410.124 374.675C410.152 375.233 410.096 375.898 409.956 376.669L408.769 383.186C408.697 383.579 408.693 383.871 408.756 384.061C408.837 384.239 408.996 384.349 409.232 384.392C409.389 384.421 409.546 384.409 409.702 384.356C409.874 384.306 410.076 384.221 410.31 384.101L410.473 384.545C410.093 384.752 409.716 384.903 409.341 384.998C408.982 385.095 408.543 385.096 408.023 385.001C407.52 384.91 407.125 384.756 406.839 384.542C406.552 384.327 406.358 384.056 406.255 383.728C406.168 383.403 406.164 383.02 406.245 382.579C405.715 383.166 405.135 383.581 404.505 383.824C403.876 384.067 403.183 384.12 402.427 383.982ZM403.767 383.055C404.208 383.135 404.64 383.084 405.064 382.901C405.503 382.721 405.934 382.409 406.356 381.966L407.212 377.267C406.993 377.487 406.701 377.662 406.336 377.79C405.974 377.903 405.587 378.02 405.175 378.14C404.763 378.26 404.36 378.414 403.968 378.603C403.595 378.779 403.263 379.036 402.974 379.373C402.685 379.711 402.487 380.171 402.381 380.754C402.269 381.367 402.338 381.884 402.587 382.303C402.839 382.707 403.232 382.958 403.767 383.055Z" fill="#37322B"/>
<rect x="112.683" y="214.184" width="180.208" height="194.008" rx="10.492" transform="rotate(-10 112.683 214.184)" fill="white" stroke="#8ECEA3" stroke-width="4"/>
<rect x="124.98" y="222.795" width="157.917" height="137.749" rx="10.492" transform="rotate(-10 124.98 222.795)" fill="#ECF6EF" stroke="#ECF6EF" stroke-width="4"/>
<path d="M257.552 253.781C247.507 254.116 231.771 278.116 231.771 278.116C231.771 278.116 232.501 287.63 240.36 284.233C248.218 280.836 264.15 295.26 266.82 280.373C269.49 265.486 297.233 254.413 292.74 248.448C288.247 242.483 268.913 260.729 271.356 251.352C273.8 241.975 269.219 253.373 257.552 253.781Z" fill="#628E30"/>
<path d="M246.922 278.801C236.871 279.131 221.131 303.137 221.131 303.137C221.131 303.137 221.866 312.645 229.719 309.253C237.573 305.862 253.51 320.281 256.185 305.388C258.859 290.496 286.592 279.434 282.105 273.464C277.617 267.494 258.273 285.749 260.721 276.377C263.17 267.005 258.569 278.404 246.922 278.801Z" fill="#2A635C"/>
<path d="M236.316 246.874C226.271 247.209 210.53 271.214 210.53 271.214C210.53 271.214 211.265 280.722 219.119 277.331C226.973 273.939 242.91 288.358 245.584 273.466C248.259 258.574 275.992 247.511 271.504 241.541C267.016 235.571 247.672 253.827 250.116 244.45C252.559 235.073 247.954 246.497 236.316 246.874Z" fill="#2A635C"/>
<path d="M169.101 299.398C176.804 308.497 203.658 309.579 203.658 309.579C203.658 309.579 209.101 303.581 201.12 298.217C193.138 292.853 190.306 270.052 178.938 275.903C167.571 281.754 139.909 262.391 139.527 269.858C139.144 277.326 165.044 284.993 157.292 287.968C149.539 290.943 160.171 288.861 169.101 299.398Z" fill="#2A635C"/>
<path d="M186.201 295.145C193.88 304.268 220.758 305.325 220.758 305.325C220.758 305.325 226.201 299.328 218.22 293.963C210.238 288.599 207.406 265.798 196.049 271.668C184.692 277.539 157.004 258.122 156.622 265.609C156.24 273.097 182.14 280.744 174.387 283.719C166.635 286.694 177.271 284.607 186.201 295.145Z" fill="#2A635C"/>
<path d="M156.519 309.437C164.226 318.53 191.076 319.618 191.076 319.618C191.076 319.618 196.518 313.62 188.537 308.256C180.556 302.892 177.723 280.091 166.362 285.966C155 291.842 127.331 272.424 126.915 279.908C126.498 287.391 152.432 295.043 144.68 298.018C136.927 300.993 147.593 298.895 156.519 309.437Z" fill="#2A635C"/>
<path d="M190.384 290.871C198.092 299.974 224.941 301.052 224.941 301.052C224.941 301.052 230.384 295.054 222.407 289.694C214.431 284.335 211.594 261.529 200.227 267.41C188.861 273.291 161.192 253.863 160.8 261.351C160.409 268.838 186.313 276.481 178.565 279.461C170.818 282.44 181.454 280.333 190.384 290.871Z" fill="#2A635C"/>
<path d="M220.667 307.151C228.37 316.249 255.224 317.332 255.224 317.332C255.224 317.332 260.662 311.329 252.686 305.97C244.709 300.611 241.851 277.785 230.516 283.695C219.18 289.605 191.49 270.148 191.089 277.636C190.687 285.124 216.601 292.766 208.854 295.746C201.106 298.726 211.742 296.608 220.667 307.151Z" fill="#2A635C"/>
<path d="M198.813 284.014C206.492 293.138 233.37 294.195 233.37 294.195C233.37 294.195 238.813 288.197 230.837 282.838C222.861 277.479 220.023 254.672 208.657 260.553C197.29 266.434 169.626 247.001 169.23 254.494C168.833 261.987 194.742 269.624 186.995 272.604C179.247 275.584 189.893 273.486 198.813 284.014Z" fill="#2A635C"/>
<path d="M223.876 266.918C218.249 255.915 191.755 246.031 191.755 246.031C191.755 246.031 184.985 249.801 191.703 257.407C198.421 265.013 196.135 287.188 208.782 285.469C221.428 283.75 244.6 310.968 246.692 304.137C248.784 297.306 224.713 281.617 233.063 281.401C241.413 281.186 230.412 279.689 223.876 266.918Z" fill="#628E31"/>
<path d="M150.717 238.064C149.855 235.754 154.278 234.837 156.597 234.667C159.577 234.163 163.035 238.527 162.929 239.769C162.823 241.01 157.847 242.424 155.461 242.809C153.074 243.193 151.794 240.951 150.717 238.064Z" fill="#C9A053"/>
<ellipse cx="153.703" cy="237.829" rx="0.604367" ry="0.302184" transform="rotate(-9.15562 153.703 237.829)" fill="#9E772C"/>
<ellipse cx="156.282" cy="238.637" rx="0.604367" ry="0.302184" transform="rotate(-9.15562 156.282 238.637)" fill="#9E772C"/>
<ellipse cx="157.88" cy="237.156" rx="0.604367" ry="0.302184" transform="rotate(-9.15562 157.88 237.156)" fill="#9E772C"/>
<ellipse cx="159.362" cy="238.753" rx="0.604367" ry="0.302184" transform="rotate(-9.15562 159.362 238.753)" fill="#9E772C"/>
<path d="M205.779 273.769C202.594 282.711 214.515 304.407 214.515 304.407C214.515 304.407 221.605 306.872 221.846 298.876C222.087 290.88 237.877 281.559 228.062 274.342C218.247 267.125 219.716 239.119 213.87 241.102C208.024 243.084 214.595 266.058 208.691 260.856C202.788 255.653 209.461 263.41 205.779 273.769Z" fill="#2A635C"/>
<path d="M212.8 253.84C203.661 257.841 195.204 287.378 195.204 287.378C195.204 287.378 198.214 296.518 204.607 290.301C210.999 284.083 229.18 292.528 227.906 276.782C226.631 261.037 249.352 239.943 243.753 235.662C238.153 231.381 224.946 256.545 224.857 246.358C224.768 236.172 223.38 249.21 212.8 253.84Z" fill="#2A635C"/>
<path d="M223.909 295.492C231.617 304.585 258.466 305.673 258.466 305.673C258.466 305.673 263.914 299.67 255.927 294.311C247.941 288.952 245.118 266.141 233.752 272.021C222.386 277.902 194.722 258.479 194.325 265.962C193.928 273.445 219.843 281.097 212.09 284.072C204.338 287.047 214.984 284.95 223.909 295.492Z" fill="#2A635C"/>
<path d="M199.475 267.439C184.619 270.166 174.152 279.514 176.099 288.305C178.047 297.097 191.669 302.004 206.531 299.272C221.392 296.54 231.854 287.197 229.912 278.411C227.969 269.624 214.351 264.691 199.475 267.439ZM206.121 297.403C192.999 299.815 180.975 295.478 179.279 287.694C177.583 279.911 186.801 271.689 199.894 269.308C212.988 266.927 225.036 271.228 226.732 279.012C228.428 286.795 219.234 294.991 206.121 297.403V297.403Z" fill="#E7EEDF"/>
<path d="M248.393 253.161C239.627 256.846 234.121 264.136 236.096 269.441C238.07 274.745 246.763 276.057 255.54 272.382C264.316 268.706 269.812 261.407 267.837 256.102C265.862 250.798 257.164 249.471 248.393 253.161ZM255.109 271.245C247.376 274.499 239.689 273.338 237.939 268.669C236.189 263.999 241.065 257.557 248.798 254.303C256.532 251.05 264.213 252.206 265.963 256.875C267.713 261.544 262.848 267.987 255.114 271.24L255.109 271.245Z" fill="#E7EEDF"/>
<path d="M207.455 272.631C205.34 267.869 196.42 267.208 187.531 271.152C178.643 275.097 173.151 282.154 175.266 286.916C177.38 291.677 186.3 292.338 195.189 288.394C204.078 284.449 209.57 277.392 207.455 272.631Z" fill="#D75527"/>
<path d="M204.951 273.742C203.166 269.723 195.634 269.166 188.129 272.497C180.623 275.828 175.985 281.786 177.77 285.804C179.555 289.823 187.086 290.38 194.592 287.049C202.098 283.718 206.735 277.76 204.951 273.742Z" fill="#B74526"/>
<path d="M192.743 274.001C193.002 273.194 192.89 272.437 192.493 272.31C192.097 272.184 191.566 272.735 191.308 273.543C191.05 274.35 191.161 275.107 191.558 275.234C191.954 275.36 192.485 274.809 192.743 274.001Z" fill="#C28960"/>
<path d="M184.758 279.224C184.851 278.771 184.316 278.28 183.565 278.127C182.814 277.975 182.131 278.219 182.039 278.673C181.947 279.126 182.481 279.617 183.232 279.769C183.983 279.922 184.666 279.677 184.758 279.224Z" fill="#C28960"/>
<path d="M166.33 242.288C166.262 240.629 169.283 240.968 170.803 241.344C172.814 241.645 174.114 245.16 173.787 245.933C173.459 246.705 169.98 246.569 168.373 246.316C166.765 246.063 166.415 244.36 166.33 242.288Z" fill="#C9A053"/>
<ellipse cx="168.29" cy="242.762" rx="0.406814" ry="0.203407" transform="rotate(8.94695 168.29 242.762)" fill="#9E772C"/>
<ellipse cx="169.771" cy="243.819" rx="0.406814" ry="0.203407" transform="rotate(8.94695 169.771 243.819)" fill="#9E772C"/>
<ellipse cx="171.103" cy="243.205" rx="0.406814" ry="0.203407" transform="rotate(8.94695 171.103 243.205)" fill="#9E772C"/>
<ellipse cx="171.717" cy="244.537" rx="0.406814" ry="0.203407" transform="rotate(8.94695 171.717 244.537)" fill="#9E772C"/>
<path d="M174.63 238.851C173.202 238.005 175.133 235.656 176.277 234.587C177.625 233.064 181.281 233.89 181.75 234.586C182.219 235.281 180.209 238.124 179.12 239.334C178.032 240.544 176.414 239.909 174.63 238.851Z" fill="#C9A053"/>
<ellipse cx="176.096" cy="237.466" rx="0.406814" ry="0.203407" transform="rotate(-48.0308 176.096 237.466)" fill="#9E772C"/>
<ellipse cx="177.789" cy="236.801" rx="0.406814" ry="0.203407" transform="rotate(-48.0308 177.789 236.801)" fill="#9E772C"/>
<ellipse cx="178" cy="235.349" rx="0.406814" ry="0.203407" transform="rotate(-48.0308 178 235.349)" fill="#9E772C"/>
<ellipse cx="179.451" cy="235.56" rx="0.406814" ry="0.203407" transform="rotate(-48.0308 179.451 235.56)" fill="#9E772C"/>
<path d="M191.451 234.863C189.864 234.379 191.183 231.64 192.041 230.33C192.99 228.531 196.737 228.467 197.358 229.032C197.978 229.596 196.699 232.835 195.928 234.268C195.158 235.701 193.435 235.468 191.451 234.863Z" fill="#C9A053"/>
<ellipse cx="192.547" cy="233.17" rx="0.406814" ry="0.203407" transform="rotate(-61.7357 192.547 233.17)" fill="#9E772C"/>
<ellipse cx="194.034" cy="232.122" rx="0.406814" ry="0.203407" transform="rotate(-61.7357 194.034 232.122)" fill="#9E772C"/>
<ellipse cx="193.896" cy="230.662" rx="0.406814" ry="0.203407" transform="rotate(-61.7357 193.896 230.662)" fill="#9E772C"/>
<ellipse cx="195.356" cy="230.524" rx="0.406814" ry="0.203407" transform="rotate(-61.7357 195.356 230.524)" fill="#9E772C"/>
<path d="M183.192 281.801C182.992 281.366 182.283 281.266 181.608 281.576C180.933 281.886 180.548 282.49 180.748 282.924C180.948 283.359 181.657 283.459 182.332 283.149C183.007 282.839 183.392 282.235 183.192 281.801Z" fill="#C28960"/>
<path d="M187.522 275.44C186.95 274.773 186.239 274.444 185.935 274.705C185.631 274.966 185.849 275.717 186.421 276.384C186.993 277.051 187.704 277.38 188.008 277.119C188.312 276.859 188.095 276.107 187.522 275.44Z" fill="#C28960"/>
<path d="M190.995 284.682C191.254 283.875 191.142 283.118 190.745 282.991C190.349 282.864 189.818 283.416 189.56 284.223C189.301 285.031 189.413 285.788 189.81 285.914C190.206 286.041 190.737 285.489 190.995 284.682Z" fill="#C28960"/>
<path d="M195.755 282.471C195.269 281.706 194.609 281.256 194.28 281.464C193.952 281.673 194.08 282.462 194.566 283.226C195.052 283.991 195.712 284.441 196.04 284.233C196.369 284.024 196.241 283.236 195.755 282.471Z" fill="#C28960"/>
<path d="M201.786 274.26C201.539 273.855 200.822 273.842 200.184 274.23C199.546 274.618 199.228 275.261 199.475 275.666C199.722 276.071 200.439 276.085 201.077 275.697C201.715 275.309 202.032 274.666 201.786 274.26Z" fill="#C28960"/>
<path d="M197.39 272.32C197.077 271.98 196.368 272.121 195.806 272.637C195.244 273.152 195.043 273.846 195.356 274.187C195.669 274.527 196.378 274.386 196.94 273.87C197.501 273.355 197.703 272.661 197.39 272.32Z" fill="#C28960"/>
<path d="M199.091 280.713C199.107 280.243 198.511 279.842 197.761 279.817C197.01 279.793 196.389 280.154 196.374 280.624C196.359 281.094 196.954 281.495 197.705 281.52C198.455 281.544 199.076 281.183 199.091 280.713Z" fill="#C28960"/>
<path d="M201.346 277.539C201.278 277.065 200.627 276.767 199.891 276.872C199.156 276.977 198.614 277.446 198.682 277.919C198.75 278.392 199.401 278.691 200.136 278.586C200.872 278.481 201.413 278.012 201.346 277.539Z" fill="#C28960"/>
<path d="M186.326 283.426C186.03 283.065 185.314 283.163 184.728 283.645C184.142 284.126 183.907 284.808 184.203 285.169C184.5 285.529 185.215 285.431 185.801 284.95C186.387 284.468 186.622 283.786 186.326 283.426Z" fill="#C28960"/>
<path d="M231.981 269.005C229.856 265.885 223.284 266.655 217.303 270.726C211.322 274.796 208.196 280.625 210.322 283.745C212.447 286.865 219.019 286.095 225 282.024C230.981 277.954 234.107 272.125 231.981 269.005Z" fill="#D75527"/>
<path d="M230.293 270.154C228.498 267.519 222.95 268.169 217.901 271.604C212.853 275.04 210.215 279.961 212.01 282.596C213.805 285.231 219.353 284.582 224.401 281.146C229.45 277.71 232.088 272.789 230.293 270.154Z" fill="#B74526"/>
<path d="M221.69 271.962C221.816 271.337 221.681 270.783 221.387 270.723C221.094 270.664 220.753 271.122 220.627 271.747C220.5 272.372 220.635 272.927 220.929 272.986C221.222 273.046 221.563 272.587 221.69 271.962Z" fill="#C28960"/>
<path d="M216.373 276.707C216.38 276.361 215.942 276.072 215.393 276.06C214.845 276.049 214.394 276.32 214.387 276.666C214.38 277.012 214.819 277.302 215.367 277.313C215.915 277.324 216.366 277.053 216.373 276.707Z" fill="#C28960"/>
<path d="M215.433 278.786C215.231 278.505 214.703 278.54 214.255 278.863C213.807 279.186 213.608 279.675 213.811 279.956C214.013 280.236 214.541 280.202 214.989 279.879C215.437 279.556 215.636 279.067 215.433 278.786Z" fill="#C28960"/>
<path d="M218.074 273.623C217.615 273.192 217.075 273.02 216.867 273.241C216.659 273.462 216.862 273.991 217.321 274.423C217.779 274.854 218.32 275.026 218.528 274.805C218.736 274.584 218.533 274.055 218.074 273.623Z" fill="#C28960"/>
<path d="M221.274 280.062C221.401 279.437 221.266 278.882 220.972 278.823C220.679 278.763 220.338 279.222 220.211 279.847C220.085 280.472 220.22 281.026 220.514 281.086C220.807 281.145 221.148 280.687 221.274 280.062Z" fill="#C28960"/>
<path d="M224.535 277.884C224.132 277.37 223.619 277.099 223.389 277.278C223.16 277.458 223.3 278.021 223.703 278.535C224.105 279.049 224.618 279.32 224.848 279.141C225.078 278.961 224.937 278.398 224.535 277.884Z" fill="#C28960"/>
<path d="M228.175 271.069C227.947 270.814 227.423 270.91 227.006 271.283C226.588 271.656 226.435 272.166 226.663 272.421C226.892 272.676 227.415 272.58 227.832 272.206C228.25 271.833 228.403 271.324 228.175 271.069Z" fill="#C28960"/>
<path d="M224.689 271.347C225.045 270.895 225.123 270.363 224.863 270.158C224.603 269.954 224.104 270.155 223.748 270.607C223.392 271.059 223.314 271.591 223.573 271.796C223.833 272 224.333 271.799 224.689 271.347Z" fill="#C28960"/>
<path d="M226.767 276.142C226.71 275.797 226.228 275.589 225.691 275.677C225.153 275.766 224.764 276.118 224.821 276.463C224.878 276.808 225.36 277.016 225.897 276.927C226.434 276.839 226.824 276.487 226.767 276.142Z" fill="#C28960"/>
<path d="M228.128 273.534C228.01 273.205 227.498 273.088 226.986 273.273C226.474 273.458 226.154 273.874 226.273 274.203C226.392 274.532 226.903 274.649 227.416 274.465C227.928 274.28 228.247 273.864 228.128 273.534Z" fill="#C28960"/>
<path d="M217.595 280.807C217.97 280.376 218.07 279.848 217.817 279.629C217.565 279.41 217.056 279.582 216.681 280.013C216.306 280.445 216.207 280.972 216.459 281.191C216.712 281.411 217.22 281.238 217.595 280.807Z" fill="#C28960"/>
<path d="M268.253 278.669C271.062 273.371 264.627 264.464 253.879 258.772C243.132 253.081 232.142 252.762 229.333 258.059C226.523 263.356 232.959 272.264 243.706 277.955C254.454 283.647 265.444 283.966 268.253 278.669Z" fill="#D75527"/>
<path d="M265.222 277.064C267.594 272.591 262.161 265.07 253.087 260.265C244.013 255.461 234.735 255.191 232.363 259.664C229.991 264.137 235.424 271.658 244.497 276.463C253.571 281.268 262.85 281.537 265.222 277.064Z" fill="#B74526"/>
<path d="M253.586 262.139C253.185 261.704 252.348 261.824 251.715 262.406C251.083 262.987 250.894 263.811 251.295 264.246C251.695 264.681 252.532 264.562 253.165 263.98C253.798 263.398 253.986 262.574 253.586 262.139Z" fill="#C28960"/>
<path d="M241.666 259.823C240.993 258.973 240.147 258.52 239.778 258.812C239.409 259.104 239.656 260.03 240.33 260.881C241.003 261.731 241.848 262.184 242.218 261.892C242.587 261.6 242.34 260.674 241.666 259.823Z" fill="#C28960"/>
<path d="M239.297 263.241C239.582 262.777 239.167 262.003 238.369 261.512C237.571 261.021 236.692 260.998 236.406 261.462C236.121 261.925 236.536 262.699 237.334 263.19C238.133 263.682 239.011 263.704 239.297 263.241Z" fill="#C28960"/>
<path d="M246.922 260.471C246.609 259.312 246.024 258.461 245.614 258.571C245.205 258.682 245.127 259.711 245.44 260.871C245.752 262.031 246.338 262.882 246.747 262.771C247.157 262.661 247.235 261.631 246.922 260.471Z" fill="#C28960"/>
<path d="M246.536 270.841C246.135 270.407 245.298 270.526 244.665 271.108C244.033 271.689 243.844 272.514 244.245 272.948C244.645 273.383 245.482 273.264 246.115 272.682C246.748 272.1 246.936 271.276 246.536 270.841Z" fill="#C28960"/>
<path d="M251.98 274.649C251.794 273.47 251.301 272.568 250.879 272.635C250.456 272.701 250.263 273.711 250.449 274.89C250.634 276.069 251.127 276.971 251.55 276.904C251.972 276.838 252.165 275.828 251.98 274.649Z" fill="#C28960"/>
<path d="M262.198 272.863C262.45 272.363 261.996 271.625 261.184 271.215C260.371 270.805 259.508 270.878 259.255 271.378C259.003 271.878 259.457 272.615 260.269 273.025C261.082 273.435 261.945 273.362 262.198 272.863Z" fill="#C28960"/>
<path d="M258.657 267.041C258.817 266.477 258.274 265.828 257.444 265.591C256.613 265.355 255.809 265.622 255.649 266.186C255.488 266.751 256.031 267.4 256.861 267.636C257.692 267.872 258.496 267.606 258.657 267.041Z" fill="#C28960"/>
<path d="M255.568 274.419C254.85 273.659 253.98 273.314 253.627 273.648C253.274 273.981 253.57 274.868 254.289 275.628C255.007 276.388 255.877 276.733 256.23 276.399C256.583 276.066 256.287 275.179 255.568 274.419Z" fill="#C28960"/>
<path d="M260.095 275.446C260.429 275.067 260.09 274.222 259.337 273.559C258.584 272.896 257.702 272.666 257.368 273.045C257.034 273.424 257.373 274.269 258.126 274.932C258.879 275.595 259.76 275.825 260.095 275.446Z" fill="#C28960"/>
<path d="M241.793 267.715C241.985 267.169 241.47 266.489 240.641 266.197C239.811 265.905 238.983 266.112 238.79 266.658C238.598 267.204 239.113 267.884 239.942 268.176C240.772 268.468 241.6 268.262 241.793 267.715Z" fill="#C28960"/>
<path d="M200.845 287.972C189.335 292.812 182.104 302.384 184.67 309.332C187.236 316.281 198.704 318.041 210.188 313.177C221.671 308.314 228.928 298.766 226.362 291.817C223.796 284.869 212.378 283.107 200.845 287.972ZM209.657 311.716C199.5 315.989 189.42 314.467 187.139 308.326C184.858 302.185 191.243 293.731 201.401 289.458C211.558 285.185 221.638 286.706 223.924 292.852C226.21 298.998 219.82 307.447 209.657 311.716V311.716Z" fill="#E7EEDF"/>
<path d="M221.62 270.537C215.057 273.294 210.932 278.751 212.406 282.727C213.879 286.704 220.399 287.688 226.962 284.92C233.525 282.153 237.65 276.706 236.177 272.73C234.703 268.754 228.154 267.79 221.62 270.537ZM226.651 284.079C220.859 286.517 215.101 285.648 213.802 282.144C212.503 278.641 216.14 273.817 221.928 271.423C227.716 269.03 233.473 269.849 234.777 273.358C236.081 276.866 232.442 281.64 226.617 284.095L226.651 284.079Z" fill="#E7EEDF"/>
<path d="M169.284 273.352C162.701 276.13 158.299 280.689 159.37 283.623C160.441 286.556 166.639 286.669 173.202 283.912C179.766 281.155 184.212 276.549 183.126 273.631C182.041 270.713 175.848 270.594 169.284 273.352ZM172.973 283.292C167.176 285.726 161.711 285.614 160.78 283.014C159.85 280.415 163.746 276.385 169.538 273.946C175.329 271.508 180.804 271.619 181.759 274.193C182.714 276.766 178.765 280.853 172.973 283.292Z" fill="#E7EEDF"/>
<path d="M210.529 262.365C198.489 267.431 190.83 277.191 193.406 284.149C195.982 291.108 207.852 292.656 219.893 287.59C231.933 282.523 239.592 272.764 237.015 265.805C234.439 258.847 222.569 257.299 210.529 262.365ZM219.366 286.083C208.717 290.581 198.273 289.191 195.987 283.045C193.701 276.899 200.475 268.288 211.114 263.83C221.754 259.372 232.212 260.717 234.493 266.868C236.774 273.019 229.976 281.636 219.342 286.108L219.366 286.083Z" fill="#E7EEDF"/>
<path d="M260.371 265.492C250.722 267.916 238.948 295.339 238.948 295.339C238.948 295.339 240.996 304.755 248.084 299.73C255.173 294.704 272.595 305.873 273.071 290.33C273.547 274.787 298.699 257.862 293.543 252.81C288.387 247.758 272.305 270.131 273.335 260.182C274.365 250.234 271.537 262.686 260.371 265.492Z" fill="#2A635C"/>
<path d="M167.905 293.297C171.735 285.773 172.161 278.313 168.857 276.634C165.553 274.954 159.77 279.692 155.94 287.215C152.11 294.738 151.684 302.198 154.989 303.878C158.293 305.557 164.076 300.82 167.905 293.297Z" fill="#D75527"/>
<path d="M166.97 292.821C170.203 286.469 170.564 280.171 167.777 278.755C164.989 277.338 160.108 281.339 156.875 287.69C153.642 294.042 153.28 300.34 156.068 301.757C158.855 303.174 163.736 299.173 166.97 292.821Z" fill="#B74526"/>
<path d="M160.793 285.53C160.703 284.812 160.389 284.261 160.092 284.298C159.795 284.336 159.627 284.947 159.717 285.665C159.807 286.382 160.121 286.934 160.418 286.896C160.715 286.859 160.883 286.247 160.793 285.53Z" fill="#C28960"/>
<path d="M157.591 293.06C157.371 292.763 156.808 292.808 156.333 293.16C155.858 293.512 155.651 294.038 155.871 294.335C156.091 294.631 156.655 294.586 157.13 294.234C157.605 293.883 157.811 293.357 157.591 293.06Z" fill="#C28960"/>
<path d="M157.537 297.101C157.811 296.517 157.784 295.928 157.478 295.784C157.172 295.641 156.702 295.999 156.428 296.583C156.154 297.167 156.181 297.756 156.487 297.9C156.794 298.043 157.264 297.685 157.537 297.101Z" fill="#C28960"/>
<path d="M158.941 290.066C159.056 289.731 158.678 289.299 158.096 289.1C157.515 288.901 156.95 289.011 156.836 289.345C156.721 289.68 157.099 290.113 157.681 290.312C158.262 290.511 158.827 290.401 158.941 290.066Z" fill="#C28960"/>
<path d="M163.413 294.079C163.323 293.361 163.009 292.81 162.712 292.847C162.415 292.885 162.247 293.497 162.337 294.214C162.427 294.931 162.741 295.483 163.038 295.445C163.335 295.408 163.503 294.796 163.413 294.079Z" fill="#C28960"/>
<path d="M166.318 291.107C166.492 290.812 166.185 290.309 165.632 289.984C165.079 289.658 164.49 289.633 164.316 289.928C164.142 290.222 164.45 290.725 165.002 291.051C165.555 291.377 166.144 291.402 166.318 291.107Z" fill="#C28960"/>
<path d="M166.532 282.299C166.768 281.685 166.709 281.092 166.4 280.974C166.091 280.855 165.65 281.256 165.414 281.87C165.178 282.483 165.237 283.076 165.546 283.195C165.854 283.313 166.296 282.912 166.532 282.299Z" fill="#C28960"/>
<path d="M163.311 283.173C163.475 282.517 163.354 281.921 163.04 281.843C162.727 281.765 162.34 282.234 162.176 282.89C162.013 283.547 162.134 284.142 162.447 284.22C162.76 284.298 163.147 283.829 163.311 283.173Z" fill="#C28960"/>
<path d="M166.918 286.867C166.658 286.616 166.107 286.763 165.688 287.195C165.268 287.628 165.138 288.183 165.398 288.434C165.658 288.686 166.209 288.539 166.628 288.106C167.048 287.674 167.178 287.119 166.918 286.867Z" fill="#C28960"/>
<path d="M167.06 284.761C167.425 284.262 167.49 283.688 167.204 283.48C166.918 283.271 166.39 283.506 166.025 284.005C165.66 284.505 165.596 285.078 165.882 285.287C166.168 285.496 166.695 285.26 167.06 284.761Z" fill="#C28960"/>
<path d="M160.298 296.746C160.484 296.099 160.38 295.502 160.066 295.412C159.752 295.322 159.347 295.773 159.161 296.42C158.975 297.066 159.08 297.663 159.394 297.753C159.708 297.843 160.113 297.392 160.298 296.746Z" fill="#C28960"/>
<path d="M137.344 290.71C137.344 290.71 152.926 338.039 190.38 332.967C227.834 327.895 231.778 326.911 254.878 321.9C277.978 316.889 289.491 291.606 287.743 264.098L137.344 290.71Z" fill="#D28C3A"/>
<path d="M246.343 394.345L246.321 394.824C245.807 394.849 245.41 394.951 245.13 395.13C244.85 395.293 244.653 395.572 244.539 395.968C244.441 396.348 244.376 396.897 244.343 397.616L243.713 411.306C243.57 411.283 243.411 411.268 243.235 411.26C243.075 411.253 242.899 411.252 242.706 411.26L233.064 396.81L232.588 407.167C232.552 407.934 232.573 408.535 232.649 408.971C232.726 409.391 232.92 409.705 233.23 409.911C233.558 410.102 234.056 410.245 234.724 410.34L234.702 410.82C234.4 410.774 234.009 410.74 233.53 410.718C233.051 410.68 232.596 410.651 232.164 410.631C231.781 410.613 231.389 410.603 230.988 410.601C230.605 410.583 230.284 410.585 230.027 410.605L230.049 410.125C230.58 410.086 230.977 409.984 231.24 409.82C231.52 409.656 231.709 409.377 231.808 408.981C231.922 408.586 231.995 408.036 232.027 407.333L232.537 396.257C232.564 395.665 232.536 395.232 232.452 394.956C232.386 394.664 232.219 394.464 231.951 394.356C231.701 394.232 231.312 394.15 230.785 394.11L230.807 393.631C231.062 393.658 231.381 393.689 231.764 393.723C232.163 393.757 232.554 393.783 232.938 393.801C233.305 393.818 233.665 393.826 234.018 393.826C234.37 393.826 234.683 393.825 234.955 393.821L243.396 406.198L243.782 397.783C243.818 397 243.798 396.398 243.721 395.978C243.644 395.558 243.451 395.245 243.14 395.038C242.829 394.832 242.331 394.689 241.646 394.609L241.668 394.13C241.971 394.16 242.362 394.194 242.841 394.232C243.335 394.271 243.79 394.3 244.206 394.319C244.606 394.337 244.998 394.347 245.382 394.349C245.782 394.351 246.103 394.35 246.343 394.345ZM253.155 398.91C254.258 398.961 255.222 399.23 256.049 399.716C256.892 400.187 257.54 400.914 257.991 401.896C258.458 402.878 258.656 404.153 258.584 405.719C258.512 407.285 258.198 408.536 257.643 409.472C257.103 410.408 256.392 411.072 255.509 411.464C254.642 411.856 253.657 412.027 252.554 411.977C251.451 411.926 250.478 411.665 249.635 411.194C248.792 410.723 248.145 409.996 247.693 409.014C247.242 408.033 247.052 406.758 247.124 405.192C247.196 403.626 247.502 402.374 248.041 401.438C248.581 400.502 249.292 399.838 250.175 399.446C251.059 399.038 252.052 398.86 253.155 398.91ZM253.133 399.39C252.382 399.355 251.744 399.807 251.221 400.744C250.714 401.665 250.411 403.197 250.313 405.339C250.214 407.48 250.375 409.033 250.795 409.998C251.231 410.963 251.825 411.463 252.576 411.497C253.312 411.531 253.941 411.087 254.463 410.166C254.986 409.245 255.297 407.714 255.395 405.572C255.494 403.431 255.325 401.877 254.889 400.912C254.453 399.931 253.868 399.424 253.133 399.39ZM266.628 395.277C267.027 395.312 267.538 395.351 268.161 395.396C268.783 395.44 269.406 395.477 270.03 395.506C270.813 395.542 271.556 395.568 272.26 395.584C272.964 395.601 273.46 395.615 273.748 395.629C275.89 395.727 277.46 396.24 278.458 397.167C279.473 398.094 279.948 399.253 279.884 400.644C279.858 401.219 279.726 401.822 279.489 402.451C279.252 403.065 278.866 403.632 278.329 404.152C277.794 404.656 277.07 405.055 276.16 405.35C275.265 405.645 274.131 405.761 272.756 405.698L270.359 405.587L270.381 405.108L272.539 405.207C273.546 405.253 274.323 405.073 274.87 404.666C275.433 404.259 275.819 403.708 276.027 403.013C276.251 402.319 276.382 401.564 276.419 400.749C276.489 399.23 276.294 398.084 275.833 397.31C275.372 396.536 274.534 396.121 273.319 396.065C272.664 396.035 272.226 396.151 272.006 396.413C271.802 396.676 271.68 397.223 271.642 398.054L271.1 409.85C271.072 410.457 271.115 410.916 271.229 411.225C271.343 411.535 271.581 411.746 271.945 411.859C272.308 411.972 272.833 412.052 273.519 412.099L273.496 412.603C273.034 412.55 272.435 412.506 271.7 412.472C270.966 412.423 270.207 412.38 269.424 412.344C268.752 412.313 268.105 412.291 267.481 412.278C266.857 412.25 266.313 412.241 265.848 412.251L265.87 411.772C266.399 411.764 266.794 411.718 267.054 411.634C267.33 411.551 267.514 411.367 267.608 411.083C267.717 410.8 267.785 410.37 267.811 409.795L268.358 397.903C268.385 397.312 268.357 396.878 268.273 396.602C268.207 396.311 268.04 396.111 267.772 396.003C267.522 395.879 267.133 395.797 266.606 395.757L266.628 395.277ZM289.067 400.561C289.563 400.584 289.965 400.707 290.276 400.929C290.602 401.152 290.837 401.427 290.982 401.754C291.127 402.082 291.192 402.421 291.176 402.772C291.152 403.3 290.972 403.732 290.636 404.069C290.316 404.407 289.9 404.564 289.389 404.54C288.909 404.518 288.524 404.372 288.232 404.103C287.94 403.833 287.804 403.474 287.825 403.027C287.843 402.627 287.954 402.296 288.159 402.033C288.379 401.771 288.621 401.566 288.884 401.418C288.712 401.314 288.514 401.273 288.289 401.294C287.904 401.309 287.546 401.428 287.215 401.653C286.884 401.878 286.599 402.162 286.359 402.503C286.119 402.844 285.926 403.212 285.78 403.606C285.65 404 285.576 404.381 285.559 404.749L285.287 410.67C285.251 411.454 285.426 411.99 285.814 412.28C286.201 412.554 286.779 412.709 287.546 412.744L287.523 413.248C287.156 413.215 286.621 413.174 285.919 413.126C285.233 413.062 284.515 413.013 283.763 412.979C283.14 412.95 282.516 412.938 281.891 412.941C281.283 412.929 280.827 412.924 280.522 412.926L280.545 412.422C281.137 412.45 281.558 412.349 281.809 412.12C282.075 411.892 282.224 411.443 282.255 410.771L282.602 403.219C282.635 402.5 282.54 401.967 282.315 401.62C282.108 401.258 281.692 401.063 281.069 401.035L281.092 400.531C281.601 400.602 282.096 400.649 282.575 400.671C283.167 400.698 283.727 400.7 284.257 400.677C284.803 400.638 285.303 400.572 285.755 400.481L285.641 402.974C285.853 402.536 286.12 402.132 286.441 401.762C286.779 401.393 287.168 401.099 287.611 400.879C288.07 400.644 288.556 400.538 289.067 400.561ZM297.826 400.964C298.929 401.015 299.894 401.283 300.721 401.77C301.564 402.241 302.211 402.967 302.663 403.949C303.13 404.932 303.328 406.206 303.256 407.772C303.184 409.339 302.87 410.59 302.314 411.525C301.775 412.461 301.063 413.125 300.181 413.517C299.314 413.91 298.329 414.081 297.226 414.03C296.123 413.979 295.15 413.718 294.307 413.247C293.463 412.776 292.816 412.05 292.365 411.068C291.913 410.086 291.724 408.812 291.796 407.246C291.868 405.679 292.173 404.428 292.713 403.492C293.253 402.556 293.964 401.892 294.847 401.5C295.73 401.092 296.724 400.913 297.826 400.964ZM297.804 401.443C297.053 401.409 296.416 401.86 295.892 402.797C295.385 403.719 295.083 405.25 294.984 407.392C294.886 409.534 295.047 411.087 295.467 412.051C295.903 413.016 296.497 413.516 297.248 413.551C297.983 413.584 298.612 413.141 299.135 412.22C299.658 411.299 299.968 409.768 300.067 407.626C300.165 405.484 299.997 403.931 299.56 402.966C299.125 401.985 298.54 401.477 297.804 401.443ZM316.891 395.786L316.148 411.945C316.115 412.664 316.21 413.205 316.434 413.568C316.658 413.914 317.074 414.102 317.681 414.13L317.658 414.633C317.165 414.562 316.67 414.516 316.175 414.493C315.583 414.466 315.023 414.464 314.493 414.488C313.964 414.511 313.464 414.576 312.995 414.683L313.738 398.524C313.771 397.805 313.675 397.272 313.451 396.925C313.243 396.563 312.828 396.368 312.204 396.339L312.227 395.836C312.737 395.907 313.231 395.954 313.711 395.976C314.318 396.004 314.886 396.006 315.416 395.982C315.946 395.943 316.438 395.877 316.891 395.786ZM310.883 401.564C311.586 401.596 312.211 401.761 312.758 402.059C313.305 402.356 313.7 402.831 313.942 403.483L313.643 403.709C313.441 403.235 313.153 402.878 312.78 402.636C312.406 402.395 311.98 402.263 311.501 402.241C310.637 402.202 309.92 402.657 309.347 403.608C308.792 404.543 308.468 406.01 308.376 408.008C308.315 409.35 308.369 410.442 308.538 411.283C308.709 412.107 308.977 412.712 309.344 413.098C309.726 413.484 310.189 413.689 310.733 413.714C311.308 413.741 311.838 413.533 312.323 413.09C312.809 412.632 313.112 411.965 313.232 411.09L313.369 411.769C313.116 412.734 312.691 413.46 312.092 413.945C311.493 414.43 310.722 414.651 309.779 414.607C308.82 414.563 307.975 414.292 307.246 413.794C306.532 413.281 305.99 412.535 305.619 411.557C305.264 410.564 305.121 409.324 305.189 407.837C305.256 406.383 305.551 405.187 306.075 404.25C306.599 403.297 307.28 402.6 308.117 402.158C308.954 401.716 309.876 401.518 310.883 401.564ZM330.894 402.556L330.431 412.625C330.398 413.345 330.493 413.886 330.717 414.248C330.941 414.595 331.357 414.782 331.964 414.81L331.941 415.314C331.448 415.243 330.953 415.196 330.458 415.173C329.866 415.146 329.298 415.144 328.752 415.167C328.223 415.191 327.731 415.256 327.278 415.364L327.388 412.966C326.948 413.827 326.367 414.433 325.647 414.784C324.942 415.12 324.191 415.27 323.392 415.233C322.768 415.204 322.245 415.092 321.821 414.897C321.413 414.718 321.088 414.478 320.845 414.179C320.588 413.863 320.414 413.454 320.325 412.954C320.236 412.453 320.209 411.811 320.245 411.028L320.524 404.962C320.557 404.243 320.462 403.71 320.237 403.364C320.03 403.002 319.614 402.806 318.991 402.778L319.014 402.274C319.523 402.346 320.018 402.392 320.497 402.415C321.089 402.442 321.649 402.443 322.179 402.42C322.725 402.381 323.225 402.316 323.677 402.224L323.228 412.006C323.208 412.438 323.222 412.823 323.271 413.161C323.335 413.501 323.474 413.779 323.689 413.997C323.904 414.199 324.235 414.311 324.682 414.331C325.178 414.354 325.632 414.231 326.045 413.961C326.458 413.692 326.787 413.315 327.034 412.83C327.296 412.345 327.442 411.791 327.471 411.168L327.741 405.294C327.774 404.575 327.678 404.042 327.454 403.695C327.246 403.333 326.831 403.138 326.207 403.109L326.23 402.606C326.74 402.677 327.234 402.724 327.714 402.746C328.305 402.773 328.865 402.775 329.395 402.751C329.941 402.713 330.441 402.647 330.894 402.556ZM339.76 402.892C340.351 402.919 340.891 403.016 341.38 403.182C341.886 403.334 342.317 403.538 342.674 403.794C343.046 404.052 343.336 404.369 343.543 404.747C343.75 405.109 343.844 405.506 343.824 405.937C343.8 406.465 343.621 406.881 343.286 407.186C342.952 407.491 342.545 407.632 342.066 407.61C341.57 407.588 341.169 407.425 340.863 407.123C340.572 406.821 340.438 406.43 340.46 405.951C340.481 405.487 340.635 405.11 340.921 404.819C341.206 404.528 341.543 404.343 341.931 404.265C341.797 404.05 341.581 403.872 341.283 403.73C340.986 403.573 340.654 403.485 340.286 403.468C339.806 403.446 339.369 403.554 338.974 403.792C338.579 404.015 338.227 404.367 337.916 404.849C337.622 405.316 337.379 405.905 337.186 406.617C337.01 407.314 336.901 408.126 336.858 409.053C336.798 410.347 336.903 411.377 337.172 412.143C337.457 412.908 337.84 413.463 338.321 413.805C338.803 414.131 339.323 414.308 339.883 414.333C340.218 414.349 340.581 414.301 340.97 414.191C341.36 414.081 341.745 413.882 342.127 413.596C342.524 413.31 342.888 412.894 343.217 412.348L343.665 412.537C343.464 413.088 343.15 413.635 342.725 414.176C342.316 414.717 341.791 415.158 341.151 415.497C340.51 415.836 339.743 415.985 338.848 415.943C337.825 415.896 336.908 415.622 336.098 415.12C335.289 414.603 334.659 413.853 334.208 412.871C333.772 411.89 333.587 410.688 333.653 409.266C333.717 407.859 334.02 406.68 334.56 405.728C335.101 404.76 335.823 404.032 336.727 403.545C337.646 403.059 338.657 402.841 339.76 402.892ZM350.142 399.765L349.961 403.721L353.029 403.862L353.007 404.341L349.938 404.2L349.5 413.742C349.473 414.318 349.559 414.73 349.755 414.979C349.952 415.229 350.242 415.362 350.626 415.38C350.993 415.397 351.335 415.276 351.652 415.018C351.968 414.745 352.262 414.286 352.532 413.641L352.954 413.853C352.679 414.625 352.273 415.263 351.737 415.767C351.218 416.256 350.503 416.479 349.592 416.437C349.049 416.412 348.589 416.319 348.212 416.158C347.85 416.013 347.539 415.806 347.279 415.538C346.944 415.154 346.725 414.704 346.62 414.187C346.532 413.67 346.507 412.988 346.546 412.141L346.918 404.062L344.808 403.965L344.83 403.485L346.94 403.582L347.093 400.25C347.669 400.26 348.207 400.229 348.707 400.156C349.207 400.082 349.685 399.952 350.142 399.765Z" fill="#37322B" fill-opacity="0.33"/>
<path d="M265.319 420.492C265.847 420.516 266.299 420.609 266.676 420.77C267.07 420.917 267.405 421.108 267.683 421.345C267.914 421.548 268.094 421.797 268.225 422.091C268.372 422.386 268.437 422.709 268.421 423.061C268.401 423.492 268.232 423.853 267.914 424.143C267.613 424.433 267.238 424.568 266.791 424.548C266.311 424.526 265.918 424.371 265.611 424.085C265.32 423.783 265.186 423.385 265.209 422.889C265.227 422.506 265.346 422.183 265.566 421.921C265.803 421.643 266.124 421.458 266.529 421.364C266.486 421.25 266.386 421.149 266.23 421.062C266.074 420.975 265.86 420.925 265.588 420.913C265.269 420.898 264.986 420.949 264.74 421.066C264.511 421.183 264.319 421.351 264.165 421.568C263.992 421.832 263.862 422.227 263.774 422.751C263.686 423.276 263.617 424.073 263.568 425.144L263.492 426.799L266.057 426.916L266.035 427.396L263.47 427.278L263.037 436.7C263.001 437.483 263.184 438.02 263.587 438.311C264.007 438.587 264.577 438.741 265.296 438.774L265.273 439.277C264.874 439.243 264.315 439.201 263.597 439.152C262.879 439.087 262.112 439.036 261.297 438.999C260.722 438.972 260.146 438.962 259.569 438.967C258.993 438.957 258.56 438.953 258.272 438.956L258.295 438.452C258.887 438.479 259.308 438.379 259.558 438.15C259.825 437.922 259.974 437.472 260.005 436.801L260.449 427.139L258.723 427.06L258.745 426.58L260.471 426.66C260.514 425.717 260.598 424.936 260.723 424.317C260.848 423.682 261.017 423.145 261.229 422.706C261.458 422.268 261.756 421.882 262.124 421.546C262.475 421.21 262.928 420.942 263.482 420.744C264.051 420.546 264.664 420.462 265.319 420.492ZM272.79 426.866C273.893 426.916 274.858 427.185 275.684 427.671C276.527 428.143 277.175 428.869 277.626 429.851C278.093 430.833 278.291 432.108 278.219 433.674C278.147 435.24 277.833 436.491 277.278 437.427C276.738 438.363 276.027 439.027 275.144 439.419C274.277 439.812 273.292 439.982 272.189 439.932C271.087 439.881 270.114 439.62 269.27 439.149C268.427 438.678 267.78 437.951 267.328 436.969C266.877 435.988 266.687 434.714 266.759 433.147C266.831 431.581 267.137 430.33 267.677 429.393C268.216 428.457 268.927 427.793 269.81 427.401C270.694 426.993 271.687 426.815 272.79 426.866ZM272.768 427.345C272.017 427.311 271.379 427.762 270.856 428.699C270.349 429.62 270.046 431.152 269.948 433.294C269.849 435.436 270.01 436.989 270.43 437.953C270.867 438.918 271.46 439.418 272.211 439.452C272.947 439.486 273.576 439.042 274.099 438.122C274.621 437.201 274.932 435.669 275.031 433.527C275.129 431.386 274.96 429.832 274.524 428.867C274.089 427.886 273.503 427.379 272.768 427.345ZM291.669 427.806L291.206 437.875C291.173 438.594 291.268 439.135 291.492 439.498C291.716 439.844 292.132 440.032 292.739 440.06L292.716 440.563C292.223 440.492 291.729 440.446 291.233 440.423C290.642 440.396 290.073 440.394 289.528 440.416C288.998 440.44 288.507 440.506 288.053 440.613L288.163 438.215C287.723 439.076 287.143 439.682 286.422 440.033C285.718 440.369 284.966 440.519 284.167 440.482C283.544 440.454 283.02 440.342 282.597 440.146C282.189 439.967 281.863 439.728 281.621 439.428C281.363 439.112 281.19 438.704 281.1 438.203C281.011 437.703 280.985 437.061 281.021 436.277L281.3 430.212C281.333 429.493 281.237 428.96 281.013 428.613C280.805 428.251 280.39 428.056 279.766 428.027L279.789 427.524C280.299 427.595 280.793 427.642 281.273 427.664C281.864 427.691 282.424 427.693 282.954 427.669C283.5 427.63 284 427.565 284.453 427.474L284.003 437.255C283.983 437.687 283.998 438.072 284.046 438.411C284.111 438.75 284.25 439.029 284.464 439.247C284.679 439.449 285.01 439.56 285.458 439.581C285.953 439.603 286.407 439.48 286.82 439.211C287.233 438.942 287.563 438.564 287.809 438.079C288.072 437.595 288.217 437.041 288.246 436.417L288.516 430.544C288.549 429.824 288.453 429.291 288.229 428.945C288.022 428.583 287.606 428.388 286.983 428.359L287.006 427.855C287.515 427.927 288.009 427.974 288.489 427.996C289.08 428.023 289.641 428.025 290.171 428.001C290.717 427.962 291.216 427.897 291.669 427.806ZM303.005 428.255C303.676 428.285 304.207 428.398 304.599 428.592C305.006 428.787 305.332 429.026 305.575 429.31C305.849 429.627 306.03 430.027 306.12 430.512C306.226 430.997 306.26 431.648 306.223 432.463L305.926 438.912C305.896 439.583 305.994 440.044 306.223 440.295C306.468 440.547 306.886 440.686 307.477 440.713L307.454 441.217C307.167 441.187 306.72 441.151 306.114 441.107C305.524 441.048 304.949 441.005 304.39 440.98C303.798 440.952 303.222 440.942 302.661 440.948C302.101 440.938 301.685 440.935 301.413 440.939L301.436 440.435C301.947 440.459 302.312 440.355 302.531 440.125C302.75 439.895 302.875 439.444 302.906 438.773L303.24 431.509C303.259 431.077 303.237 430.692 303.173 430.352C303.109 429.997 302.961 429.718 302.731 429.515C302.5 429.296 302.161 429.177 301.714 429.156C301.187 429.132 300.708 429.254 300.28 429.523C299.867 429.792 299.529 430.177 299.266 430.677C299.019 431.163 298.881 431.717 298.853 432.34L298.566 438.574C298.535 439.245 298.618 439.705 298.815 439.954C299.012 440.204 299.366 440.34 299.877 440.364L299.854 440.867C299.583 440.839 299.176 440.804 298.634 440.763C298.092 440.706 297.541 440.665 296.982 440.639C296.39 440.612 295.79 440.6 295.181 440.604C294.573 440.592 294.117 440.587 293.813 440.589L293.836 440.086C294.427 440.113 294.848 440.012 295.099 439.784C295.366 439.556 295.515 439.106 295.545 438.435L295.893 430.883C295.926 430.163 295.83 429.63 295.606 429.284C295.398 428.922 294.983 428.727 294.359 428.698L294.382 428.195C294.892 428.266 295.386 428.313 295.865 428.335C296.457 428.362 297.017 428.364 297.547 428.34C298.093 428.301 298.593 428.236 299.046 428.145L298.935 430.542C299.377 429.649 299.958 429.035 300.678 428.7C301.398 428.365 302.174 428.216 303.005 428.255ZM320.746 423.016L320.003 439.175C319.97 439.894 320.065 440.435 320.289 440.797C320.513 441.144 320.929 441.331 321.536 441.359L321.513 441.863C321.02 441.792 320.525 441.745 320.03 441.723C319.438 441.695 318.878 441.694 318.348 441.717C317.819 441.741 317.319 441.806 316.85 441.913L317.592 425.754C317.626 425.035 317.53 424.502 317.306 424.155C317.098 423.793 316.683 423.598 316.059 423.569L316.082 423.066C316.592 423.137 317.086 423.184 317.565 423.206C318.173 423.234 318.741 423.236 319.271 423.212C319.801 423.172 320.293 423.107 320.746 423.016ZM314.738 428.794C315.441 428.826 316.066 428.991 316.613 429.289C317.16 429.586 317.555 430.061 317.797 430.712L317.498 430.939C317.296 430.465 317.008 430.108 316.635 429.866C316.261 429.625 315.835 429.493 315.355 429.471C314.492 429.431 313.775 429.887 313.202 430.838C312.647 431.773 312.323 433.24 312.231 435.238C312.17 436.58 312.224 437.672 312.393 438.512C312.563 439.337 312.832 439.942 313.199 440.327C313.581 440.713 314.044 440.919 314.588 440.944C315.163 440.97 315.693 440.762 316.178 440.32C316.664 439.862 316.967 439.195 317.087 438.32L317.224 438.999C316.971 439.964 316.546 440.689 315.947 441.174C315.348 441.659 314.577 441.88 313.634 441.837C312.675 441.793 311.83 441.522 311.1 441.024C310.387 440.51 309.845 439.765 309.473 438.787C309.119 437.793 308.975 436.553 309.044 435.067C309.111 433.613 309.406 432.417 309.929 431.48C310.454 430.527 311.135 429.83 311.972 429.387C312.809 428.945 313.731 428.748 314.738 428.794Z" fill="#37322B" fill-opacity="0.33"/>
<path d="M379.599 302.488L387.908 314.208C387.908 314.208 391.578 317.156 389.563 320.955C387.548 324.754 395.151 325.913 395.691 322.386C396.231 318.858 396.605 319.252 396.605 319.252C396.605 319.252 402.975 321.184 403.868 317.184C404.657 313.607 402.988 310.466 400.08 311.553C397.172 312.641 388.649 300.513 388.649 300.513L379.599 302.488Z" fill="#CEC3BC"/>
<path d="M339.218 246.566C322.375 256.189 323.902 284.816 351.28 292.25C370.723 297.53 377.702 300.8 378.498 303.154C379.294 305.508 384.487 311.11 385.831 311.303C387.174 311.496 392.609 312.312 393.606 310.144C394.603 307.976 398.225 309.879 391.453 302.553C390.809 301.837 386.731 296.335 385.124 285.918C383.518 275.5 374.385 226.476 339.218 246.566Z" fill="#AD6F36"/>
<mask id="mask0_913_418" style="mask-type:alpha" maskUnits="userSpaceOnUse" x="328" y="241" width="77" height="84">
<path d="M379.599 302.488L387.908 314.208C387.908 314.208 391.578 317.156 389.563 320.955C387.548 324.754 395.15 325.913 395.69 322.386C396.231 318.858 396.604 319.252 396.604 319.252C396.604 319.252 402.975 321.184 403.868 317.184C404.657 313.607 402.988 310.466 400.08 311.553C397.172 312.641 388.649 300.513 388.649 300.513L379.599 302.488Z" fill="#CEC3BC"/>
<path d="M339.218 246.566C322.374 256.189 323.902 284.816 351.28 292.25C370.722 297.53 377.702 300.8 378.498 303.154C379.294 305.508 384.487 311.11 385.831 311.303C387.174 311.496 392.609 312.312 393.606 310.144C394.603 307.976 398.225 309.879 391.453 302.553C390.809 301.837 386.731 296.335 385.124 285.918C383.518 275.5 374.385 226.476 339.218 246.566Z" fill="#AD6F36"/>
</mask>
<g mask="url(#mask0_913_418)">
<path d="M384.716 310.235C384.716 336.114 363.737 357.093 337.858 357.093C311.979 357.093 291 336.114 291 310.235C291 284.356 302.607 242.597 328.486 242.597C328.486 299.641 384.716 284.356 384.716 310.235Z" fill="#9F632C"/>
</g>
<path d="M174.668 367.856C175.032 367.8 175.498 367.724 176.066 367.628C176.65 367.529 177.225 367.423 177.79 367.311C178.543 367.162 179.256 367.013 179.927 366.864C180.615 366.711 181.1 366.607 181.382 366.551C182.717 366.287 183.857 366.24 184.805 366.412C185.768 366.58 186.523 366.936 187.071 367.48C187.632 368.005 187.991 368.667 188.15 369.468C188.246 369.954 188.247 370.493 188.152 371.082C188.069 371.653 187.831 372.222 187.438 372.789C187.041 373.341 186.457 373.848 185.684 374.311C184.911 374.774 183.881 375.133 182.594 375.388L180.334 375.835L180.241 375.365L182.265 374.964C183.317 374.755 184.083 374.424 184.564 373.97C185.058 373.497 185.341 372.952 185.415 372.334C185.501 371.697 185.472 371.018 185.329 370.296C185.083 369.056 184.627 368.151 183.96 367.582C183.289 366.997 182.295 366.835 180.977 367.096C180.302 367.23 179.881 367.452 179.714 367.762C179.563 368.069 179.568 368.631 179.73 369.447L182.042 381.124C182.154 381.689 182.285 382.104 182.435 382.368C182.585 382.632 182.803 382.784 183.088 382.826C183.374 382.867 183.779 382.852 184.303 382.781L184.396 383.252C184.013 383.295 183.531 383.374 182.951 383.489C182.382 383.585 181.8 383.692 181.204 383.81C180.545 383.941 179.926 384.072 179.349 384.202C178.784 384.314 178.324 384.422 177.969 384.524L177.876 384.054C178.403 383.917 178.791 383.774 179.039 383.627C179.287 383.48 179.423 383.258 179.445 382.96C179.483 382.659 179.446 382.226 179.335 381.661L177.022 369.983C176.907 369.403 176.776 368.988 176.629 368.74C176.495 368.473 176.277 368.32 175.976 368.282C175.687 368.225 175.282 368.24 174.761 368.327L174.668 367.856ZM180.302 375.426C181.109 375.299 181.76 375.211 182.256 375.161C182.748 375.096 183.163 375.047 183.499 375.013C183.834 374.979 184.148 374.958 184.44 374.949C185.648 374.873 186.566 375.017 187.193 375.382C187.835 375.745 188.355 376.392 188.752 377.325L189.816 379.609C190.091 380.256 190.335 380.706 190.547 380.957C190.776 381.205 191.055 381.297 191.385 381.232C191.633 381.166 191.823 381.055 191.955 380.898C192.1 380.723 192.243 380.499 192.385 380.226L192.765 380.42C192.501 380.978 192.197 381.421 191.854 381.75C191.509 382.063 191.006 382.285 190.347 382.416C189.672 382.549 189.057 382.492 188.502 382.243C187.96 381.975 187.489 381.367 187.089 380.419L186.152 378.158C185.877 377.511 185.605 376.961 185.336 376.509C185.064 376.041 184.743 375.696 184.373 375.476C184.019 375.253 183.552 375.198 182.971 375.313L180.428 375.817L180.302 375.426ZM196.649 380.996C195.99 381.127 195.4 381.113 194.88 380.955C194.359 380.797 193.938 380.522 193.615 380.129C193.293 379.736 193.076 379.257 192.964 378.692C192.827 378.002 192.874 377.414 193.104 376.928C193.33 376.426 193.661 375.994 194.094 375.63C194.544 375.264 195.026 374.94 195.541 374.659C196.069 374.359 196.561 374.082 197.016 373.829C197.484 373.557 197.853 373.279 198.124 372.998C198.41 372.713 198.517 372.39 198.446 372.029L198.129 370.428C198.017 369.863 197.834 369.434 197.58 369.142C197.339 368.831 197.048 368.636 196.706 368.556C196.38 368.474 196.005 368.475 195.581 368.559C195.22 368.63 194.846 368.762 194.46 368.952C194.071 369.127 193.788 369.387 193.611 369.732C193.975 369.758 194.295 369.89 194.571 370.129C194.859 370.349 195.044 370.663 195.124 371.072C195.211 371.511 195.131 371.886 194.882 372.196C194.649 372.503 194.313 372.7 193.874 372.787C193.387 372.884 192.997 372.806 192.702 372.554C192.405 372.287 192.216 371.949 192.135 371.541C192.051 371.118 192.084 370.752 192.236 370.445C192.403 370.134 192.635 369.827 192.934 369.524C193.261 369.198 193.698 368.891 194.244 368.604C194.806 368.313 195.449 368.096 196.171 367.953C196.845 367.819 197.442 367.783 197.959 367.843C198.49 367.885 198.952 368.038 199.347 368.303C199.811 368.586 200.16 368.99 200.394 369.514C200.626 370.023 200.817 370.662 200.97 371.431L202.256 377.929C202.334 378.321 202.437 378.594 202.565 378.748C202.706 378.884 202.895 378.928 203.13 378.881C203.287 378.85 203.428 378.781 203.554 378.675C203.695 378.565 203.853 378.412 204.026 378.215L204.34 378.568C204.063 378.9 203.768 379.179 203.454 379.404C203.155 379.626 202.747 379.789 202.229 379.891C201.727 379.991 201.303 379.993 200.958 379.898C200.613 379.804 200.333 379.623 200.117 379.356C199.916 379.085 199.773 378.73 199.686 378.291C199.408 379.031 199.021 379.63 198.524 380.087C198.028 380.544 197.403 380.847 196.649 380.996ZM197.556 379.643C197.995 379.555 198.378 379.349 198.705 379.023C199.048 378.695 199.334 378.246 199.565 377.679L198.637 372.994C198.514 373.279 198.306 373.549 198.014 373.802C197.719 374.04 197.401 374.291 197.062 374.554C196.722 374.816 196.405 375.108 196.109 375.427C195.826 375.728 195.612 376.088 195.467 376.509C195.322 376.929 195.307 377.429 195.422 378.01C195.543 378.622 195.796 379.078 196.182 379.376C196.564 379.659 197.022 379.748 197.556 379.643ZM206.129 362.287L206.903 366.195L210.152 365.551L210.245 366.022L206.996 366.665L208.828 375.918C208.956 376.561 209.163 376.993 209.452 377.213C209.74 377.434 210.104 377.5 210.543 377.413C210.951 377.332 211.28 377.096 211.528 376.704C211.793 376.309 211.965 375.696 212.045 374.865L212.525 374.941C212.501 375.81 212.304 376.583 211.932 377.26C211.573 377.919 210.931 378.34 210.005 378.523C209.471 378.629 209.01 378.647 208.621 378.577C208.235 378.523 207.884 378.397 207.567 378.198C207.15 377.906 206.829 377.521 206.604 377.043C206.379 376.566 206.184 375.911 206.02 375.079L204.453 367.169L202.287 367.598L202.194 367.127L204.36 366.698L203.679 363.261C204.163 363.149 204.61 363.019 205.021 362.873C205.43 362.71 205.799 362.515 206.129 362.287ZM222.068 362.898L224.021 372.762C224.161 373.469 224.383 373.971 224.687 374.27C225.003 374.55 225.483 374.626 226.127 374.498L226.225 374.993C225.729 375.042 225.238 375.115 224.751 375.211C224.233 375.314 223.743 375.435 223.282 375.576C222.82 375.716 222.406 375.888 222.038 376.091L221.53 373.525C221.324 374.544 220.909 375.328 220.283 375.876C219.67 376.405 218.979 376.746 218.21 376.898C217.629 377.013 217.118 377.025 216.676 376.933C216.237 376.857 215.857 376.711 215.537 376.498C215.193 376.24 214.917 375.878 214.711 375.413C214.502 374.933 214.323 374.316 214.173 373.563L212.998 367.63C212.859 366.924 212.638 366.429 212.338 366.146C212.034 365.847 211.552 365.763 210.893 365.894L210.795 365.399C211.307 365.347 211.798 365.274 212.269 365.181C212.787 365.078 213.277 364.957 213.738 364.817C214.196 364.661 214.611 364.489 214.982 364.301L216.846 373.718C216.937 374.173 217.05 374.583 217.188 374.947C217.325 375.312 217.533 375.58 217.812 375.753C218.091 375.927 218.49 375.962 219.008 375.859C219.557 375.75 220.011 375.489 220.369 375.076C220.744 374.659 221 374.143 221.139 373.529C221.279 372.914 221.278 372.253 221.138 371.547L220.085 366.226C219.945 365.52 219.725 365.026 219.424 364.743C219.12 364.444 218.639 364.36 217.979 364.49L217.882 363.996C218.393 363.944 218.884 363.871 219.355 363.778C219.873 363.675 220.363 363.554 220.824 363.413C221.283 363.257 221.697 363.085 222.068 362.898ZM230.076 356.884C230.441 356.828 230.907 356.752 231.475 356.656C232.059 356.556 232.633 356.451 233.198 356.339C233.951 356.19 234.664 356.04 235.336 355.891C236.023 355.739 236.508 355.634 236.791 355.578C238.549 355.23 239.928 355.316 240.928 355.836C241.943 356.352 242.558 357.152 242.773 358.235C242.882 358.784 242.857 359.36 242.699 359.962C242.553 360.546 242.234 361.114 241.74 361.669C241.243 362.208 240.541 362.697 239.633 363.138L239.643 363.185C240.989 363.065 242.081 363.143 242.918 363.417C243.756 363.692 244.39 364.096 244.822 364.631C245.251 365.149 245.529 365.73 245.657 366.374C245.84 367.3 245.765 368.155 245.431 368.939C245.093 369.707 244.515 370.368 243.695 370.921C242.89 371.472 241.868 371.87 240.628 372.116C240.283 372.184 239.756 372.281 239.046 372.405C238.35 372.51 237.507 372.661 236.518 372.857C235.922 372.975 235.335 373.099 234.757 373.23C234.192 373.342 233.732 373.449 233.377 373.552L233.284 373.081C233.811 372.944 234.199 372.802 234.447 372.655C234.696 372.508 234.831 372.285 234.853 371.987C234.892 371.686 234.855 371.253 234.743 370.688L232.43 359.011C232.315 358.43 232.184 358.016 232.037 357.767C231.903 357.5 231.685 357.348 231.384 357.31C231.096 357.253 230.691 357.268 230.17 357.354L230.076 356.884ZM236.385 356.124C235.71 356.257 235.289 356.479 235.122 356.79C234.971 357.097 234.976 357.658 235.138 358.475L237.45 370.152C237.559 370.701 237.689 371.108 237.839 371.372C237.989 371.636 238.191 371.791 238.445 371.839C238.715 371.883 239.085 371.859 239.556 371.766C240.969 371.486 241.919 370.931 242.407 370.1C242.907 369.251 243.027 368.167 242.766 366.848C242.527 365.64 242.02 364.77 241.246 364.238C240.487 363.703 239.378 363.58 237.919 363.869L235.635 364.321C235.635 364.321 235.623 364.259 235.598 364.133C235.57 363.992 235.556 363.921 235.556 363.921L237.581 363.52C238.444 363.349 239.077 363.045 239.479 362.606C239.879 362.152 240.107 361.617 240.165 361.002C240.219 360.372 240.18 359.719 240.046 359.044C239.816 357.883 239.416 357.057 238.846 356.566C238.273 356.06 237.452 355.912 236.385 356.124ZM251.546 356.987C252.597 356.779 253.575 356.814 254.478 357.091C255.381 357.369 256.169 357.931 256.842 358.776C257.515 359.622 258.002 360.805 258.304 362.328C258.605 363.85 258.606 365.131 258.306 366.169C258.003 367.191 257.487 368.003 256.758 368.604C256.025 369.189 255.133 369.586 254.082 369.794C253.046 369.999 252.07 369.972 251.154 369.713C250.235 369.439 249.441 368.886 248.771 368.057C248.114 367.208 247.634 366.023 247.333 364.5C247.031 362.978 247.023 361.699 247.307 360.664C247.607 359.626 248.13 358.805 248.875 358.201C249.619 357.597 250.51 357.192 251.546 356.987ZM251.639 357.458C250.823 357.619 250.249 358.222 249.917 359.267C249.583 360.295 249.624 361.861 250.04 363.964C250.457 366.067 251.016 367.531 251.717 368.354C252.415 369.162 253.172 369.485 253.989 369.323C254.789 369.165 255.358 368.579 255.696 367.566C256.046 366.535 256.013 364.967 255.596 362.864C255.18 360.761 254.613 359.299 253.896 358.479C253.192 357.64 252.439 357.299 251.639 357.458ZM266.469 371.598C265.59 371.772 264.757 371.848 263.97 371.824C263.198 371.798 262.548 371.649 262.022 371.378C261.514 371.12 261.206 370.716 261.097 370.167C260.994 369.649 261.124 369.15 261.486 368.671C261.847 368.191 262.408 367.77 263.168 367.408L263.408 367.752C263.106 367.958 262.892 368.237 262.766 368.588C262.656 368.936 262.638 369.299 262.712 369.675C262.849 370.366 263.276 370.836 263.995 371.085C264.713 371.334 265.597 371.355 266.649 371.147C267.355 371.007 268.004 370.781 268.594 370.468C269.204 370.168 269.664 369.775 269.976 369.289C270.303 368.8 270.403 368.234 270.275 367.591C270.176 367.088 269.911 366.7 269.482 366.426C269.056 366.168 268.309 366.145 267.242 366.356L265.594 366.683C265.044 366.791 264.525 366.845 264.036 366.844C263.546 366.844 263.126 366.739 262.775 366.531C262.436 366.305 262.217 365.94 262.118 365.438C262.006 364.873 262.136 364.293 262.507 363.697C262.878 363.102 263.573 362.451 264.591 361.743L264.916 361.899C264.51 362.241 264.153 362.58 263.845 362.919C263.55 363.238 263.439 363.586 263.514 363.963C263.613 364.465 264.024 364.645 264.746 364.502L267.548 363.947C268.285 363.801 268.972 363.771 269.609 363.857C270.243 363.927 270.782 364.138 271.227 364.491C271.672 364.843 271.963 365.364 272.1 366.055C272.246 366.793 272.139 367.531 271.78 368.271C271.44 369.024 270.83 369.691 269.95 370.273C269.074 370.87 267.913 371.312 266.469 371.598ZM264.741 362.13C263.941 362.288 263.186 362.307 262.477 362.187C261.765 362.05 261.166 361.745 260.681 361.27C260.195 360.795 259.867 360.126 259.696 359.263C259.525 358.4 259.574 357.656 259.842 357.032C260.106 356.393 260.543 355.882 261.153 355.5C261.759 355.103 262.463 354.825 263.263 354.667C264.095 354.502 264.859 354.489 265.555 354.629C266.249 354.752 266.84 355.059 267.328 355.55C267.814 356.024 268.142 356.693 268.313 357.557C268.484 358.42 268.435 359.163 268.167 359.787C267.899 360.411 267.47 360.92 266.879 361.315C266.286 361.693 265.573 361.965 264.741 362.13ZM264.657 361.706C265.206 361.597 265.584 361.278 265.789 360.748C265.994 360.218 265.972 359.325 265.723 358.07C265.474 356.814 265.154 355.98 264.763 355.568C264.368 355.141 263.896 354.982 263.347 355.09C262.829 355.193 262.461 355.519 262.244 356.067C262.023 356.6 262.037 357.495 262.286 358.75C262.534 360.006 262.862 360.838 263.269 361.247C263.677 361.655 264.139 361.808 264.657 361.706ZM267.139 355.954L266.683 355.873C266.794 355.28 267.076 354.727 267.528 354.213C267.981 353.7 268.498 353.385 269.079 353.27C269.518 353.183 269.888 353.24 270.189 353.442C270.503 353.624 270.703 353.935 270.79 354.375C270.886 354.861 270.821 355.233 270.595 355.49C270.384 355.744 270.137 355.899 269.855 355.955C269.604 356.004 269.351 355.965 269.097 355.835C268.859 355.703 268.689 355.46 268.586 355.105C268.48 354.734 268.503 354.232 268.654 353.599L268.932 353.642C268.354 354.017 267.944 354.376 267.702 354.717C267.472 355.04 267.284 355.452 267.139 355.954ZM276.911 365.102C276.252 365.233 275.662 365.219 275.141 365.061C274.621 364.903 274.199 364.628 273.877 364.235C273.554 363.842 273.337 363.363 273.225 362.798C273.089 362.108 273.135 361.519 273.365 361.033C273.592 360.532 273.922 360.099 274.356 359.736C274.805 359.37 275.288 359.046 275.803 358.765C276.331 358.464 276.822 358.188 277.278 357.934C277.746 357.662 278.115 357.385 278.385 357.103C278.671 356.818 278.779 356.495 278.707 356.134L278.39 354.533C278.278 353.968 278.096 353.54 277.842 353.247C277.601 352.936 277.31 352.741 276.968 352.662C276.641 352.58 276.266 352.581 275.843 352.665C275.482 352.736 275.108 352.867 274.722 353.058C274.332 353.233 274.049 353.493 273.873 353.838C274.237 353.863 274.557 353.996 274.832 354.235C275.121 354.455 275.305 354.769 275.386 355.177C275.473 355.617 275.392 355.992 275.144 356.302C274.911 356.609 274.575 356.806 274.136 356.893C273.649 356.989 273.258 356.912 272.964 356.66C272.666 356.393 272.477 356.055 272.396 355.647C272.312 355.223 272.346 354.858 272.497 354.551C272.664 354.24 272.897 353.933 273.196 353.629C273.523 353.304 273.959 352.997 274.506 352.709C275.068 352.419 275.71 352.202 276.432 352.059C277.107 351.925 277.703 351.888 278.221 351.949C278.751 351.991 279.214 352.144 279.609 352.408C280.072 352.692 280.422 353.095 280.656 353.62C280.887 354.129 281.079 354.768 281.231 355.537L282.518 362.034C282.596 362.427 282.699 362.7 282.827 362.854C282.968 362.989 283.156 363.034 283.392 362.987C283.549 362.956 283.69 362.887 283.816 362.781C283.957 362.671 284.114 362.518 284.287 362.32L284.602 362.674C284.325 363.006 284.03 363.285 283.715 363.51C283.417 363.732 283.009 363.895 282.491 363.997C281.989 364.097 281.565 364.099 281.22 364.004C280.875 363.909 280.594 363.728 280.378 363.461C280.178 363.191 280.034 362.836 279.947 362.397C279.67 363.137 279.283 363.735 278.786 364.193C278.289 364.65 277.664 364.953 276.911 365.102ZM277.817 363.748C278.257 363.661 278.64 363.455 278.967 363.129C279.31 362.8 279.596 362.352 279.826 361.785L278.898 357.1C278.776 357.385 278.568 357.654 278.276 357.908C277.98 358.146 277.663 358.396 277.323 358.659C276.984 358.922 276.667 359.213 276.371 359.533C276.088 359.834 275.874 360.194 275.729 360.614C275.584 361.034 275.569 361.535 275.684 362.116C275.805 362.728 276.058 363.183 276.444 363.482C276.826 363.765 277.284 363.854 277.817 363.748Z" fill="#37322B"/>
<circle cx="137.792" cy="194.208" r="25.2077" fill="#BDE4CB"/>
<circle cx="137.792" cy="194.208" r="23.2077" stroke="#8ECEA3" stroke-opacity="0.1" stroke-width="4"/>
<circle cx="137.792" cy="194.208" r="21.1923" fill="#ECF6EF"/>
<circle cx="137.792" cy="194.208" r="19.1923" stroke="#8ECEA3" stroke-opacity="0.1" stroke-width="4"/>
<path d="M105.5 240.078L118.883 221.491L119.478 221.045L120.816 220.747H122.75L123.79 221.491L124.831 221.937L125.724 222.978L126.467 224.613L114.869 246.472L113.53 247.216H111.895L109.664 246.472L107.88 245.729L106.244 243.498L105.5 242.606V240.078Z" fill="#BDE4CB"/>
<path d="M128.995 217.476L125.602 222.978" stroke="#8ECEA3" stroke-opacity="0.1" stroke-width="4"/>
<path d="M125.007 215.691L121.736 220.599" stroke="#8ECEA3" stroke-opacity="0.1" stroke-width="4"/>
<path d="M119.776 220.747L105.352 240.524" stroke="#8ECEA3" stroke-opacity="0.1" stroke-width="4"/>
<path d="M126.318 224.316L114.72 246.769" stroke="#8ECEA3" stroke-opacity="0.1" stroke-width="4"/>
<path d="M119.478 221.045L119.723 220.908C120.259 220.61 120.874 220.487 121.483 220.556V220.556C121.732 220.584 121.976 220.644 122.209 220.734L122.628 220.896L122.77 220.943C123.557 221.205 124.272 221.648 124.859 222.234V222.234L125.32 222.695C125.507 222.883 125.671 223.093 125.808 223.32V223.32C125.967 223.586 126.088 223.874 126.166 224.174L126.318 224.762" stroke="#8ECEA3" stroke-opacity="0.1" stroke-width="4"/>
<path d="M115.017 246.472L114.384 246.757C113.77 247.033 113.109 247.186 112.436 247.207V247.207C111.914 247.223 111.392 247.16 110.889 247.019L110.463 246.9L110.32 246.851C109.055 246.422 107.904 245.714 106.951 244.779V244.779L106.401 244.239C105.97 243.816 105.647 243.296 105.459 242.723V242.723C105.226 242.009 105.211 241.242 105.417 240.521L105.5 240.227" stroke="#8ECEA3" stroke-opacity="0.1" stroke-width="4"/>
</svg>
