<svg width="163" height="163" viewBox="0 0 163 163" fill="none" xmlns="http://www.w3.org/2000/svg">
<circle cx="81.5" cy="81.5" r="81.5" fill="#E8512A" fill-opacity="0.58"/>
<path d="M87.85 103.725C87.8509 107.244 89.0207 110.662 91.1756 113.444C93.3305 116.225 96.3485 118.212 99.7553 119.092C103.162 119.972 106.765 119.695 109.997 118.305C113.229 116.914 115.908 114.49 117.613 111.412C119.317 108.334 119.951 104.776 119.414 101.299C118.877 97.8217 117.2 94.6212 114.647 92.2004C112.093 89.7797 108.808 88.2758 105.307 87.9251C101.806 87.5745 98.2877 88.3968 95.3049 90.2631C96.3275 84.1166 98.3707 78.1843 101.35 72.7117C105.471 65.2187 110.723 59.9419 115.498 55.173C116.094 54.5768 116.429 53.7682 116.429 52.9251C116.429 52.082 116.094 51.2734 115.498 50.6772C114.902 50.081 114.093 49.7461 113.25 49.7461C112.407 49.7461 111.598 50.081 111.002 50.6772L110.932 50.7534C106.189 55.4969 100.366 61.3198 95.7811 69.651C91.152 78.0838 87.85 88.9296 87.85 103.725ZM50.8549 90.2631C53.8377 88.3968 57.3561 87.5745 60.8571 87.9251C64.3582 88.2758 67.6435 89.7797 70.197 92.2004C72.7504 94.6212 74.4273 97.8217 74.9641 101.299C75.5009 104.776 74.8673 108.334 73.1627 111.412C71.4581 114.49 68.7792 116.914 65.5469 118.305C62.3146 119.695 58.7121 119.972 55.3053 119.092C51.8985 118.212 48.8805 116.225 46.7256 113.444C44.5707 110.662 43.4009 107.244 43.4 103.725C43.4 88.9296 46.702 78.0838 51.3375 69.651C55.9158 61.3198 61.7388 55.4905 66.4759 50.7534L66.5521 50.6772C67.1482 50.081 67.9568 49.7461 68.8 49.7461C69.6431 49.7461 70.4517 50.081 71.0479 50.6772C71.644 51.2734 71.979 52.082 71.979 52.9251C71.979 53.7682 71.644 54.5768 71.0479 55.173C66.2727 59.9419 61.0212 65.2124 56.9001 72.7117C53.9199 78.1862 51.8766 84.1143 50.8549 90.2631Z" fill="#F5F1E3"/>
</svg>
